<?xml version="1.0" encoding="utf-8"?>
<!-- Generator: Adobe Illustrator 19.1.0, SVG Export Plug-In . SVG Version: 6.00 Build 0)  -->
<svg version="1.1" id="Layer_1" xmlns:sketch="http://www.bohemiancoding.com/sketch/ns"
	 xmlns="http://www.w3.org/2000/svg" xmlns:xlink="http://www.w3.org/1999/xlink" x="0px" y="0px" viewBox="-449 -275 60 1140"
	 style="enable-background:new -449 -275 60 1140;" xml:space="preserve">
<style type="text/css">
	.st0{fill:#78CBEF;}
	.st1{fill:#FFFFFF;}
	.st2{fill:#E95655;}
	.st3{fill:#547BBC;}
	.st4{fill:#E9644A;}
	.st5{fill:#4B4B4B;}
	.st6{fill:#7F807E;}
	.st7{fill:#5E8FAE;}
	.st8{fill:#40BFEF;}
	.st9{fill:#8CCFDD;}
	.st10{fill:#E1408F;}
	.st11{fill:#396DB3;}
	.st12{fill:#F29100;}
	.st13{fill:#1384C7;}
	.st14{fill:#FAC766;}
	.st15{fill:#D87DA5;}
	.st16{fill:#1D94D2;}
	.st17{fill:#8C589F;}
	.st18{fill:#ADCE74;}
	.st19{fill:#22B7EB;}
	.st20{fill:#FCC233;}
	.st21{fill:#D5DF80;}
	.st22{fill:#696969;}
	.st23{fill:#4D75B8;}
	.st24{fill:#859563;}
	.st25{fill:#8FD2F0;}
	.st26{fill:#E8476D;}
	.st27{fill:#F2CA59;}
	.st28{fill:#56ACDD;}
	.st29{fill:#282828;}
	.st30{fill:#9ECC91;}
	.st31{fill:#E73B3A;}
	.st32{fill:#B08ABE;}
	.st33{fill:#5168AE;}
	.st34{fill:#6A8751;}
	.st35{fill:#3A4C8E;}
	.st36{fill:#CCCBCB;}
	.st37{fill:#DDDDDD;}
</style>
<title>social_icons_light</title>
<desc>Created with Sketch.</desc>
<g id="Page-1_1_" sketch:type="MSPage">
	<g id="social_icons_light_1_" sketch:type="MSLayerGroup">
		<g id="Page-1" sketch:type="MSShapeGroup">
			<g id="social_icons_light">
				<g id="Group_9_" transform="translate(30.000000, 0.000000)">
					<g id="Shape">
						<path class="st0" d="M-434-245c8.3,0,15-6.7,15-15c0-8.3-6.7-15-15-15c-8.3,0-15,6.7-15,15C-449-251.7-442.3-245-434-245"/>
						<path class="st1" d="M-426.5-263.9c-0.6,0.2-1.1,0.4-1.8,0.5c0.6-0.4,1.1-1,1.4-1.7c-0.6,0.4-1.3,0.6-2,0.7
							c-0.6-0.6-1.4-1-2.2-1c-1.7,0-3.1,1.4-3.1,3.1c0,0.2,0,0.5,0.1,0.7c-2.6-0.1-4.8-1.4-6.4-3.2c-0.3,0.5-0.4,1-0.4,1.6
							c0,1.1,0.5,2,1.4,2.6c-0.5,0-1-0.2-1.4-0.4v0c0,1.5,1.1,2.7,2.5,3c-0.3,0.1-0.5,0.1-0.8,0.1c-0.2,0-0.4,0-0.6-0.1
							c0.4,1.2,1.5,2.1,2.9,2.1c-1.1,0.8-2.4,1.3-3.8,1.3c-0.2,0-0.5,0-0.7,0c1.4,0.9,3,1.4,4.7,1.4c5.7,0,8.8-4.7,8.8-8.8
							c0-0.1,0-0.3,0-0.4C-427.4-262.8-426.9-263.3-426.5-263.9"/>
					</g>
					<g id="Shape_1_" transform="translate(0.000000, 90.000000)">
						<path class="st2" d="M-434-245c8.3,0,15-6.7,15-15c0-8.3-6.7-15-15-15c-8.3,0-15,6.7-15,15C-449-251.7-442.3-245-434-245"/>
						<path class="st1" d="M-434-267.5c-4.1,0-7.5,3.4-7.5,7.5c0,3.1,1.8,5.7,4.5,6.9c0-0.5,0-1.2,0.1-1.7c0.1-0.6,1-4.1,1-4.1
							s-0.2-0.5-0.2-1.2c0-1.1,0.6-1.9,1.4-1.9c0.7,0,1,0.5,1,1.1c0,0.7-0.4,1.7-0.7,2.7c-0.2,0.8,0.4,1.4,1.2,1.4
							c1.4,0,2.4-1.8,2.4-4c0-1.6-1.1-2.9-3.1-2.9c-2.3,0-3.7,1.7-3.7,3.6c0,0.7,0.2,1.1,0.5,1.5c0.1,0.2,0.2,0.2,0.1,0.4
							c0,0.1-0.1,0.5-0.2,0.6c0,0.2-0.2,0.3-0.4,0.2c-1-0.4-1.5-1.6-1.5-2.9c0-2.1,1.8-4.7,5.4-4.7c2.9,0,4.8,2.1,4.8,4.3
							c0,2.9-1.6,5.1-4,5.1c-0.8,0-1.6-0.4-1.8-0.9c0,0-0.4,1.7-0.5,2.1c-0.2,0.6-0.5,1.2-0.8,1.6c0.7,0.2,1.4,0.3,2.1,0.3
							c4.1,0,7.5-3.4,7.5-7.5S-429.9-267.5-434-267.5"/>
					</g>
					<g id="Shape_2_" transform="translate(0.000000, 180.000000)">
						<path class="st3" d="M-434-245c8.3,0,15-6.7,15-15c0-8.3-6.7-15-15-15s-15,6.7-15,15C-449-251.7-442.3-245-434-245"/>
						<path class="st1" d="M-437.6-262.5h1.6v-1.5c0-0.7,0-1.7,0.5-2.3c0.5-0.7,1.2-1.1,2.4-1.1c2,0,2.8,0.3,2.8,0.3l-0.4,2.3
							c0,0-0.6-0.2-1.2-0.2c-0.6,0-1.1,0.2-1.1,0.8v1.8h2.5l-0.2,2.2h-2.3v7.8h-2.9v-7.8h-1.6L-437.6-262.5L-437.6-262.5
							L-437.6-262.5z"/>
					</g>
					<g id="Shape_3_" transform="translate(0.000000, 360.000000)">
						<path class="st4" d="M-434-245c8.3,0,15-6.7,15-15c0-8.3-6.7-15-15-15c-8.3,0-15,6.7-15,15C-449-251.7-442.3-245-434-245"/>
						<path class="st1" d="M-431.1-260l-4.9,2.9v-5.8L-431.1-260L-431.1-260z M-426.5-257.3v-5.4c0,0,0-2.6-2.6-2.6h-9.8
							c0,0-2.6,0-2.6,2.6v5.4c0,0,0,2.6,2.6,2.6h9.8C-429.1-254.7-426.5-254.7-426.5-257.3L-426.5-257.3L-426.5-257.3z"/>
					</g>
					<g id="Shape_4_" transform="translate(0.000000, 270.000000)">
						<path class="st5" d="M-434-245c8.3,0,15-6.7,15-15c0-8.3-6.7-15-15-15c-8.3,0-15,6.7-15,15C-449-251.7-442.3-245-434-245"/>
						<path class="st1" d="M-436.5-253.3c-1.8,0-3.1-1.1-3.1-2.5c0-1.3,1.6-2.4,3.4-2.4c0.4,0,0.8,0.1,1.2,0.2
							c1,0.7,1.7,1.1,1.9,1.8c0,0.2,0.1,0.3,0.1,0.5C-433.1-254.3-434-253.3-436.5-253.3L-436.5-253.3L-436.5-253.3z M-436-261.2
							c-1.2,0-2.3-1.3-2.5-2.9c-0.2-1.6,0.6-2.8,1.8-2.7c1.2,0,2.3,1.3,2.5,2.9C-434-262.4-434.8-261.2-436-261.2L-436-261.2
							L-436-261.2z M-433.5-258.9c-0.4-0.3-1.2-1-1.2-1.4c0-0.5,0.1-0.7,0.9-1.3c0.8-0.6,1.3-1.4,1.3-2.4c0-1.2-0.5-2.3-1.5-2.7h1.5
							l1-0.8h-4.6c-2.1,0-4,1.6-4,3.4c0,1.9,1.4,3.4,3.5,3.4c0.1,0,0.3,0,0.4,0c-0.1,0.3-0.2,0.6-0.2,0.9c0,0.5,0.3,0.9,0.6,1.3
							c-0.3,0-0.5,0-0.8,0c-2.6,0-4.6,1.6-4.6,3.3c0,1.7,2.2,2.7,4.8,2.7c2.9,0,4.6-1.7,4.6-3.3C-431.9-257.2-432.3-258-433.5-258.9
							L-433.5-258.9L-433.5-258.9z M-426.8-261.1h-1.8v-1.8h-1.5v1.8h-1.8v1.5h1.8v1.8h1.5v-1.8h1.8V-261.1L-426.8-261.1z"/>
					</g>
					<g id="Shape_5_" transform="translate(0.000000, 630.000000)">
						<path class="st6" d="M-434-244.9c8.3,0,15-6.7,15-15c0-8.3-6.7-15-15-15c-8.3,0-15,6.7-15,15
							C-449-251.7-442.3-244.9-434-244.9"/>
						<path class="st1" d="M-427.6-256.4c-0.4,0.8-0.5,1.1-1,1.8c-0.6,1-1.5,2.2-2.6,2.2c-1,0-1.2-0.6-2.6-0.6
							c-1.3,0-1.6,0.6-2.6,0.6c-1.1,0-1.9-1.1-2.6-2.1c-1.8-2.7-2-5.9-0.9-7.5c0.8-1.2,2-1.9,3.1-1.9c1.2,0,1.9,0.6,2.9,0.6
							c0.9,0,1.5-0.6,2.9-0.6c1,0,2.1,0.6,2.9,1.5C-430.5-261-430.1-257.4-427.6-256.4L-427.6-256.4L-427.6-256.4z M-431.9-265
							c0.5-0.6,0.9-1.5,0.7-2.4c-0.8,0.1-1.7,0.6-2.3,1.2c-0.5,0.6-0.9,1.5-0.8,2.4C-433.3-263.8-432.4-264.3-431.9-265L-431.9-265
							L-431.9-265z"/>
					</g>
					<g id="Shape_6_" transform="translate(0.000000, 540.000000)">
						<path class="st7" d="M-434-244.9c8.3,0,15-6.7,15-15c0-8.3-6.7-15-15-15c-8.3,0-15,6.7-15,15
							C-449-251.7-442.3-244.9-434-244.9"/>
						<path class="st1" d="M-433.8-267.5v3.8h3.6v2.4h-3.6v3.8c0,0.9,0,1.4,0.1,1.7c0.1,0.2,0.3,0.4,0.5,0.6
							c0.3,0.2,0.7,0.3,1.1,0.3c0.8,0,1.5-0.2,2.3-0.7v2.4c-0.6,0.3-1.2,0.5-1.7,0.6c-0.5,0.1-1.1,0.2-1.7,0.2
							c-0.7,0-1.3-0.1-1.8-0.3c-0.5-0.2-1-0.4-1.3-0.7c-0.4-0.3-0.6-0.7-0.8-1c-0.1-0.4-0.2-0.9-0.2-1.6v-5.3h-1.7v-2.1
							c0.6-0.2,1.1-0.5,1.5-0.8c0.4-0.4,0.8-0.8,1-1.3c0.3-0.5,0.4-1.1,0.5-1.9L-433.8-267.5L-433.8-267.5L-433.8-267.5z"/>
					</g>
					<g id="Shape_7_" transform="translate(0.000000, 720.000000)">
						<path class="st8" d="M-434-244.9c8.3,0,15-6.7,15-15c0-8.3-6.7-15-15-15c-8.3,0-15,6.7-15,15
							C-449-251.7-442.3-244.9-434-244.9"/>
						<path class="st1" d="M-434.6-263.7c0.3,0.4,0.4,0.9,0.4,1.4c0,0.6-0.1,1-0.4,1.4c-0.2,0.2-0.4,0.4-0.7,0.5
							c0.5,0.2,0.8,0.4,1.1,0.8c0.2,0.4,0.4,0.8,0.4,1.4c0,0.5-0.1,1-0.4,1.5c-0.2,0.3-0.4,0.5-0.7,0.7c-0.3,0.2-0.6,0.4-1,0.5
							c-0.4,0.1-0.8,0.1-1.3,0.1h-4.2v-9.3h4.5C-435.9-264.7-435.1-264.3-434.6-263.7L-434.6-263.7L-434.6-263.7z M-439.6-263.1v2
							h2.3c0.4,0,0.7-0.1,1-0.2c0.2-0.2,0.4-0.4,0.4-0.8c0-0.4-0.2-0.7-0.5-0.9c-0.3-0.1-0.7-0.1-1.1-0.1L-439.6-263.1L-439.6-263.1
							L-439.6-263.1z M-439.6-259.5v2.5h2.2c0.4,0,0.7-0.1,0.9-0.2c0.4-0.2,0.6-0.6,0.6-1.2c0-0.5-0.2-0.8-0.6-1
							c-0.2-0.1-0.5-0.2-0.9-0.2L-439.6-259.5L-439.6-259.5L-439.6-259.5z M-428.3-262.1c0.5,0.2,0.9,0.6,1.2,1
							c0.3,0.4,0.5,0.9,0.5,1.4c0,0.3,0.1,0.8,0.1,1.4h-5c0,0.7,0.3,1.2,0.7,1.4c0.3,0.2,0.6,0.3,1,0.3c0.4,0,0.7-0.1,1-0.3
							c0.1-0.1,0.3-0.3,0.4-0.5h1.8c0,0.4-0.3,0.8-0.7,1.2c-0.6,0.7-1.5,1-2.6,1c-0.9,0-1.7-0.3-2.4-0.8c-0.7-0.6-1-1.5-1-2.7
							c0-1.2,0.3-2.1,0.9-2.7c0.6-0.6,1.4-1,2.5-1C-429.3-262.5-428.8-262.3-428.3-262.1L-428.3-262.1L-428.3-262.1z M-431-260.6
							c-0.3,0.3-0.4,0.6-0.5,1.1h3.1c0-0.5-0.2-0.8-0.5-1.1c-0.3-0.2-0.6-0.4-1.1-0.4C-430.4-261-430.7-260.8-431-260.6L-431-260.6
							L-431-260.6z M-427.9-264.3h-4v1.2h4V-264.3L-427.9-264.3z"/>
					</g>
					<g id="Shape_8_" transform="translate(0.000000, 810.000000)">
						<path class="st9" d="M-434-244.9c8.3,0,15-6.7,15-15c0-8.3-6.7-15-15-15c-8.3,0-15,6.7-15,15
							C-449-251.6-442.3-244.9-434-244.9"/>
						<path class="st1" d="M-426.5-263.1c-0.1,1.5-1.1,3.5-3.1,6c-2,2.6-3.8,4-5.2,4c-0.9,0-1.6-0.8-2.2-2.4c-0.4-1.5-0.8-3-1.2-4.4
							c-0.4-1.6-0.9-2.4-1.4-2.4c-0.1,0-0.5,0.2-1.2,0.7l-0.7-0.9c0.7-0.6,1.5-1.3,2.2-1.9c1-0.9,1.7-1.3,2.2-1.3
							c1.2-0.1,1.9,0.7,2.2,2.4c0.3,1.8,0.5,3,0.6,3.4c0.3,1.5,0.7,2.3,1.1,2.3c0.3,0,0.8-0.5,1.4-1.5c0.6-1,1-1.7,1-2.3
							c0.1-0.9-0.2-1.3-1-1.3c-0.4,0-0.7,0.1-1.1,0.2c0.7-2.4,2.2-3.6,4.2-3.5C-427.1-266-426.4-265-426.5-263.1L-426.5-263.1
							L-426.5-263.1z"/>
					</g>
					<g id="Shape_9_" transform="translate(0.000000, 450.000000)">
						<path class="st4" d="M-434-245c8.3,0,15-6.7,15-15c0-8.3-6.7-15-15-15c-8.3,0-15,6.7-15,15C-449-251.7-442.3-245-434-245"/>
						<path class="st1" d="M-430.9-265v2.9c-0.1,0.1-0.2,0.1-0.2,0.2c-0.1,0.1-0.2,0.1-0.2,0.1c-0.1,0-0.1,0-0.2-0.1
							c0,0-0.1-0.1-0.1-0.2v-2.9h-0.8v3.1c0,0.2,0,0.4,0.1,0.5c0.1,0.1,0.2,0.2,0.4,0.2c0.2,0,0.3,0,0.5-0.1
							c0.1-0.1,0.3-0.2,0.4-0.4v0.4h0.8v-3.8H-430.9L-430.9-265z M-433.3-264.8c-0.2-0.2-0.5-0.3-0.8-0.3c-0.4,0-0.6,0.1-0.8,0.3
							c-0.2,0.2-0.3,0.4-0.3,0.7v2c0,0.3,0.1,0.6,0.3,0.8c0.2,0.2,0.5,0.3,0.8,0.3c0.3,0,0.6-0.1,0.8-0.3c0.2-0.2,0.3-0.4,0.3-0.8
							v-1.9C-433-264.4-433.1-264.7-433.3-264.8L-433.3-264.8L-433.3-264.8z M-433.8-262.1c0,0.1,0,0.2-0.1,0.2
							c-0.1,0.1-0.1,0.1-0.2,0.1c-0.1,0-0.2,0-0.2-0.1c-0.1-0.1-0.1-0.1-0.1-0.2v-2.1c0-0.1,0-0.1,0.1-0.2c0.1-0.1,0.1-0.1,0.2-0.1
							c0.1,0,0.2,0,0.2,0.1c0.1,0,0.1,0.1,0.1,0.2L-433.8-262.1L-433.8-262.1L-433.8-262.1z M-436.2-266.4l-0.5,2h-0.1l-0.6-2h-0.9
							l1,3.1v2h0.9v-2.1l1-3L-436.2-266.4L-436.2-266.4L-436.2-266.4z M-430.1-257.4c0,0.1,0.1,0.2,0.1,0.3v0.3h-0.6v-0.3
							c0-0.1,0-0.2,0.1-0.3c0-0.1,0.1-0.1,0.2-0.1C-430.3-257.5-430.2-257.4-430.1-257.4L-430.1-257.4L-430.1-257.4z M-432.5-257.4
							c0-0.1-0.1-0.1-0.2-0.1c0,0-0.1,0-0.1,0c0,0-0.1,0.1-0.1,0.1v2.1c0.1,0.1,0.1,0.1,0.2,0.1c0.1,0,0.1,0,0.2,0
							c0.1,0,0.2,0,0.2-0.1c0,0,0.1-0.1,0.1-0.2v-1.8C-432.4-257.2-432.5-257.3-432.5-257.4L-432.5-257.4L-432.5-257.4z
							 M-432.5-257.4c0-0.1-0.1-0.1-0.2-0.1c0,0-0.1,0-0.1,0c0,0-0.1,0.1-0.1,0.1v2.1c0.1,0.1,0.1,0.1,0.2,0.1c0.1,0,0.1,0,0.2,0
							c0.1,0,0.2,0,0.2-0.1c0,0,0.1-0.1,0.1-0.2v-1.8C-432.4-257.2-432.5-257.3-432.5-257.4L-432.5-257.4L-432.5-257.4z M-428.6-260
							h-10.7c-1.2,0-2.1,1-2.1,2.1v2.2c0,1.2,1,2.1,2.1,2.1h10.7c1.2,0,2.1-1,2.1-2.1v-2.2C-426.5-259.1-427.5-260-428.6-260
							L-428.6-260L-428.6-260z M-436.5-258.5h-0.8v4h-0.8v-4h-0.8v-0.7h2.4V-258.5L-436.5-258.5z M-434.2-254.6h-0.7v-0.4
							c-0.1,0.1-0.3,0.2-0.4,0.3c-0.1,0.1-0.3,0.1-0.4,0.1c-0.2,0-0.3-0.1-0.4-0.2c-0.1-0.1-0.1-0.2-0.1-0.5v-2.9h0.7v2.6
							c0,0.1,0,0.1,0,0.2c0,0,0.1,0.1,0.1,0.1c0.1,0,0.1,0,0.2-0.1c0.1,0,0.1-0.1,0.2-0.2v-2.6h0.7V-254.6L-434.2-254.6z
							 M-431.7-255.3c0,0.2-0.1,0.4-0.2,0.6c-0.1,0.1-0.3,0.2-0.5,0.2c-0.1,0-0.2,0-0.4-0.1c-0.1-0.1-0.2-0.1-0.3-0.2v0.3h-0.7v-4.6
							h0.7v1.5c0.1-0.1,0.2-0.2,0.3-0.2c0.1-0.1,0.2-0.1,0.3-0.1c0.2,0,0.4,0.1,0.5,0.2c0.1,0.1,0.2,0.4,0.2,0.6V-255.3
							L-431.7-255.3z M-429.4-256.2h-1.3v0.6c0,0.2,0,0.3,0.1,0.4c0,0.1,0.1,0.1,0.2,0.1c0.1,0,0.2,0,0.2-0.1c0-0.1,0.1-0.2,0.1-0.4
							v-0.2h0.7v0.2c0,0.4-0.1,0.6-0.3,0.8c-0.2,0.2-0.4,0.3-0.8,0.3c-0.3,0-0.6-0.1-0.7-0.3c-0.2-0.2-0.3-0.4-0.3-0.8v-1.5
							c0-0.3,0.1-0.5,0.3-0.7c0.2-0.2,0.4-0.3,0.7-0.3c0.3,0,0.6,0.1,0.7,0.3c0.2,0.2,0.3,0.4,0.3,0.7L-429.4-256.2L-429.4-256.2
							L-429.4-256.2z M-432.7-257.5c0,0-0.1,0-0.1,0c0,0-0.1,0.1-0.1,0.1v2.1c0.1,0.1,0.1,0.1,0.2,0.1c0.1,0,0.1,0,0.2,0
							c0.1,0,0.2,0,0.2-0.1c0,0,0.1-0.1,0.1-0.2v-1.8c0-0.1,0-0.2-0.1-0.3C-432.6-257.5-432.6-257.5-432.7-257.5L-432.7-257.5
							L-432.7-257.5z M-432.5-257.4c0-0.1-0.1-0.1-0.2-0.1c0,0-0.1,0-0.1,0c0,0-0.1,0.1-0.1,0.1v2.1c0.1,0.1,0.1,0.1,0.2,0.1
							c0.1,0,0.1,0,0.2,0c0.1,0,0.2,0,0.2-0.1c0,0,0.1-0.1,0.1-0.2v-1.8C-432.4-257.2-432.5-257.3-432.5-257.4L-432.5-257.4
							L-432.5-257.4z M-432.5-257.4c0-0.1-0.1-0.1-0.2-0.1c0,0-0.1,0-0.1,0c0,0-0.1,0.1-0.1,0.1v2.1c0.1,0.1,0.1,0.1,0.2,0.1
							c0.1,0,0.1,0,0.2,0c0.1,0,0.2,0,0.2-0.1c0,0,0.1-0.1,0.1-0.2v-1.8C-432.4-257.2-432.5-257.3-432.5-257.4L-432.5-257.4
							L-432.5-257.4z"/>
					</g>
					<g id="Shape_12_" transform="translate(0.000000, 900.000000)">
						<path class="st1" d="M-434-244.9c8.3,0,15-6.7,15-15c0-8.3-6.7-15-15-15c-8.3,0-15,6.7-15,15
							C-449-251.6-442.3-244.9-434-244.9"/>
						<g id="Group" transform="translate(7.000000, 11.000000)">
							<path id="Shape_10_" class="st10" d="M-433.5-270.9c0,1.8-1.5,3.3-3.3,3.3c-1.8,0-3.3-1.5-3.3-3.3c0-1.8,1.5-3.3,3.3-3.3
								C-435-274.2-433.5-272.7-433.5-270.9L-433.5-270.9L-433.5-270.9z"/>
							<path id="Shape_11_" class="st11" d="M-441.9-270.9c0,1.8-1.5,3.3-3.3,3.3c-1.8,0-3.3-1.5-3.3-3.3c0-1.8,1.5-3.3,3.3-3.3
								C-443.4-274.2-441.9-272.7-441.9-270.9L-441.9-270.9L-441.9-270.9z"/>
						</g>
					</g>
					<g transform="translate(0.000000, 990.000000)">
						<path id="Shape_13_" class="st12" d="M-434-244.9c8.3,0,15-6.7,15-15c0-8.3-6.7-15-15-15s-15,6.7-15,15
							C-449-251.6-442.3-244.9-434-244.9"/>
						<path id="RSS" class="st1" d="M-438.1-255.8c0.4,0.4,0.6,0.9,0.6,1.4c0,0.5-0.2,1-0.6,1.4l0,0c-0.4,0.4-0.9,0.6-1.4,0.6
							s-1-0.2-1.4-0.6c-0.4-0.4-0.6-0.9-0.6-1.4c0-0.5,0.2-1,0.6-1.4l0,0c0.4-0.4,0.9-0.6,1.4-0.6S-438.5-256.2-438.1-255.8
							L-438.1-255.8L-438.1-255.8z M-440.9-253L-440.9-253L-440.9-253L-440.9-253z M-441.5-262.3v2.9c1.9,0,3.6,0.7,5,2.1
							c1.3,1.3,2.1,3.1,2.1,5l0,0v0h2.9c0-2.7-1.1-5.2-2.9-7C-436.3-261.2-438.8-262.3-441.5-262.3L-441.5-262.3L-441.5-262.3z
							 M-441.5-267.4v2.9c6.7,0,12.1,5.4,12.1,12.1h2.9c0-4.1-1.7-7.9-4.4-10.6C-433.6-265.7-437.4-267.4-441.5-267.4L-441.5-267.4
							L-441.5-267.4z"/>
					</g>
					<g id="Shape_14_" transform="translate(0.000000, 30.000000)">
						<path class="st13" d="M-434-245c8.3,0,15-6.7,15-15c0-8.3-6.7-15-15-15c-8.3,0-15,6.7-15,15C-449-251.7-442.3-245-434-245"/>
						<path class="st1" d="M-438.2-253.7h-2.9v-9.4h2.9V-253.7L-438.2-253.7z M-439.7-264.2L-439.7-264.2c-1.1,0-1.8-0.7-1.8-1.6
							c0-0.9,0.7-1.6,1.8-1.6c1.1,0,1.7,0.7,1.8,1.6C-438-265-438.6-264.2-439.7-264.2L-439.7-264.2L-439.7-264.2z M-426.5-253.7
							h-3.3v-4.8c0-1.3-0.5-2.1-1.7-2.1c-0.9,0-1.4,0.6-1.6,1.1c-0.1,0.2-0.1,0.5-0.1,0.8v5.1h-3.3c0,0,0-8.6,0-9.4h3.3v1.5
							c0.2-0.6,1.2-1.6,2.9-1.6c2.1,0,3.7,1.3,3.7,4.2L-426.5-253.7L-426.5-253.7L-426.5-253.7z"/>
					</g>
					<g id="Shape_15_" transform="translate(0.000000, 120.000000)">
						<path class="st14" d="M-434-245c8.3,0,15-6.7,15-15s-6.7-15-15-15c-8.3,0-15,6.7-15,15S-442.3-245-434-245"/>
						<path class="st1" d="M-426.6-261.3l-0.1-0.3l-0.2-0.2c-0.3-0.2-1.7,0-2-0.3c-0.3-0.2-0.3-0.7-0.4-1.3
							c-0.1-1.2-0.2-1.2-0.4-1.6c-0.7-1.4-2.4-2.4-3.7-2.6h-3.3c-2.6,0-4.7,2.1-4.7,4.7v5.5c0,2.6,2.1,4.7,4.7,4.7h5.4
							c2.6,0,4.7-2.1,4.7-4.7l0-3.8L-426.6-261.3L-426.6-261.3z M-436.7-263.6h2.6c0.5,0,0.9,0.4,0.9,0.9c0,0.5-0.4,0.9-0.9,0.9
							h-2.6c-0.5,0-0.9-0.4-0.9-0.9C-437.6-263.2-437.2-263.6-436.7-263.6L-436.7-263.6L-436.7-263.6z M-431.3-256.4h-5.3
							c-0.5,0-0.9-0.4-0.9-0.9c0-0.5,0.4-0.9,0.9-0.9h5.3c0.5,0,0.9,0.4,0.9,0.9C-430.4-256.8-430.8-256.4-431.3-256.4L-431.3-256.4
							L-431.3-256.4z"/>
					</g>
					<g id="Shape_16_" transform="translate(0.000000, 210.000000)">
						<path class="st15" d="M-434-245c8.3,0,15-6.7,15-15c0-8.3-6.7-15-15-15c-8.3,0-15,6.7-15,15C-449-251.7-442.3-245-434-245"/>
						<path class="st1" d="M-426.7-261.5c-0.1-0.5-0.2-1-0.4-1.4c-0.2-0.4-0.4-0.9-0.7-1.3c-0.3-0.4-0.6-0.8-0.9-1.1
							c-0.3-0.3-0.7-0.6-1.1-0.9c-0.4-0.3-0.8-0.5-1.3-0.7c-0.5-0.2-0.9-0.3-1.4-0.4c-0.5-0.1-1-0.2-1.5-0.2c-0.5,0-1,0.1-1.5,0.2
							c-0.5,0.1-1,0.2-1.4,0.4c-0.4,0.2-0.9,0.4-1.3,0.7c-0.4,0.3-0.8,0.6-1.1,0.9c-0.3,0.3-0.6,0.7-0.9,1.1
							c-0.3,0.4-0.5,0.8-0.7,1.3c-0.2,0.5-0.3,0.9-0.4,1.4c-0.1,0.5-0.2,1-0.2,1.5c0,0.5,0.1,1,0.2,1.5c0.1,0.5,0.2,1,0.4,1.4
							c0.2,0.4,0.4,0.9,0.7,1.3c0.3,0.4,0.6,0.8,0.9,1.1c0.3,0.3,0.7,0.6,1.1,0.9c0.4,0.3,0.8,0.5,1.3,0.7c0.5,0.2,0.9,0.3,1.4,0.4
							c0.5,0.1,1,0.2,1.5,0.2c0.5,0,1-0.1,1.5-0.2c0.5-0.1,1-0.2,1.4-0.4c0.4-0.2,0.9-0.4,1.3-0.7c0.4-0.3,0.8-0.6,1.1-0.9
							c0.3-0.3,0.6-0.7,0.9-1.1c0.3-0.4,0.5-0.8,0.7-1.3c0.2-0.5,0.3-0.9,0.4-1.4c0.1-0.5,0.2-1,0.2-1.5
							C-426.5-260.5-426.6-261-426.7-261.5L-426.7-261.5L-426.7-261.5z M-427.6-260c-0.1,0-2.3-0.5-4.5-0.2c0-0.1-0.1-0.2-0.1-0.3
							c-0.1-0.3-0.3-0.6-0.4-0.9c2.5-1,3.6-2.5,3.6-2.5C-428.2-263-427.6-261.6-427.6-260L-427.6-260L-427.6-260z M-429.8-264.8
							c0,0-0.9,1.4-3.3,2.3c-1.1-2-2.3-3.6-2.4-3.7c0.5-0.1,1-0.2,1.5-0.2C-432.4-266.4-430.9-265.8-429.8-264.8L-429.8-264.8
							L-429.8-264.8z M-435.5-266.2L-435.5-266.2C-435.5-266.2-435.5-266.2-435.5-266.2C-435.5-266.2-435.5-266.2-435.5-266.2
							L-435.5-266.2L-435.5-266.2z M-436.7-265.8c0.1,0.1,1.3,1.7,2.4,3.7c-3.1,0.8-5.7,0.8-5.9,0.8
							C-439.9-263.3-438.5-264.9-436.7-265.8L-436.7-265.8L-436.7-265.8z M-440.4-260c0-0.1,0-0.1,0-0.2c0.1,0,3.3,0.1,6.6-0.9
							c0.2,0.4,0.4,0.7,0.5,1.1c-0.1,0-0.2,0-0.3,0.1c-3.5,1.1-5.2,4.2-5.2,4.2s0,0,0,0C-439.8-256.8-440.4-258.3-440.4-260
							L-440.4-260L-440.4-260z M-434-253.6c-1.6,0-3-0.6-4.1-1.5c0.1,0.1,0.1,0.1,0.1,0.1s1.2-2.7,5-4c0,0,0,0,0,0
							c0.9,2.3,1.3,4.3,1.4,4.9C-432.3-253.8-433.1-253.6-434-253.6L-434-253.6L-434-253.6z M-430.4-254.7c-0.1-0.4-0.4-2.3-1.2-4.6
							c2.1-0.3,3.9,0.2,4,0.3C-428-257.2-429-255.6-430.4-254.7L-430.4-254.7L-430.4-254.7z"/>
					</g>
					<g id="Shape_17_" transform="translate(0.000000, 300.000000)">
						<path class="st16" d="M-434-245c8.3,0,15-6.7,15-15c0-8.3-6.7-15-15-15c-8.3,0-15,6.7-15,15S-442.3-245-434-245"/>
						<path class="st1" d="M-426.9-258.4c0.1-0.5,0.2-1,0.2-1.5c0-4-3.2-7.2-7.2-7.2c-0.4,0-0.8,0-1.2,0.1c-0.6-0.4-1.4-0.6-2.2-0.6
							c-2.3,0-4.1,1.9-4.1,4.1c0,0.8,0.2,1.5,0.6,2.1c-0.1,0.5-0.1,0.9-0.1,1.4c0,4,3.2,7.2,7.2,7.2c0.4,0,0.9,0,1.3-0.1
							c0.6,0.3,1.3,0.5,2,0.5c2.3,0,4.1-1.9,4.1-4.1C-426.5-257.2-426.7-257.8-426.9-258.4L-426.9-258.4L-426.9-258.4z
							 M-430.2-256.5c-0.3,0.5-0.8,0.8-1.5,1.1c-0.6,0.3-1.4,0.4-2.2,0.4c-1,0-1.9-0.2-2.6-0.5c-0.5-0.3-0.9-0.6-1.2-1
							c-0.3-0.4-0.5-0.9-0.5-1.3c0-0.3,0.1-0.5,0.3-0.7c0.2-0.2,0.4-0.3,0.7-0.3c0.2,0,0.5,0.1,0.6,0.2c0.2,0.1,0.3,0.3,0.4,0.6
							c0.1,0.3,0.3,0.5,0.4,0.7c0.1,0.2,0.3,0.3,0.6,0.5c0.3,0.1,0.6,0.2,1,0.2c0.6,0,1.1-0.1,1.4-0.4c0.4-0.2,0.5-0.5,0.5-0.9
							c0-0.3-0.1-0.5-0.3-0.7c-0.2-0.2-0.5-0.3-0.8-0.4c-0.3-0.1-0.8-0.2-1.3-0.3c-0.7-0.2-1.4-0.3-1.9-0.6
							c-0.5-0.2-0.9-0.5-1.2-0.9c-0.3-0.4-0.5-0.9-0.5-1.4c0-0.5,0.2-1,0.5-1.4c0.3-0.4,0.8-0.7,1.4-1c0.6-0.2,1.3-0.3,2.1-0.3
							c0.6,0,1.2,0.1,1.7,0.2c0.5,0.1,0.9,0.3,1.2,0.6c0.3,0.2,0.5,0.5,0.7,0.8c0.1,0.3,0.2,0.6,0.2,0.8c0,0.3-0.1,0.5-0.3,0.7
							c-0.2,0.2-0.4,0.3-0.7,0.3c-0.3,0-0.5-0.1-0.6-0.2c-0.1-0.1-0.3-0.3-0.4-0.6c-0.2-0.3-0.4-0.6-0.6-0.8
							c-0.2-0.2-0.6-0.3-1.2-0.3c-0.5,0-0.9,0.1-1.2,0.3c-0.3,0.2-0.4,0.4-0.4,0.7c0,0.2,0,0.3,0.1,0.4c0.1,0.1,0.2,0.2,0.4,0.3
							c0.2,0.1,0.4,0.2,0.6,0.2c0.2,0.1,0.5,0.1,1,0.2c0.6,0.1,1.1,0.3,1.6,0.4c0.5,0.2,0.9,0.3,1.2,0.6c0.3,0.2,0.6,0.5,0.8,0.9
							c0.2,0.3,0.3,0.8,0.3,1.3C-429.8-257.5-429.9-256.9-430.2-256.5L-430.2-256.5L-430.2-256.5z"/>
					</g>
					<g id="Shape_21_" transform="translate(0.000000, 390.000000)">
						<path class="st17" d="M-434-245c8.3,0,15-6.7,15-15c0-8.3-6.7-15-15-15c-8.3,0-15,6.7-15,15C-449-251.7-442.3-245-434-245"/>
						<g id="Group_1_" transform="translate(7.000000, 10.000000)">
							<path id="Shape_18_" class="st1" d="M-436.4-272.2c0.1,0,0.2,0,0.3-0.1h1.1l0.2-0.2c0,0,0,0,0,0l0.4-0.6c0,0,0,0,0,0l0-0.1
								h-5.9l0.2,0.9h1.6l-2.7,2.4c-0.5-0.8-1.8-2.3-2.7-3.6h2v-0.7l0-0.2c0,0,0,0,0,0v-0.1h-6.7v0.9h2c0.8,0.6,3.7,4.3,3.8,4.6
								c0,0.3,0.1,2.4-0.1,2.5c-0.3,0.3-1.6,0.2-1.9,0.2l-0.1,0.6c0.6,0,2.5,0,3.1,0c1.2,0,3.2,0,3.5,0l0-0.7c-0.3,0-1.9,0-2.1-0.1
								c0-0.3-0.1-2.5-0.1-2.7C-440.1-269.5-436.8-272.1-436.4-272.2L-436.4-272.2L-436.4-272.2z"/>
							<path id="Shape_19_" class="st1" d="M-435.4-267.2l0.9,0.1l1-4c-0.2,0-1.8-0.2-2-0.2L-435.4-267.2L-435.4-267.2z"/>
							<path id="Shape_20_" class="st1" d="M-435.6-266.5l0,1l0.5,0l0.5,0l0.1-1l-0.5,0L-435.6-266.5L-435.6-266.5z"/>
						</g>
					</g>
					<g transform="translate(0.000000, 480.000000)">
						<path id="Shape_22_" class="st18" d="M-434-245c8.3,0,15-6.7,15-15c0-8.3-6.7-15-15-15c-8.3,0-15,6.7-15,15
							C-449-251.7-442.3-245-434-245"/>
						<g transform="translate(7.000000, 8.000000)">
							<g id="SVGID_1_-link" transform="translate(0.000000, 6.000000)">
								<path id="SVGID_1_" class="st1" d="M-443.1-268.8c-0.8-0.5-1.6-1-2.8-1c-0.7,0-1.6,0.2-2.6,0.6l1.4-4.8
									c0.2-0.1,0.3-0.1,0.5-0.2c0.5-0.2,1.2-0.4,2-0.4c0.1,0,0.2,0,0.3,0c0.8,0,1.5,0.3,2,0.5c0.2,0.1,0.4,0.2,0.6,0.4
									C-441.9-273.1-442.8-269.8-443.1-268.8"/>
							</g>
							<g id="SVGID_3_-link" transform="translate(6.000000, 7.000000)">
								<path id="SVGID_3_" class="st1" d="M-445.4-268.3c-1.2,0-2.8-1-2.8-1l1.4-4.8c0.4,0.3,1.4,1,3,1c0.7,0,1.6-0.1,2.6-0.5
									l-1.3,4.7C-443.7-268.5-444.6-268.3-445.4-268.3"/>
							</g>
							<g id="SVGID_5_-link" transform="translate(2.000000, 0.000000)">
								<path id="SVGID_5_" class="st1" d="M-442-273.7L-442-273.7c-0.3,1-1.1,3.9-1.4,4.8 M-443.4-268.9c-0.7-0.5-1.5-0.9-2.7-1h0
									c-0.7,0-1.6,0.2-2.7,0.6l1.4-4.8c1-0.4,1.9-0.6,2.6-0.6h0c0.4,0,0.8,0,1.1,0.1c0.7,0.2,1.7,0.8,1.7,0.8"/>
							</g>
							<g id="SVGID_7_-link" transform="translate(8.000000, 1.000000)">
								<path id="SVGID_7_" class="st1" d="M-445.6-268.3c-1.2,0-2.2-0.4-3-0.9c0,0,0,0,0,0l1.4-4.9c0.4,0.3,1.4,1,3,1
									c0.8,0,1.7-0.2,2.7-0.6l-1.4,4.8c0,0,0,0,0,0v0C-443.9-268.5-444.8-268.3-445.6-268.3"/>
							</g>
						</g>
					</g>
					<g id="Shape_31_" transform="translate(0.000000, 570.000000)">
						<path class="st19" d="M-434-244.9c8.3,0,15-6.7,15-15c0-8.3-6.7-15-15-15c-8.3,0-15,6.7-15,15
							C-449-251.7-442.3-244.9-434-244.9"/>
						<g id="Group_2_" transform="translate(7.000000, 8.000000)">
							<path id="Shape_23_" class="st1" d="M-442.3-268.2l1.3-2.2c0.1-0.2,0-0.4-0.1-0.5l-0.9-0.5c-0.2-0.1-0.4,0-0.5,0.1l-1.4,2.4
								l-1.5,2.7l-1.3,2.2c-0.1,0.2,0,0.4,0.1,0.5l0.9,0.5c0.2,0.1,0.4,0,0.5-0.1l1.8-3.1L-442.3-268.2L-442.3-268.2z"/>
							<path id="Shape_24_" class="st1" d="M-433.8-268.9h-3c0.4,0.7,0.7,1.3,0.9,1.8c0.2,0.3,0.3,0.6,0.3,0.6
								c0,0.1,0.1,0.2,0.1,0.3h1.7c0.2,0,0.3-0.1,0.3-0.3v-2C-433.5-268.7-433.6-268.9-433.8-268.9L-433.8-268.9L-433.8-268.9z"/>
							<path id="Shape_25_" class="st1" d="M-441.2-268.9l-1.5,2.7h4.1c-0.3-0.6-0.7-1.4-1.2-2.7H-441.2L-441.2-268.9z"/>
							<path id="Shape_26_" class="st1" d="M-444.7-268.9h-3.5c-0.2,0-0.3,0.1-0.3,0.3v2c0,0.2,0.1,0.3,0.3,0.3h2L-444.7-268.9
								L-444.7-268.9z"/>
							<path id="Shape_27_" class="st1" d="M-446-262.6l-0.9-0.5c-0.2-0.1-0.3,0-0.3,0.2l-0.2,1.4c0,0.2,0.1,0.3,0.2,0.2l1.2-0.8
								C-445.8-262.3-445.9-262.5-446-262.6L-446-262.6L-446-262.6z"/>
							<path id="Shape_28_" class="st1" d="M-436.2-266.2C-436.2-266.2-436.2-266.2-436.2-266.2L-436.2-266.2
								c-0.1-0.2-0.3-0.6-0.6-1.1c0,0,0,0,0,0c0,0,0-0.1-0.1-0.1c0,0,0-0.1,0-0.1c0,0,0-0.1,0-0.1c0,0-0.1-0.1-0.1-0.1c0,0,0,0,0,0
								c0-0.1-0.1-0.1-0.1-0.2c0,0,0,0,0,0c-0.6-1.2-1.4-2.7-1.9-3.5c-0.9-1.4-2-3.6-2.3-3.5c-0.5,0.2,0.9,3.1,1.4,4.2
								c0.5,1.1,2.3,5.2,2.6,5.4c0.4,0.2,0.5,0.1,0.7,0C-436.4-265.4-435.9-265.8-436.2-266.2L-436.2-266.2L-436.2-266.2z"/>
							<path id="Shape_29_" class="st1" d="M-435.1-264l-0.4-0.8c-0.1-0.2-0.3-0.3-0.5-0.2l-0.5,0.3c-0.2,0.1-0.2,0.3-0.1,0.5
								l0.5,0.9c0.1,0.2,0.4,0.2,0.5,0.1l0.4-0.2C-435.1-263.6-435-263.8-435.1-264L-435.1-264L-435.1-264z"/>
							<path id="Shape_30_" class="st1" d="M-435.3-262.8c-0.1,0.1-0.5,0.4-0.1,1c0.4,0.5,1.3,0.6,1.4,0.9
								C-434-260.9-433.7-263.7-435.3-262.8L-435.3-262.8L-435.3-262.8z"/>
						</g>
					</g>
					<g id="Shape_35_" transform="translate(0.000000, 660.000000)">
						<path class="st20" d="M-434-244.9c8.3,0,15-6.7,15-15c0-8.3-6.7-15-15-15c-8.3,0-15,6.7-15,15
							C-449-251.7-442.3-244.9-434-244.9"/>
						<g id="Group_3_" transform="translate(7.000000, 7.000000)">
							<path id="Shape_32_" class="st1" d="M-435.7-262.3c-0.1,0-0.2,0-0.2,0.1c-0.1,0-0.2,0.1-0.2,0.1l-0.1,0l-0.1,0.1v0
								c-1.6,0.7-3.3,1-4.9,1.1c-0.1,0-0.1,0-0.2,0c-2.5,0-4.5-1.1-6.5-2.3c-0.1,0-0.1-0.1-0.2-0.1c-0.1,0-0.2,0-0.3,0.1
								c-0.1,0.1-0.1,0.2-0.1,0.3c0,0.1,0.1,0.2,0.2,0.3c1.9,1.6,4,3.2,6.8,3.2c0.1,0,0.1,0,0.2,0c1.8,0,3.8-0.6,5.4-1.6l0,0
								c0.2-0.1,0.4-0.3,0.6-0.4c0.1-0.1,0.2-0.2,0.2-0.4C-435.2-262.1-435.4-262.3-435.7-262.3L-435.7-262.3L-435.7-262.3z"/>
							<path id="Shape_33_" class="st1" d="M-433.5-263.2L-433.5-263.2c0-0.2,0-0.3-0.1-0.4l0,0l0,0c-0.1-0.1-0.1-0.1-0.2-0.1
								c-0.2-0.1-0.5-0.1-0.9-0.1c-0.3,0-0.5,0-0.8,0.1v0l-0.3,0.1l0,0l-0.2,0.1v0c-0.2,0.1-0.4,0.2-0.5,0.3
								c-0.1,0.1-0.2,0.2-0.2,0.3c0,0.1,0,0.2,0.1,0.2c0.1,0.1,0.2,0.1,0.2,0.1c0,0,0,0,0,0l0,0l0,0c0.1,0,0.3-0.1,0.6-0.1
								c0.2,0,0.4,0,0.6,0c0.1,0,0.3,0,0.3,0c0,0,0.1,0,0.1,0c0,0,0,0,0,0c0,0,0,0,0,0.1c0,0.2-0.1,0.5-0.2,0.7
								c-0.1,0.3-0.2,0.6-0.3,0.8c0,0,0,0.1,0,0.1c0,0.1,0,0.2,0.1,0.2c0.1,0.1,0.1,0.1,0.2,0.1h0c0.1,0,0.2,0,0.3-0.1
								C-433.8-261.5-433.5-262.5-433.5-263.2L-433.5-263.2L-433.5-263.2z"/>
							<path id="Shape_34_" class="st1" d="M-440.2-270.3c-0.4,0-0.9,0.1-1.4,0.1c-0.8,0.1-1.5,0.2-2.2,0.5
								c-1.2,0.5-2.1,1.6-2.1,3.1c0,2,1.3,2.9,2.8,2.9c0.5,0,1-0.1,1.4-0.2c0.6-0.2,1.2-0.6,1.8-1.2c0.4,0.5,0.5,0.7,1.1,1.3
								c0.2,0.1,0.3,0.1,0.5,0c0.4-0.3,1.1-0.9,1.5-1.3c0.2-0.1,0.1-0.3,0-0.5c-0.4-0.5-0.7-0.9-0.7-1.8v-3c0-1.3,0.1-2.4-0.8-3.3
								c-0.8-0.7-2-1-2.9-1h-0.4c-1.7,0.1-3.5,0.8-3.9,2.9c-0.1,0.3,0.1,0.4,0.3,0.4l1.9,0.2c0.2,0,0.3-0.2,0.3-0.4
								c0.2-0.7,0.8-1.1,1.4-1.2h0.1c0.4,0,0.8,0.2,1.1,0.5c0.3,0.4,0.2,0.9,0.2,1.4L-440.2-270.3L-440.2-270.3L-440.2-270.3z
								 M-440.6-266.3c-0.2,0.5-0.6,0.8-1.1,0.9c-0.1,0-0.2,0-0.3,0c-0.7,0-1.2-0.6-1.2-1.4c0-1.1,0.6-1.6,1.4-1.8
								c0.4-0.1,0.9-0.1,1.4-0.1v0.4C-440.2-267.6-440.2-267-440.6-266.3L-440.6-266.3L-440.6-266.3z"/>
						</g>
					</g>
					<g id="Shape_40_" transform="translate(0.000000, 750.000000)">
						<path class="st21" d="M-434-244.9c8.3,0,15-6.7,15-15c0-8.3-6.7-15-15-15c-8.3,0-15,6.7-15,15
							C-449-251.6-442.3-244.9-434-244.9"/>
						<g id="Group_4_" transform="translate(8.000000, 7.000000)">
							<path id="Shape_36_" class="st1" d="M-439.8-273.1l0.2-0.2l0.2-0.2l0.4-0.5c0-0.1,0-0.2,0-0.2c-0.1,0-0.2,0-0.2,0l-0.4,0.6
								l-0.2,0.2l-0.2,0.2c-0.5-0.2-1.1-0.3-1.7-0.3c-0.6,0-1.2,0.1-1.7,0.3l-0.2-0.2l-0.2-0.2l-0.4-0.6c0-0.1-0.1-0.1-0.2,0
								c-0.1,0-0.1,0.1,0,0.2l0.4,0.5l0.2,0.2l0.2,0.2c-1.2,0.6-2.1,1.7-2.1,2.9h8.1C-437.7-271.5-438.5-272.6-439.8-273.1
								L-439.8-273.1L-439.8-273.1z M-443.5-271.4c-0.2,0-0.4-0.2-0.4-0.4c0-0.2,0.2-0.4,0.4-0.4c0.2,0,0.4,0.2,0.4,0.4
								C-443.1-271.6-443.3-271.4-443.5-271.4L-443.5-271.4L-443.5-271.4z M-440-271.4c-0.2,0-0.4-0.2-0.4-0.4
								c0-0.2,0.2-0.4,0.4-0.4c0.2,0,0.4,0.2,0.4,0.4C-439.6-271.6-439.8-271.4-440-271.4L-440-271.4L-440-271.4z"/>
							<path id="Shape_37_" class="st1" d="M-445.8-269.6L-445.8-269.6l-0.1,0.7v0.6v5.1c0,0.5,0.4,0.9,0.9,0.9h0.7
								c0,0.1,0,0.2,0,0.2v0v0.3v1.5c0,0.5,0.4,0.9,0.9,0.9c0.5,0,0.9-0.4,0.9-0.9v-1.5v-0.3v0c0-0.1,0-0.2,0-0.2h1.6
								c0,0.1,0,0.2,0,0.2v0v0.3v1.5c0,0.5,0.4,0.9,0.9,0.9c0.5,0,0.9-0.4,0.9-0.9v-1.5v-0.3v0c0-0.1,0-0.2,0-0.2h0.7
								c0.5,0,0.9-0.4,0.9-0.9v-5.1v-0.6v-0.7h-0.1H-445.8L-445.8-269.6z"/>
							<path id="Shape_38_" class="st1" d="M-447.3-269.6c-0.5,0-0.9,0.4-0.9,0.9v3.7c0,0.5,0.4,0.9,0.9,0.9c0.5,0,0.9-0.4,0.9-0.9
								v-3.7C-446.4-269.3-446.8-269.6-447.3-269.6L-447.3-269.6L-447.3-269.6z"/>
							<path id="Shape_39_" class="st1" d="M-436.2-269.6c-0.5,0-0.9,0.4-0.9,0.9v3.7c0,0.5,0.4,0.9,0.9,0.9c0.5,0,0.9-0.4,0.9-0.9
								v-3.7C-435.4-269.3-435.8-269.6-436.2-269.6L-436.2-269.6L-436.2-269.6z"/>
						</g>
					</g>
					<g id="Shape_41_" transform="translate(0.000000, 840.000000)">
						<path class="st22" d="M-434-244.9c8.3,0,15-6.7,15-15c0-8.3-6.7-15-15-15c-8.3,0-15,6.7-15,15
							C-449-251.6-442.3-244.9-434-244.9"/>
						<path class="st1" d="M-429.4-267.4h-9.2c-1.6,0-2.9,1.3-2.9,2.9v3.1v6.1c0,1.6,1.3,2.9,2.9,2.9h9.2c1.6,0,2.9-1.3,2.9-2.9
							v-6.1v-3.1C-426.5-266.1-427.8-267.4-429.4-267.4L-429.4-267.4L-429.4-267.4z M-428.6-265.7l0.3,0v0.3v2.2l-2.5,0l0-2.5
							L-428.6-265.7L-428.6-265.7z M-436.1-261.5c0.5-0.7,1.3-1.1,2.1-1.1c0.9,0,1.7,0.4,2.1,1.1c0.3,0.4,0.5,1,0.5,1.5
							c0,1.5-1.2,2.6-2.6,2.6c-1.5,0-2.6-1.2-2.6-2.6C-436.6-260.5-436.5-261-436.1-261.5L-436.1-261.5L-436.1-261.5z M-428-255.3
							c0,0.8-0.6,1.4-1.4,1.4h-9.2c-0.8,0-1.4-0.6-1.4-1.4v-6.1h2.2c-0.2,0.5-0.3,1-0.3,1.5c0,2.3,1.8,4.1,4.1,4.1s4.1-1.8,4.1-4.1
							c0-0.5-0.1-1.1-0.3-1.5h2.2L-428-255.3L-428-255.3L-428-255.3z"/>
					</g>
					<g id="Shape_42_" transform="translate(0.000000, 930.000000)">
						<path class="st23" d="M-434-244.9c8.3,0,15-6.7,15-15c0-8.3-6.7-15-15-15c-8.3,0-15,6.7-15,15
							C-449-251.6-442.3-244.9-434-244.9"/>
						<path class="st1" d="M-426.5-258.1h-15v-3.6h1.7v1.9h11.7v-1.9h1.7V-258.1L-426.5-258.1z"/>
					</g>
					<g id="Shape_43_" transform="translate(0.000000, 1020.000000)">
						<path class="st24" d="M-434-244.9c8.3,0,15-6.7,15-15c0-8.3-6.7-15-15-15s-15,6.7-15,15C-449-251.6-442.3-244.9-434-244.9"/>
						<path class="st1" d="M-427.5-252.9l-6.2-14.3c-0.1-0.1-0.2-0.2-0.3-0.2l0,0c-0.1,0-0.3,0.1-0.3,0.2l-6.2,14.3
							c0,0.1,0,0.2,0,0.3c0.1,0.1,0.2,0.2,0.3,0.2h5.5v-3l-1.5-1l0.2-0.4l1.2,0.9v-2.4h1.4v1.6l1.3-0.6l0.2,0.4l-1.5,0.7v1.2
							l2.4-1.2l0.2,0.4l-2.6,1.3v2.3h5.5c0.1,0,0.2-0.1,0.3-0.2C-427.4-252.7-427.4-252.8-427.5-252.9L-427.5-252.9L-427.5-252.9z"
							/>
					</g>
					<g id="Shape_49_" transform="translate(0.000000, 60.000000)">
						<path class="st25" d="M-434-245c8.3,0,15-6.7,15-15c0-8.3-6.7-15-15-15c-8.3,0-15,6.7-15,15C-449-251.7-442.3-245-434-245"/>
						<g id="Group_5_" transform="translate(7.000000, 8.000000)">
							<path id="Shape_44_" class="st1" d="M-448.5-267.2l4.4,2.9l3.1-2.6l-4.4-2.7L-448.5-267.2L-448.5-267.2z"/>
							<path id="Shape_45_" class="st1" d="M-444.1-275l-4.4,2.9l3,2.4l4.4-2.7L-444.1-275L-444.1-275z"/>
							<path id="Shape_46_" class="st1" d="M-433.5-272.1l-4.4-2.9l-3.1,2.6l4.4,2.7L-433.5-272.1L-433.5-272.1z"/>
							<path id="Shape_47_" class="st1" d="M-441-266.9l3.1,2.6l4.4-2.9l-3.1-2.4L-441-266.9L-441-266.9z"/>
							<path id="Shape_48_" class="st1" d="M-441-266.3l-3.1,2.6l-1.3-0.9v1l4.4,2.7l4.4-2.7v-1l-1.3,0.9L-441-266.3L-441-266.3z"/>
						</g>
					</g>
					<g id="Shape_50_" transform="translate(0.000000, 150.000000)">
						<path class="st26" d="M-434-245c8.3,0,15-6.7,15-15c0-8.3-6.7-15-15-15c-8.3,0-15,6.7-15,15C-449-251.7-442.3-245-434-245"/>
						<path class="st1" d="M-428.9-260.7c-0.1,0-0.3-0.1-0.4-0.1c-0.9-0.3-1.5-0.5-1.5-1.2c0-0.6,0.5-1,1.1-1c0.5,0,0.8,0.2,1.2,0.6
							c0,0,0.1,0.1,0.1,0l0.9-0.5c0,0,0,0,0.1-0.1c0,0,0-0.1,0-0.1c-0.5-0.9-1.2-1.3-2.2-1.3c-1.5,0-2.5,0.9-2.5,2.3
							c0,1.4,0.9,2,2.7,2.6c1,0.3,1.5,0.5,1.5,1.2c0,0.8-0.7,1.4-1.7,1.4c-1,0-1.4-0.6-1.8-1.5c-0.7-1.5-1.4-3.3-1.4-3.3
							c-0.8-1.8-2.3-2.8-4.2-2.8c-2.5,0-4.5,2-4.5,4.5c0,2.5,2,4.5,4.5,4.5c1.4,0,2.6-0.6,3.5-1.7c0,0,0-0.1,0-0.1l-0.6-1.3
							c0,0-0.1-0.1-0.1-0.1c0,0-0.1,0-0.1,0.1c-0.5,1-1.6,1.7-2.7,1.7c-1.7,0-3.1-1.4-3.1-3.1c0-1.7,1.4-3.1,3.1-3.1
							c1.2,0,2.4,0.7,2.8,1.8l1.4,3.2l0.2,0.4c0.6,1.5,1.6,2.1,3,2.1c1.7,0,3.1-1.2,3.1-2.7C-426.6-259.7-427.5-260.2-428.9-260.7
							L-428.9-260.7L-428.9-260.7z"/>
					</g>
					<g id="Shape_51_" transform="translate(0.000000, 240.000000)">
						<path class="st27" d="M-434-245c8.3,0,15-6.7,15-15c0-8.3-6.7-15-15-15c-8.3,0-15,6.7-15,15S-442.3-245-434-245"/>
						<path class="st1" d="M-440.8-257.5C-440.7-257.5-440.7-257.6-440.8-257.5l0.2-1.4l-0.2-1.3c0,0,0-0.1-0.1-0.1
							c0,0-0.1,0-0.1,0.1l-0.1,1.3L-440.8-257.5C-440.8-257.6-440.8-257.5-440.8-257.5L-440.8-257.5L-440.8-257.5z M-441.3-258
							C-441.3-258-441.3-258.1-441.3-258l0.2-0.9l-0.1-0.8c0,0,0-0.1-0.1-0.1c0,0-0.1,0-0.1,0.1l-0.1,0.8L-441.3-258
							C-441.4-258.1-441.4-258-441.3-258L-441.3-258L-441.3-258z M-440.1-260.5C-440.1-260.6-440.1-260.6-440.1-260.5
							c-0.1-0.1-0.1,0-0.1,0l-0.1,1.6l0.1,1.5c0,0,0,0.1,0.1,0.1c0,0,0.1,0,0.1-0.1l0.2-1.5L-440.1-260.5L-440.1-260.5z
							 M-439.6-257.3C-439.5-257.3-439.5-257.3-439.6-257.3L-439.6-257.3l0.2-1.7l-0.1-1.6c0,0,0-0.1-0.1-0.1c0,0-0.1,0-0.1,0.1
							l-0.1,1.6L-439.6-257.3C-439.7-257.3-439.6-257.3-439.6-257.3L-439.6-257.3L-439.6-257.3z M-439-257.2c0.1,0,0.1,0,0.1-0.1
							l0,0l0.1-1.6l-0.1-1.5c0-0.1,0-0.1-0.1-0.1c-0.1,0-0.1,0-0.1,0.1l-0.1,1.5l0.1,1.6C-439.1-257.3-439-257.2-439-257.2
							L-439-257.2L-439-257.2z M-438.1-258.9l-0.1-2.5c0-0.1-0.1-0.1-0.1-0.1c-0.1,0-0.1,0-0.1,0.1l-0.1,2.5l0.1,1.6
							c0,0.1,0.1,0.1,0.1,0.1s0.1-0.1,0.1-0.1l0,0L-438.1-258.9L-438.1-258.9z M-437.8-257.2c0.1,0,0.1-0.1,0.1-0.1v0l0.1-1.6
							l-0.1-3c0-0.1-0.1-0.1-0.1-0.1c-0.1,0-0.1,0.1-0.1,0.1l-0.1,3l0.1,1.6C-437.9-257.3-437.8-257.2-437.8-257.2L-437.8-257.2
							L-437.8-257.2z M-437.2-262.4c-0.1,0-0.1,0.1-0.1,0.1l-0.1,3.3l0.1,1.6c0,0.1,0.1,0.1,0.1,0.1c0.1,0,0.1-0.1,0.1-0.1l0,0
							l0.1-1.6l-0.1-3.3C-437-262.3-437.1-262.4-437.2-262.4L-437.2-262.4L-437.2-262.4z M-436.5-257.2c0.1,0,0.1-0.1,0.2-0.2v0
							l0.1-1.6l-0.1-3.4c0-0.1-0.1-0.2-0.2-0.2s-0.1,0.1-0.2,0.2l-0.1,3.4l0.1,1.6C-436.7-257.3-436.6-257.2-436.5-257.2
							L-436.5-257.2L-436.5-257.2z M-435.9-257.2c0.1,0,0.2-0.1,0.2-0.2l0,0l0.1-1.6l-0.1-3.3c0-0.1-0.1-0.2-0.2-0.2
							c-0.1,0-0.2,0.1-0.2,0.2l-0.1,3.3l0.1,1.6C-436.1-257.3-436-257.2-435.9-257.2L-435.9-257.2L-435.9-257.2z M-435-258.9
							l-0.1-3.2c0-0.1-0.1-0.2-0.2-0.2c-0.1,0-0.2,0.1-0.2,0.2l-0.1,3.2l0.1,1.5c0,0.1,0.1,0.2,0.2,0.2c0.1,0,0.2-0.1,0.2-0.2v0
							L-435-258.9L-435-258.9z M-434.7-257.2c0.1,0,0.2-0.1,0.2-0.2v0l0.1-1.5l-0.1-3.8c0-0.1-0.1-0.2-0.2-0.2
							c-0.1,0-0.2,0.1-0.2,0.2l-0.1,3.8c0,0,0.1,1.5,0.1,1.5C-434.9-257.3-434.8-257.2-434.7-257.2L-434.7-257.2L-434.7-257.2z
							 M-434-263.3c-0.1,0-0.2,0.1-0.2,0.2l-0.1,4.2l0.1,1.5c0,0.1,0.1,0.2,0.2,0.2c0.1,0,0.2-0.1,0.2-0.2v0l0.1-1.5l-0.1-4.2
							C-433.8-263.2-433.9-263.3-434-263.3L-434-263.3L-434-263.3z M-433.5-257.2c0,0,5.1,0,5.1,0c1,0,1.8-0.8,1.8-1.8
							c0-1-0.8-1.8-1.8-1.8c-0.3,0-0.5,0.1-0.7,0.1c-0.1-1.7-1.5-3-3.2-3c-0.4,0-0.8,0.1-1.2,0.2c-0.1,0.1-0.2,0.1-0.2,0.2v5.9
							C-433.7-257.3-433.6-257.2-433.5-257.2L-433.5-257.2L-433.5-257.2z"/>
					</g>
					<g id="Shape_52_" transform="translate(0.000000, 330.000000)">
						<path class="st28" d="M-434-245c8.3,0,15-6.7,15-15c0-8.3-6.7-15-15-15c-8.3,0-15,6.7-15,15C-449-251.7-442.3-245-434-245"/>
						<path class="st1" d="M-441.5-260c0,3,1.7,5.5,4.2,6.8l-3.6-9.8C-441.3-262.1-441.5-261.1-441.5-260L-441.5-260L-441.5-260z
							 M-428.9-260.4c0-0.9-0.3-1.6-0.6-2.1c-0.4-0.6-0.7-1.1-0.7-1.8c0-0.7,0.5-1.3,1.3-1.3c0,0,0.1,0,0.1,0c-1.3-1.2-3.1-2-5.1-2
							c-2.6,0-4.9,1.3-6.3,3.4c0.2,0,0.3,0,0.5,0c0.8,0,2-0.1,2-0.1c0.4,0,0.5,0.6,0,0.6c0,0-0.4,0-0.9,0.1l2.7,8.1l1.6-4.9
							l-1.2-3.2c-0.4,0-0.8-0.1-0.8-0.1c-0.4,0-0.4-0.6,0-0.6c0,0,1.2,0.1,2,0.1c0.8,0,2-0.1,2-0.1c0.4,0,0.5,0.6,0,0.6
							c0,0-0.4,0-0.9,0.1l2.7,8.1l0.8-2.5C-429.1-258.9-428.9-259.7-428.9-260.4L-428.9-260.4L-428.9-260.4z M-433.9-259.3l-2.2,6.5
							c0.7,0.2,1.4,0.3,2.1,0.3c0.9,0,1.7-0.1,2.5-0.4c0,0,0-0.1-0.1-0.1L-433.9-259.3L-433.9-259.3z M-427.4-263.6
							c0,0.2,0.1,0.5,0.1,0.8c0,0.8-0.1,1.6-0.6,2.7l-2.3,6.6c2.2-1.3,3.7-3.7,3.7-6.5C-426.5-261.3-426.8-262.5-427.4-263.6
							L-427.4-263.6L-427.4-263.6z"/>
					</g>
					<g transform="translate(0.000000, 420.000000)">
						<path id="Shape_53_" class="st29" d="M-434-245c8.3,0,15-6.7,15-15s-6.7-15-15-15c-8.3,0-15,6.7-15,15S-442.3-245-434-245"/>
						<g transform="translate(7.000000, 10.000000)">
							<path id="Shape_54_" class="st1" d="M-446.2-274.2v2h-2.3v4.5h3.7v-6.5H-446.2L-446.2-274.2z M-446.2-268.9h-0.8v-2.1h0.8
								V-268.9L-446.2-268.9z"/>
							<path id="Shape_55_" class="st1" d="M-441.7-272.2v4.6h2.3v0.7h-2.3v1.3h3.1h0.6v-6.5H-441.7L-441.7-272.2z M-439.5-268.9
								h-0.8v-2.1h0.8V-268.9L-439.5-268.9z"/>
							<path id="Shape_56_" class="st1" d="M-437.2-272.2v4.6h2.3v0.7h-2.3v1.3h3.1h0.6v-6.5H-437.2L-437.2-272.2z M-435-268.9h-0.8
								v-2.1h0.8L-435-268.9L-435-268.9L-435-268.9z"/>
							<rect id="Rectangle-path" x="-444" y="-272.3" class="st1" width="1.5" height="4.6"/>
							<rect id="Rectangle-path_1_" x="-444" y="-274.2" class="st1" width="1.5" height="1.2"/>
						</g>
					</g>
					<g id="Shape_57_" transform="translate(0.000000, 510.000000)">
						<path class="st30" d="M-434-245c8.3,0,15-6.7,15-15c0-8.3-6.7-15-15-15c-8.3,0-15,6.7-15,15C-449-251.7-442.3-245-434-245"/>
						<path class="st1" d="M-434.4-257.4c0-1.3-1.1-2.4-2.5-2.5l-0.5,0c-0.5,0-0.9-0.5-0.9-0.9c0-0.5,0.4-0.9,0.9-0.9h3.5
							c0.5,0,0.9,0.4,0.9,0.9v3.2c0,1.4,1.2,2.6,2.6,2.6h0.4c1.4,0,2.6-1.1,2.6-2.6v-10.7c-0.1,0-0.1,0-0.2,0h-1.5v10.8
							c0,0.5-0.4,0.9-0.9,0.9h-0.4c-0.5,0-0.9-0.4-0.9-0.9v-3.2c0-1.4-1.1-2.6-2.6-2.6h-3.5c-1.4,0-2.6,1.1-2.6,2.5
							c0,1.4,1.1,2.5,2.5,2.6l0.5,0c0.5,0,0.9,0.4,0.9,0.8c0,0.4-0.5,0.8-1,0.8h-5.5v1.7h5.5C-435.6-255-434.4-256.1-434.4-257.4
							L-434.4-257.4L-434.4-257.4z"/>
					</g>
					<g id="Shape_62_" transform="translate(0.000000, 600.000000)">
						<path class="st31" d="M-434-244.9c8.3,0,15-6.7,15-15c0-8.3-6.7-15-15-15c-8.3,0-15,6.7-15,15
							C-449-251.7-442.3-244.9-434-244.9"/>
						<g id="Group_6_" transform="translate(5.000000, 11.000000)">
							<path id="Shape_58_" class="st1" d="M-438.3-271.8c-0.2-0.1-0.5-0.2-0.8-0.2c-0.5,0-0.9,0.1-1.2,0.5h0v-2.5h-1.5v2.1
								c0,0,0,0,0.1,0c0.6,0.2,0.9,0.5,1,0.9c0.2,0.4,0.2,0.8,0.2,1.3l0,0c0,0.1-0.1,0.2-0.2,0.2h-1.1v0v0.1h1.1h0
								c0.1,0,0.2,0.1,0.2,0.2c0,0.3-0.1,0.5-0.3,0.7c-0.2,0.2-0.4,0.4-0.8,0.5c0,0-0.1,0-0.1,0l0,0v0.8h1.4v-0.5h0
								c0.3,0.5,0.7,0.6,1.2,0.6c1.1,0,1.4-0.9,1.4-1.7l0,0h0c-0.5-0.1-0.8-0.4-1-0.8l0,0c0-0.1-0.1-0.2-0.1-0.2
								c-0.1-0.2-0.1-0.4-0.1-0.6l0,0v0c0-0.3,0.1-0.6,0.2-0.8C-438.6-271.5-438.5-271.7-438.3-271.8L-438.3-271.8L-438.3-271.8z
								 M-439.1-269.6c0,1.2-0.1,1.7-0.6,1.7c-0.5,0-0.6-0.5-0.6-1.7c0-0.9,0-1.6,0.6-1.6C-439.1-271.2-439.1-270.5-439.1-269.6
								L-439.1-269.6L-439.1-269.6z"/>
							<path id="Shape_59_" class="st1" d="M-440.7-269.2h-1.1h-0.8h0h-0.9c0,0.4-0.2,0.8-1.1,0.8c-1.2,0-1.2-0.7-1.2-1.3h4h1.1
								c0.1-0.9-0.1-1.6-1.1-2c-0.2-0.1-0.5-0.2-0.8-0.2c-0.5-0.1-1.2-0.2-2-0.2c-3.5,0-3.9,1-3.9,2.1c0,1.3,0.4,2.3,3.9,2.3
								c0.8,0,1.5-0.1,2-0.2c0.3-0.1,0.5-0.1,0.8-0.2c0,0,0,0,0,0C-441.1-268.4-440.8-268.8-440.7-269.2L-440.7-269.2L-440.7-269.2z
								 M-444.6-271.4c1.3,0,1.2,0.6,1.2,1h-2.4C-445.8-270.7-445.8-271.4-444.6-271.4L-444.6-271.4L-444.6-271.4z"/>
							<path id="Shape_60_" class="st1" d="M-438.2-271.7c-0.4,0.2-0.5,0.6-0.5,1.3c0,0.7,0.3,1.4,1,1.5c0.1,0,0.2,0,0.4,0
								c0.6,0,1.1-0.2,1.4-0.7h0l0.1,0.6h1.4c0-0.3-0.1-0.6-0.1-0.9v-0.9l-0.1-0.3l-1.5-2.7l-0.1-0.1c-0.1,0-0.3,0-0.5,0
								c-0.6,0-1,0.1-1.4,0.3c-0.4,0.2-0.6,0.6-0.6,1.2h1.5c0-0.4,0-0.7,0.5-0.7c0.5,0,0.6,0.3,0.6,0.7v0.4
								C-436.9-272.1-437.7-272.1-438.2-271.7L-438.2-271.7L-438.2-271.7z M-436.8-269.7c-0.5,0-0.6-0.4-0.6-0.8
								c0-0.8,0.6-0.8,1.3-0.8C-436-270.8-435.9-269.7-436.8-269.7L-436.8-269.7L-436.8-269.7z"/>
							<path id="Shape_61_" class="st1" d="M-431.5-274.5l-1.5,2.9l-1.4-2.9h-2.1l0.3,0.6l1.5,2.7l0.6,1.1v2.4h1.9v-2.4l2.6-4.4
								H-431.5L-431.5-274.5z"/>
						</g>
					</g>
					<g id="Shape_68_" transform="translate(0.000000, 690.000000)">
						<path class="st32" d="M-434-244.9c8.3,0,15-6.7,15-15c0-8.3-6.7-15-15-15c-8.3,0-15,6.7-15,15
							C-449-251.7-442.3-244.9-434-244.9"/>
						<g id="Group_7_" transform="translate(7.000000, 7.000000)">
							<path id="Shape_63_" class="st1" d="M-437.9-273.9c-1-0.4-2-0.7-3.1-0.7c-0.9,0-1.8,0.2-2.6,0.5c0.2,0.2,5.5,5,5.7,5.2
								V-273.9L-437.9-273.9z"/>
							<path id="Shape_64_" class="st1" d="M-444.9-260.7v-6.4c-0.2,0.2-3,2.7-3.1,2.8C-447.4-262.8-446.3-261.5-444.9-260.7
								L-444.9-260.7L-444.9-260.7z"/>
							<path id="Shape_65_" class="st1" d="M-448.5-267.1c0,0.6,0.1,1.3,0.3,1.9c0.2-0.2,6.5-5.9,6.6-6c-0.1-0.1-2.8-2.5-2.8-2.6
								C-446.9-272.5-448.5-269.9-448.5-267.1L-448.5-267.1L-448.5-267.1z"/>
							<path id="Shape_66_" class="st1" d="M-444.1-263.8v3.6c0.8,0.3,1.6,0.6,2.4,0.6h1.4c2.6-0.2,4.9-1.8,6.1-4.2H-444.1
								L-444.1-263.8z"/>
							<path id="Shape_67_" class="st1" d="M-437.1-273.5v8.9h3.2c0.3-0.8,0.4-1.6,0.4-2.5C-433.5-269.7-434.9-272.1-437.1-273.5
								L-437.1-273.5L-437.1-273.5z"/>
						</g>
					</g>
					<g id="Shape_69_" transform="translate(0.000000, 780.000000)">
						<path class="st33" d="M-434-244.9c8.3,0,15-6.7,15-15c0-8.3-6.7-15-15-15c-8.3,0-15,6.7-15,15S-442.3-244.9-434-244.9"/>
						<path class="st1" d="M-426.5-263.7c0-0.6-0.2-1.2-0.5-1.6c-0.8-1.3-2.3-2-3.7-2h-7.5l-3.3,14.8h4.4l1.1-4.9h3.2
							c0,0,0.1,0,0.1,0c1.8,0,3.4-0.7,4.5-1.9c0.7-0.8,1.3-1.8,1.6-3C-426.5-262.8-426.5-263.3-426.5-263.7L-426.5-263.7
							L-426.5-263.7z M-430.8-262.3c-0.1,0.5-0.4,0.9-0.8,1.3c-0.1,0.1-0.3,0.2-0.4,0.3c-0.4,0.2-0.9,0.4-1.3,0.4h-2.1l0.9-3.8
							l0.1-0.3h2.2c0.4,0,0.7,0.1,1,0.3C-430.8-263.7-430.6-263-430.8-262.3L-430.8-262.3L-430.8-262.3z"/>
					</g>
					<g id="Shape_70_" transform="translate(0.000000, 870.000000)">
						<path class="st34" d="M-434-244.9c8.3,0,15-6.7,15-15c0-8.3-6.7-15-15-15c-8.3,0-15,6.7-15,15
							C-449-251.6-442.3-244.9-434-244.9"/>
						<path class="st1" d="M-436.1-261.6c3.4-1,6.2,1,6.2,1l-2.3,0.6l-0.7-1.2c-0.6-0.1-1.4-0.2-2.1,0l1.6,3.2l6.9-2
							c0,0-2.5-3.9-9.9-2.6c0,0-0.1,0-0.1,0l-0.7-1.5l-2.1,0.2l0.9,1.8c-4.5,1.9-2.5,6.3-2.5,6.3l6.9-2L-436.1-261.6L-436.1-261.6z
							 M-439.2-258.1c0,0-0.7-1.5,1.3-2.7l1,2.1L-439.2-258.1L-439.2-258.1z"/>
					</g>
					<g id="Shape_71_" transform="translate(0.000000, 1050.000000)">
						<path class="st35" d="M-434-244.9c8.3,0,15-6.7,15-15c0-8.3-6.7-15-15-15s-15,6.7-15,15C-449-251.6-442.3-244.9-434-244.9"/>
						<path class="st1" d="M-426.8-267.4h-14.4c-0.2,0-0.3,0.1-0.3,0.3v14.4c0,0.2,0.1,0.3,0.3,0.3h14.4c0.2,0,0.3-0.1,0.3-0.3
							v-14.4C-426.5-267.3-426.6-267.4-426.8-267.4L-426.8-267.4L-426.8-267.4z M-434-253v-6.9h-6.9v-6.9h6.9v6.9h6.9v6.9H-434
							L-434-253z"/>
					</g>
					<g id="Shape_75_" transform="translate(0.000000, 960.000000)">
						<path class="st36" d="M-434-244.9c8.3,0,15-6.7,15-15c0-8.3-6.7-15-15-15c-8.3,0-15,6.7-15,15
							C-449-251.6-442.3-244.9-434-244.9"/>
						<g id="Group_8_" transform="translate(7.000000, 8.000000)">
							<path id="Shape_72_" class="st1" d="M-443.2-265.2L-443.2-265.2l-0.1,0.1l-2,3.6l-0.1,0.2h0.2h9.5h0.1l0-0.1l2-3.6l0.1-0.2
								h-0.2H-443.2L-443.2-265.2z"/>
							<path id="Shape_73_" class="st1" d="M-438-266.1L-438-266.1l0.1,0.1l4.1,0l0.2,0l-0.1-0.2l-4.7-8.2l0-0.1h-0.1l-4.1,0l-0.2,0
								l0.1,0.2L-438-266.1L-438-266.1z"/>
							<path id="Shape_74_" class="st1" d="M-441.4-270.2L-441.4-270.2l-2.1-3.6l-0.1-0.2l-0.1,0.2l-4.7,8.2l0,0.1l0,0.1l2.1,3.5
								l0.1,0.2l0.1-0.2L-441.4-270.2L-441.4-270.2L-441.4-270.2z"/>
						</g>
					</g>
				</g>
				<path id="Shape_76_" class="st1" d="M-434-245c8.3,0,15-6.7,15-15c0-8.3-6.7-15-15-15s-15,6.7-15,15
					C-449-251.7-442.3-245-434-245"/>
				<path id="Shape_77_" class="st1" d="M-434-155c8.3,0,15-6.7,15-15c0-8.3-6.7-15-15-15c-8.3,0-15,6.7-15,15
					C-449-161.7-442.3-155-434-155"/>
				<path id="Shape_78_" class="st1" d="M-434-65c8.3,0,15-6.7,15-15c0-8.3-6.7-15-15-15c-8.3,0-15,6.7-15,15
					C-449-71.7-442.3-65-434-65"/>
				<path id="Shape_79_" class="st1" d="M-434,115c8.3,0,15-6.7,15-15c0-8.3-6.7-15-15-15c-8.3,0-15,6.7-15,15
					C-449,108.3-442.3,115-434,115"/>
				<path id="Shape_80_" class="st1" d="M-434,25c8.3,0,15-6.7,15-15c0-8.3-6.7-15-15-15c-8.3,0-15,6.7-15,15
					C-449,18.3-442.3,25-434,25"/>
				<path id="Shape_81_" class="st1" d="M-434,385.1c8.3,0,15-6.7,15-15c0-8.3-6.7-15-15-15c-8.3,0-15,6.7-15,15
					C-449,378.3-442.3,385.1-434,385.1"/>
				<path id="Shape_82_" class="st1" d="M-434,295c8.3,0,15-6.7,15-15c0-8.3-6.7-15-15-15s-15,6.7-15,15
					C-449,288.3-442.3,295-434,295"/>
				<path id="Shape_83_" class="st1" d="M-434,475.1c8.3,0,15-6.7,15-15s-6.7-15-15-15s-15,6.7-15,15S-442.3,475.1-434,475.1"/>
				<path id="Shape_84_" class="st1" d="M-434,565.1c8.3,0,15-6.7,15-15s-6.7-15-15-15c-8.3,0-15,6.7-15,15S-442.3,565.1-434,565.1"
					/>
				<path id="Shape_85_" class="st1" d="M-434,205c8.3,0,15-6.7,15-15c0-8.3-6.7-15-15-15c-8.3,0-15,6.7-15,15
					C-449,198.3-442.3,205-434,205"/>
				<path id="Shape_86_" class="st1" d="M-434,655.1c8.3,0,15-6.7,15-15s-6.7-15-15-15c-8.3,0-15,6.7-15,15S-442.3,655.1-434,655.1"
					/>
				<path id="Shape_87_" class="st1" d="M-434,745.1c8.3,0,15-6.7,15-15s-6.7-15-15-15s-15,6.7-15,15S-442.3,745.1-434,745.1"/>
				<path id="Shape_88_" class="st1" d="M-434-215c8.3,0,15-6.7,15-15c0-8.3-6.7-15-15-15c-8.3,0-15,6.7-15,15
					C-449-221.7-442.3-215-434-215"/>
				<path id="Shape_89_" class="st1" d="M-434-125c8.3,0,15-6.7,15-15s-6.7-15-15-15c-8.3,0-15,6.7-15,15S-442.3-125-434-125"/>
				<path id="Shape_90_" class="st1" d="M-434-35c8.3,0,15-6.7,15-15c0-8.3-6.7-15-15-15c-8.3,0-15,6.7-15,15
					C-449-41.7-442.3-35-434-35"/>
				<path id="Shape_91_" class="st1" d="M-434,55c8.3,0,15-6.7,15-15c0-8.3-6.7-15-15-15c-8.3,0-15,6.7-15,15
					C-449,48.3-442.3,55-434,55"/>
				<path id="Shape_92_" class="st1" d="M-434,145c8.3,0,15-6.7,15-15c0-8.3-6.7-15-15-15c-8.3,0-15,6.7-15,15
					C-449,138.3-442.3,145-434,145"/>
				<path id="Shape_93_" class="st1" d="M-434,235c8.3,0,15-6.7,15-15c0-8.3-6.7-15-15-15c-8.3,0-15,6.7-15,15
					C-449,228.3-442.3,235-434,235"/>
				<path id="Shape_94_" class="st1" d="M-434,325.1c8.3,0,15-6.7,15-15s-6.7-15-15-15c-8.3,0-15,6.7-15,15S-442.3,325.1-434,325.1"
					/>
				<path id="Shape_95_" class="st1" d="M-434,415.1c8.3,0,15-6.7,15-15c0-8.3-6.7-15-15-15c-8.3,0-15,6.7-15,15
					C-449,408.3-442.3,415.1-434,415.1"/>
				<path id="Shape_96_" class="st1" d="M-434,505.1c8.3,0,15-6.7,15-15c0-8.3-6.7-15-15-15c-8.3,0-15,6.7-15,15
					C-449,498.4-442.3,505.1-434,505.1"/>
				<path id="Shape_97_" class="st1" d="M-434,595.1c8.3,0,15-6.7,15-15c0-8.3-6.7-15-15-15c-8.3,0-15,6.7-15,15
					C-449,588.4-442.3,595.1-434,595.1"/>
				<path id="Shape_98_" class="st1" d="M-434,685.1c8.3,0,15-6.7,15-15c0-8.3-6.7-15-15-15c-8.3,0-15,6.7-15,15
					C-449,678.4-442.3,685.1-434,685.1"/>
				<path id="Shape_99_" class="st1" d="M-434,775.1c8.3,0,15-6.7,15-15c0-8.3-6.7-15-15-15s-15,6.7-15,15
					C-449,768.4-442.3,775.1-434,775.1"/>
				<path id="Shape_100_" class="st1" d="M-434-185c8.3,0,15-6.7,15-15c0-8.3-6.7-15-15-15c-8.3,0-15,6.7-15,15
					C-449-191.7-442.3-185-434-185"/>
				<path id="Shape_101_" class="st1" d="M-434-95c8.3,0,15-6.7,15-15c0-8.3-6.7-15-15-15c-8.3,0-15,6.7-15,15
					C-449-101.7-442.3-95-434-95"/>
				<path id="Shape_102_" class="st1" d="M-434-5c8.3,0,15-6.7,15-15c0-8.3-6.7-15-15-15c-8.3,0-15,6.7-15,15S-442.3-5-434-5"/>
				<path id="Shape_103_" class="st1" d="M-434,85c8.3,0,15-6.7,15-15s-6.7-15-15-15c-8.3,0-15,6.7-15,15S-442.3,85-434,85"/>
				<path id="Shape_104_" class="st1" d="M-434,175c8.3,0,15-6.7,15-15s-6.7-15-15-15c-8.3,0-15,6.7-15,15S-442.3,175-434,175"/>
				<path id="Shape_105_" class="st1" d="M-434,265c8.3,0,15-6.7,15-15c0-8.3-6.7-15-15-15c-8.3,0-15,6.7-15,15
					C-449,258.3-442.3,265-434,265"/>
				<path id="Shape_106_" class="st1" d="M-434,355.1c8.3,0,15-6.7,15-15c0-8.3-6.7-15-15-15c-8.3,0-15,6.7-15,15
					C-449,348.3-442.3,355.1-434,355.1"/>
				<path id="Shape_107_" class="st1" d="M-434,445.1c8.3,0,15-6.7,15-15c0-8.3-6.7-15-15-15c-8.3,0-15,6.7-15,15
					C-449,438.3-442.3,445.1-434,445.1"/>
				<path id="Shape_108_" class="st1" d="M-434,535.1c8.3,0,15-6.7,15-15c0-8.3-6.7-15-15-15c-8.3,0-15,6.7-15,15
					C-449,528.4-442.3,535.1-434,535.1"/>
				<path id="Shape_109_" class="st1" d="M-434,625.1c8.3,0,15-6.7,15-15c0-8.3-6.7-15-15-15c-8.3,0-15,6.7-15,15
					C-449,618.4-442.3,625.1-434,625.1"/>
				<path id="Shape_110_" class="st1" d="M-434,805.1c8.3,0,15-6.7,15-15c0-8.3-6.7-15-15-15s-15,6.7-15,15
					C-449,798.4-442.3,805.1-434,805.1"/>
				<path id="Shape_111_" class="st1" d="M-434,715.1c8.3,0,15-6.7,15-15c0-8.3-6.7-15-15-15c-8.3,0-15,6.7-15,15
					C-449,708.4-442.3,715.1-434,715.1"/>
				<g id="Group_10_" transform="translate(5.000000, 9.000000)">
					<path id="Shape_112_" class="st37" d="M-431.5-272.9c-0.6,0.2-1.1,0.4-1.8,0.5c0.6-0.4,1.1-1,1.4-1.7c-0.6,0.4-1.3,0.6-2,0.7
						c-0.6-0.6-1.4-1-2.2-1c-1.7,0-3.1,1.4-3.1,3.1c0,0.2,0,0.5,0.1,0.7c-2.6-0.1-4.8-1.4-6.4-3.2c-0.3,0.5-0.4,1-0.4,1.6
						c0,1.1,0.5,2,1.4,2.6c-0.5,0-1-0.2-1.4-0.4v0c0,1.5,1.1,2.7,2.5,3c-0.3,0.1-0.5,0.1-0.8,0.1c-0.2,0-0.4,0-0.6-0.1
						c0.4,1.2,1.5,2.1,2.9,2.1c-1.1,0.8-2.4,1.3-3.8,1.3c-0.2,0-0.5,0-0.7,0c1.4,0.9,3,1.4,4.7,1.4c5.7,0,8.8-4.7,8.8-8.8
						c0-0.1,0-0.3,0-0.4C-432.4-271.8-431.9-272.3-431.5-272.9"/>
					<path id="Shape_113_" class="st37" d="M-439-186.5c-4.1,0-7.5,3.4-7.5,7.5c0,3.1,1.8,5.7,4.5,6.9c0-0.5,0-1.2,0.1-1.7
						c0.1-0.6,1-4.1,1-4.1s-0.2-0.5-0.2-1.2c0-1.1,0.6-1.9,1.4-1.9c0.7,0,1,0.5,1,1.1c0,0.7-0.4,1.7-0.7,2.7
						c-0.2,0.8,0.4,1.4,1.2,1.4c1.4,0,2.4-1.8,2.4-4c0-1.6-1.1-2.9-3.1-2.9c-2.3,0-3.7,1.7-3.7,3.6c0,0.7,0.2,1.1,0.5,1.5
						c0.1,0.2,0.2,0.2,0.1,0.4c0,0.1-0.1,0.5-0.2,0.6c-0.1,0.2-0.2,0.3-0.4,0.2c-1-0.4-1.5-1.6-1.5-2.9c0-2.1,1.8-4.7,5.4-4.7
						c2.9,0,4.8,2.1,4.8,4.3c0,2.9-1.6,5.1-4,5.1c-0.8,0-1.6-0.4-1.8-0.9c0,0-0.4,1.7-0.5,2.1c-0.2,0.6-0.5,1.2-0.8,1.6
						c0.7,0.2,1.4,0.3,2.1,0.3c4.1,0,7.5-3.4,7.5-7.5S-434.9-186.5-439-186.5"/>
					<path id="Shape_114_" class="st37" d="M-442.6-91.5h1.6V-93c0-0.7,0-1.7,0.5-2.3c0.5-0.7,1.2-1.1,2.4-1.1c2,0,2.8,0.3,2.8,0.3
						l-0.4,2.3c0,0-0.6-0.2-1.2-0.2c-0.6,0-1.1,0.2-1.1,0.8v1.8h2.5l-0.2,2.2h-2.3v7.8h-2.9v-7.8h-1.6L-442.6-91.5L-442.6-91.5
						L-442.6-91.5z"/>
					<path id="Shape_115_" class="st37" d="M-436.1,91l-4.9,2.9v-5.8L-436.1,91L-436.1,91z M-431.5,93.7v-5.4c0,0,0-2.6-2.6-2.6
						h-9.8c0,0-2.6,0-2.6,2.6v5.4c0,0,0,2.6,2.6,2.6h9.8C-434.1,96.3-431.5,96.3-431.5,93.7L-431.5,93.7L-431.5,93.7z"/>
					<path id="Shape_116_" class="st37" d="M-441.5,7.7c-1.8,0-3.1-1.1-3.1-2.5c0-1.3,1.6-2.4,3.4-2.4c0.4,0,0.8,0.1,1.2,0.2
						c1,0.7,1.7,1.1,1.9,1.8c0,0.2,0.1,0.3,0.1,0.5C-438.1,6.7-439,7.7-441.5,7.7L-441.5,7.7L-441.5,7.7z M-441-0.2
						c-1.2,0-2.3-1.3-2.5-2.9c-0.2-1.6,0.6-2.8,1.8-2.7c1.2,0,2.3,1.3,2.5,2.9C-439-1.4-439.8-0.2-441-0.2L-441-0.2L-441-0.2z
						 M-438.5,2.1c-0.4-0.3-1.2-1-1.2-1.4c0-0.5,0.1-0.7,0.9-1.3c0.8-0.6,1.3-1.4,1.3-2.4c0-1.2-0.5-2.3-1.5-2.7h1.5l1-0.8h-4.6
						c-2.1,0-4,1.6-4,3.4c0,1.9,1.4,3.4,3.5,3.4c0.1,0,0.3,0,0.4,0c-0.1,0.3-0.2,0.6-0.2,0.9c0,0.5,0.3,0.9,0.6,1.3
						c-0.3,0-0.5,0-0.8,0c-2.6,0-4.6,1.6-4.6,3.3c0,1.7,2.2,2.7,4.8,2.7c2.9,0,4.6-1.7,4.6-3.3C-436.9,3.8-437.3,3-438.5,2.1
						L-438.5,2.1L-438.5,2.1z M-431.8-0.1h-1.8v-1.8h-1.5v1.8h-1.8v1.5h1.8v1.8h1.5V1.4h1.8V-0.1L-431.8-0.1z"/>
					<path id="Shape_117_" class="st37" d="M-432.6,364.6c-0.4,0.8-0.5,1.1-1,1.8c-0.6,1-1.5,2.2-2.6,2.2c-1,0-1.2-0.6-2.6-0.6
						c-1.3,0-1.6,0.6-2.6,0.6c-1.1,0-2-1.1-2.6-2.1c-1.8-2.7-2-5.9-0.9-7.5c0.8-1.2,2-1.9,3.2-1.9c1.2,0,1.9,0.6,2.9,0.6
						c0.9,0,1.5-0.6,2.9-0.6c1,0,2.1,0.6,2.9,1.5C-435.5,360-435.1,363.6-432.6,364.6L-432.6,364.6L-432.6,364.6z M-436.9,356
						c0.5-0.6,0.9-1.5,0.7-2.4c-0.8,0.1-1.7,0.6-2.3,1.2c-0.5,0.6-0.9,1.5-0.8,2.4C-438.3,357.2-437.4,356.7-436.9,356L-436.9,356
						L-436.9,356z"/>
					<path id="Shape_118_" class="st37" d="M-438.8,263.5v3.8h3.6v2.4h-3.6v3.8c0,0.9,0,1.4,0.1,1.7c0.1,0.2,0.3,0.4,0.5,0.6
						c0.3,0.2,0.7,0.3,1.1,0.3c0.8,0,1.5-0.2,2.3-0.7v2.4c-0.6,0.3-1.2,0.5-1.7,0.6c-0.5,0.1-1.1,0.2-1.7,0.2
						c-0.7,0-1.3-0.1-1.8-0.3c-0.5-0.2-1-0.4-1.3-0.7c-0.4-0.3-0.6-0.7-0.8-1c-0.1-0.4-0.2-0.9-0.2-1.6v-5.3h-1.7v-2.1
						c0.6-0.2,1.1-0.5,1.5-0.8c0.4-0.4,0.8-0.8,1-1.3c0.3-0.5,0.4-1.1,0.5-1.9L-438.8,263.5L-438.8,263.5L-438.8,263.5z"/>
					<path id="Shape_119_" class="st37" d="M-439.6,447.3c0.3,0.4,0.4,0.9,0.4,1.4c0,0.6-0.1,1-0.4,1.4c-0.2,0.2-0.4,0.4-0.7,0.5
						c0.5,0.2,0.8,0.4,1.1,0.8s0.4,0.8,0.4,1.4c0,0.5-0.1,1-0.4,1.5c-0.2,0.3-0.4,0.5-0.7,0.7c-0.3,0.2-0.6,0.4-1,0.5
						c-0.4,0.1-0.8,0.1-1.3,0.1h-4.2v-9.3h4.5C-440.9,446.3-440.1,446.7-439.6,447.3L-439.6,447.3L-439.6,447.3z M-444.7,447.9v2
						h2.3c0.4,0,0.7-0.1,1-0.2c0.2-0.2,0.4-0.4,0.4-0.8c0-0.4-0.2-0.7-0.5-0.9c-0.3-0.1-0.7-0.1-1.1-0.1L-444.7,447.9L-444.7,447.9
						L-444.7,447.9z M-444.7,451.5v2.5h2.2c0.4,0,0.7-0.1,0.9-0.2c0.4-0.2,0.6-0.6,0.6-1.2c0-0.5-0.2-0.8-0.6-1
						c-0.2-0.1-0.5-0.2-0.9-0.2L-444.7,451.5L-444.7,451.5L-444.7,451.5z M-433.3,448.9c0.5,0.2,0.9,0.6,1.2,1
						c0.3,0.4,0.5,0.9,0.5,1.4c0,0.3,0.1,0.8,0.1,1.4h-5c0,0.7,0.3,1.2,0.7,1.4c0.3,0.2,0.6,0.3,1,0.3c0.4,0,0.7-0.1,1-0.3
						c0.1-0.1,0.3-0.3,0.4-0.5h1.8c0,0.4-0.3,0.8-0.7,1.2c-0.6,0.7-1.5,1-2.6,1c-0.9,0-1.7-0.3-2.4-0.8c-0.7-0.6-1-1.5-1-2.7
						c0-1.2,0.3-2.1,0.9-2.7c0.6-0.6,1.4-1,2.5-1C-434.3,448.5-433.8,448.7-433.3,448.9L-433.3,448.9L-433.3,448.9z M-436,450.4
						c-0.3,0.3-0.4,0.6-0.5,1.1h3.1c0-0.5-0.2-0.8-0.5-1.1c-0.3-0.2-0.6-0.4-1.1-0.4C-435.4,450-435.7,450.2-436,450.4L-436,450.4
						L-436,450.4z M-432.9,446.7h-4v1.2h4V446.7L-432.9,446.7z"/>
					<path id="Shape_120_" class="st37" d="M-431.5,537.9c-0.1,1.5-1.1,3.5-3.1,6c-2,2.6-3.8,4-5.2,4c-0.9,0-1.6-0.8-2.2-2.4
						c-0.4-1.5-0.8-3-1.2-4.4c-0.4-1.6-0.9-2.4-1.4-2.4c-0.1,0-0.5,0.2-1.2,0.7l-0.7-0.9c0.7-0.6,1.5-1.3,2.2-1.9
						c1-0.9,1.7-1.3,2.2-1.3c1.2-0.1,1.9,0.7,2.2,2.4c0.3,1.8,0.5,3,0.6,3.4c0.3,1.5,0.7,2.3,1.1,2.3c0.3,0,0.8-0.5,1.4-1.5
						c0.6-1,1-1.7,1-2.3c0.1-0.9-0.2-1.3-1-1.3c-0.4,0-0.7,0.1-1.1,0.2c0.7-2.4,2.2-3.6,4.2-3.5C-432.1,535-431.4,536-431.5,537.9
						L-431.5,537.9L-431.5,537.9z"/>
					<path id="Shape_121_" class="st37" d="M-435.9,176v2.9c-0.1,0.1-0.2,0.1-0.2,0.2c-0.1,0.1-0.2,0.1-0.2,0.1
						c-0.1,0-0.1,0-0.2-0.1c0,0-0.1-0.1-0.1-0.2V176h-0.8v3.1c0,0.2,0,0.4,0.1,0.5c0.1,0.1,0.2,0.2,0.4,0.2c0.2,0,0.3,0,0.5-0.1
						c0.1-0.1,0.3-0.2,0.4-0.4v0.4h0.8V176L-435.9,176L-435.9,176L-435.9,176z M-438.3,176.2c-0.2-0.2-0.5-0.3-0.8-0.3
						c-0.4,0-0.6,0.1-0.8,0.3c-0.2,0.2-0.3,0.4-0.3,0.7v2c0,0.3,0.1,0.6,0.3,0.8c0.2,0.2,0.5,0.3,0.8,0.3c0.3,0,0.6-0.1,0.8-0.3
						c0.2-0.2,0.3-0.4,0.3-0.8v-1.9C-438,176.6-438.1,176.3-438.3,176.2L-438.3,176.2L-438.3,176.2z M-438.8,178.9
						c0,0.1,0,0.2-0.1,0.2c-0.1,0.1-0.1,0.1-0.2,0.1c-0.1,0-0.2,0-0.2-0.1c-0.1-0.1-0.1-0.1-0.1-0.2v-2.1c0-0.1,0-0.1,0.1-0.2
						c0.1-0.1,0.1-0.1,0.2-0.1c0.1,0,0.2,0,0.2,0.1c0.1,0,0.1,0.1,0.1,0.2V178.9L-438.8,178.9z M-441.2,174.6l-0.5,2h-0.1l-0.6-2
						h-0.9l1,3.1v2h0.9v-2.1l1-3L-441.2,174.6L-441.2,174.6L-441.2,174.6z M-435.1,183.6c0,0.1,0.1,0.2,0.1,0.3v0.3h-0.6v-0.3
						c0-0.1,0-0.2,0.1-0.3c0-0.1,0.1-0.1,0.2-0.1C-435.3,183.5-435.2,183.6-435.1,183.6L-435.1,183.6L-435.1,183.6z M-437.5,183.6
						c0-0.1-0.1-0.1-0.2-0.1c0,0-0.1,0-0.1,0c0,0-0.1,0.1-0.1,0.1v2.1c0.1,0.1,0.1,0.1,0.2,0.1c0.1,0,0.1,0,0.2,0
						c0.1,0,0.2,0,0.2-0.1c0,0,0.1-0.1,0.1-0.2v-1.8C-437.4,183.8-437.5,183.7-437.5,183.6L-437.5,183.6L-437.5,183.6z
						 M-437.5,183.6c0-0.1-0.1-0.1-0.2-0.1c0,0-0.1,0-0.1,0c0,0-0.1,0.1-0.1,0.1v2.1c0.1,0.1,0.1,0.1,0.2,0.1c0.1,0,0.1,0,0.2,0
						c0.1,0,0.2,0,0.2-0.1c0,0,0.1-0.1,0.1-0.2v-1.8C-437.4,183.8-437.5,183.7-437.5,183.6L-437.5,183.6L-437.5,183.6z M-433.6,181
						h-10.7c-1.2,0-2.1,1-2.1,2.1v2.2c0,1.2,1,2.1,2.1,2.1h10.7c1.2,0,2.1-1,2.1-2.1v-2.2C-431.5,181.9-432.5,181-433.6,181
						L-433.6,181L-433.6,181z M-441.5,182.5h-0.8v4h-0.8v-4h-0.8v-0.7h2.4L-441.5,182.5L-441.5,182.5L-441.5,182.5z M-439.2,186.4
						h-0.7v-0.4c-0.1,0.1-0.3,0.2-0.4,0.3c-0.1,0.1-0.3,0.1-0.4,0.1c-0.2,0-0.3-0.1-0.4-0.2c-0.1-0.1-0.1-0.2-0.1-0.5V183h0.7v2.6
						c0,0.1,0,0.1,0,0.2c0,0,0.1,0.1,0.1,0.1c0.1,0,0.1,0,0.2-0.1c0.1,0,0.1-0.1,0.2-0.2V183h0.7L-439.2,186.4L-439.2,186.4
						L-439.2,186.4z M-436.7,185.7c0,0.2-0.1,0.4-0.2,0.6c-0.1,0.1-0.3,0.2-0.5,0.2c-0.1,0-0.2,0-0.4-0.1c-0.1-0.1-0.2-0.1-0.3-0.2
						v0.3h-0.7v-4.6h0.7v1.5c0.1-0.1,0.2-0.2,0.3-0.2c0.1-0.1,0.2-0.1,0.3-0.1c0.2,0,0.4,0.1,0.5,0.2c0.1,0.1,0.2,0.4,0.2,0.6V185.7
						L-436.7,185.7z M-434.4,184.8h-1.3v0.6c0,0.2,0,0.3,0.1,0.4c0,0.1,0.1,0.1,0.2,0.1c0.1,0,0.2,0,0.2-0.1c0-0.1,0.1-0.2,0.1-0.4
						v-0.2h0.7v0.2c0,0.4-0.1,0.6-0.3,0.8c-0.2,0.2-0.4,0.3-0.8,0.3c-0.3,0-0.6-0.1-0.7-0.3c-0.2-0.2-0.3-0.4-0.3-0.8v-1.5
						c0-0.3,0.1-0.5,0.3-0.7c0.2-0.2,0.4-0.3,0.7-0.3c0.3,0,0.6,0.1,0.7,0.3c0.2,0.2,0.3,0.4,0.3,0.7L-434.4,184.8L-434.4,184.8
						L-434.4,184.8z M-437.7,183.5c0,0-0.1,0-0.1,0c0,0-0.1,0.1-0.1,0.1v2.1c0.1,0.1,0.1,0.1,0.2,0.1c0.1,0,0.1,0,0.2,0
						c0.1,0,0.2,0,0.2-0.1c0,0,0.1-0.1,0.1-0.2v-1.8c0-0.1,0-0.2-0.1-0.3C-437.6,183.5-437.6,183.5-437.7,183.5L-437.7,183.5
						L-437.7,183.5z M-437.5,183.6c0-0.1-0.1-0.1-0.2-0.1c0,0-0.1,0-0.1,0c0,0-0.1,0.1-0.1,0.1v2.1c0.1,0.1,0.1,0.1,0.2,0.1
						c0.1,0,0.1,0,0.2,0c0.1,0,0.2,0,0.2-0.1c0,0,0.1-0.1,0.1-0.2v-1.8C-437.4,183.8-437.5,183.7-437.5,183.6L-437.5,183.6
						L-437.5,183.6z M-437.5,183.6c0-0.1-0.1-0.1-0.2-0.1c0,0-0.1,0-0.1,0c0,0-0.1,0.1-0.1,0.1v2.1c0.1,0.1,0.1,0.1,0.2,0.1
						c0.1,0,0.1,0,0.2,0c0.1,0,0.2,0,0.2-0.1c0,0,0.1-0.1,0.1-0.2v-1.8C-437.4,183.8-437.5,183.7-437.5,183.6L-437.5,183.6
						L-437.5,183.6z"/>
					<g id="Shape_122_" transform="translate(2.000000, 902.000000)">
						<path class="st37" d="M-433.5-270.9c0,1.8-1.5,3.3-3.3,3.3c-1.8,0-3.3-1.5-3.3-3.3c0-1.8,1.5-3.3,3.3-3.3
							C-435-274.2-433.5-272.7-433.5-270.9L-433.5-270.9L-433.5-270.9z"/>
						<path class="st37" d="M-441.9-270.9c0,1.8-1.5,3.3-3.3,3.3c-1.8,0-3.3-1.5-3.3-3.3c0-1.8,1.5-3.3,3.3-3.3
							C-443.4-274.2-441.9-272.7-441.9-270.9L-441.9-270.9L-441.9-270.9z"/>
					</g>
					<path id="RSS_1_" class="st37" d="M-443.1,725.2c0.4,0.4,0.6,0.9,0.6,1.4c0,0.5-0.2,1-0.6,1.4l0,0c-0.4,0.4-0.9,0.6-1.4,0.6
						s-1-0.2-1.4-0.6c-0.4-0.4-0.6-0.9-0.6-1.4s0.2-1,0.6-1.4l0,0c0.4-0.4,0.9-0.6,1.4-0.6S-443.5,724.8-443.1,725.2L-443.1,725.2
						L-443.1,725.2z M-445.9,728L-445.9,728L-445.9,728L-445.9,728z M-446.5,718.7v2.9c1.9,0,3.6,0.7,5,2.1c1.3,1.3,2.1,3.1,2.1,5
						l0,0v0h2.9c0-2.7-1.1-5.2-2.9-7C-441.3,719.8-443.8,718.7-446.5,718.7L-446.5,718.7L-446.5,718.7z M-446.5,713.6v2.9
						c6.7,0,12.1,5.4,12.1,12.1h2.9c0-4.1-1.7-7.9-4.4-10.6C-438.6,715.3-442.4,713.6-446.5,713.6L-446.5,713.6L-446.5,713.6z"/>
					<path id="Shape_123_" class="st37" d="M-443.2-232.7h-2.9v-9.4h2.9V-232.7L-443.2-232.7z M-444.7-243.2L-444.7-243.2
						c-1.1,0-1.8-0.7-1.8-1.6c0-0.9,0.7-1.6,1.8-1.6c1.1,0,1.7,0.7,1.8,1.6C-443-244-443.6-243.2-444.7-243.2L-444.7-243.2
						L-444.7-243.2z M-431.5-232.7h-3.3v-4.8c0-1.3-0.5-2.1-1.7-2.1c-0.9,0-1.4,0.6-1.6,1.1c-0.1,0.2-0.1,0.5-0.1,0.8v5.1h-3.3
						c0,0,0-8.6,0-9.4h3.3v1.5c0.2-0.6,1.2-1.6,2.9-1.6c2.1,0,3.7,1.3,3.7,4.2V-232.7L-431.5-232.7z"/>
					<path id="Shape_124_" class="st37" d="M-431.6-150.3l-0.1-0.3l-0.2-0.2c-0.3-0.2-1.7,0-2-0.3c-0.3-0.2-0.3-0.7-0.4-1.3
						c-0.1-1.2-0.2-1.2-0.4-1.6c-0.7-1.4-2.4-2.4-3.7-2.6h-3.3c-2.6,0-4.7,2.1-4.7,4.7v5.5c0,2.6,2.1,4.7,4.7,4.7h5.4
						c2.6,0,4.7-2.1,4.7-4.7l0-3.8L-431.6-150.3L-431.6-150.3z M-441.7-152.6h2.6c0.5,0,0.9,0.4,0.9,0.9c0,0.5-0.4,0.9-0.9,0.9h-2.6
						c-0.5,0-0.9-0.4-0.9-0.9C-442.6-152.2-442.2-152.6-441.7-152.6L-441.7-152.6L-441.7-152.6z M-436.3-145.4h-5.3
						c-0.5,0-0.9-0.4-0.9-0.9c0-0.5,0.4-0.9,0.9-0.9h5.3c0.5,0,0.9,0.4,0.9,0.9C-435.4-145.8-435.8-145.4-436.3-145.4L-436.3-145.4
						L-436.3-145.4z"/>
					<path id="Shape_125_" class="st37" d="M-431.7-60.5c-0.1-0.5-0.2-1-0.4-1.4c-0.2-0.4-0.4-0.9-0.7-1.3c-0.3-0.4-0.6-0.8-0.9-1.1
						c-0.3-0.3-0.7-0.6-1.1-0.9c-0.4-0.3-0.8-0.5-1.3-0.7c-0.5-0.2-0.9-0.3-1.4-0.4c-0.5-0.1-1-0.2-1.5-0.2s-1,0.1-1.5,0.2
						c-0.5,0.1-1,0.2-1.4,0.4c-0.4,0.2-0.9,0.4-1.3,0.7c-0.4,0.3-0.8,0.6-1.1,0.9c-0.3,0.3-0.6,0.7-0.9,1.1
						c-0.3,0.4-0.5,0.8-0.7,1.3c-0.2,0.5-0.3,0.9-0.4,1.4c-0.1,0.5-0.2,1-0.2,1.5c0,0.5,0.1,1,0.2,1.5c0.1,0.5,0.2,1,0.4,1.4
						c0.2,0.4,0.4,0.9,0.7,1.3c0.3,0.4,0.6,0.8,0.9,1.1c0.3,0.3,0.7,0.6,1.1,0.9c0.4,0.3,0.8,0.5,1.3,0.7c0.5,0.2,0.9,0.3,1.4,0.4
						c0.5,0.1,1,0.2,1.5,0.2c0.5,0,1-0.1,1.5-0.2c0.5-0.1,1-0.2,1.4-0.4c0.4-0.2,0.9-0.4,1.3-0.7c0.4-0.3,0.8-0.6,1.1-0.9
						c0.3-0.3,0.6-0.7,0.9-1.1c0.3-0.4,0.5-0.8,0.7-1.3c0.2-0.5,0.3-0.9,0.4-1.4c0.1-0.5,0.2-1,0.2-1.5
						C-431.5-59.5-431.6-60-431.7-60.5L-431.7-60.5L-431.7-60.5z M-432.6-59c-0.1,0-2.3-0.5-4.5-0.2c0-0.1-0.1-0.2-0.1-0.3
						c-0.1-0.3-0.3-0.6-0.4-0.9c2.5-1,3.6-2.5,3.6-2.5C-433.2-62-432.6-60.6-432.6-59L-432.6-59L-432.6-59z M-434.8-63.8
						c0,0-0.9,1.4-3.3,2.3c-1.1-2-2.3-3.6-2.4-3.7c0.5-0.1,1-0.2,1.5-0.2C-437.4-65.4-435.9-64.8-434.8-63.8L-434.8-63.8
						L-434.8-63.8z M-440.5-65.2L-440.5-65.2C-440.5-65.2-440.5-65.2-440.5-65.2C-440.5-65.2-440.5-65.2-440.5-65.2L-440.5-65.2
						L-440.5-65.2z M-441.7-64.8c0.1,0.1,1.3,1.7,2.4,3.7c-3.1,0.8-5.7,0.8-5.9,0.8C-444.9-62.3-443.5-63.9-441.7-64.8L-441.7-64.8
						L-441.7-64.8z M-445.4-59c0-0.1,0-0.1,0-0.2c0.1,0,3.3,0.1,6.6-0.9c0.2,0.4,0.4,0.7,0.5,1.1c-0.1,0-0.2,0-0.3,0.1
						c-3.5,1.1-5.2,4.2-5.2,4.2s0,0,0,0C-444.8-55.8-445.4-57.3-445.4-59L-445.4-59L-445.4-59z M-439-52.6c-1.5,0-3-0.6-4.1-1.5
						c0.1,0.1,0.1,0.1,0.1,0.1s1.2-2.7,5-4c0,0,0,0,0,0c0.9,2.3,1.3,4.3,1.4,4.9C-437.3-52.8-438.1-52.6-439-52.6L-439-52.6
						L-439-52.6z M-435.4-53.7c-0.1-0.4-0.4-2.3-1.2-4.6c2.1-0.3,3.9,0.2,4,0.3C-433-56.2-434-54.6-435.4-53.7L-435.4-53.7
						L-435.4-53.7z"/>
					<path id="Shape_126_" class="st37" d="M-431.9,32.6c0.1-0.5,0.2-1,0.2-1.5c0-4-3.2-7.2-7.2-7.2c-0.4,0-0.8,0-1.2,0.1
						c-0.6-0.4-1.4-0.6-2.2-0.6c-2.3,0-4.1,1.9-4.1,4.1c0,0.8,0.2,1.5,0.6,2.1c-0.1,0.5-0.1,0.9-0.1,1.4c0,4,3.2,7.2,7.2,7.2
						c0.4,0,0.9,0,1.3-0.1c0.6,0.3,1.3,0.5,2,0.5c2.3,0,4.1-1.9,4.1-4.1C-431.5,33.8-431.7,33.2-431.9,32.6L-431.9,32.6L-431.9,32.6
						z M-435.2,34.5c-0.3,0.5-0.8,0.8-1.5,1.1c-0.6,0.3-1.4,0.4-2.2,0.4c-1,0-1.9-0.2-2.6-0.5c-0.5-0.3-0.9-0.6-1.2-1
						c-0.3-0.4-0.5-0.9-0.5-1.3c0-0.3,0.1-0.5,0.3-0.7c0.2-0.2,0.4-0.3,0.7-0.3c0.2,0,0.5,0.1,0.6,0.2c0.2,0.1,0.3,0.3,0.4,0.6
						c0.1,0.3,0.3,0.5,0.4,0.7c0.1,0.2,0.3,0.3,0.6,0.5c0.3,0.1,0.6,0.2,1,0.2c0.6,0,1.1-0.1,1.4-0.4c0.4-0.2,0.5-0.5,0.5-0.9
						c0-0.3-0.1-0.5-0.3-0.7c-0.2-0.2-0.5-0.3-0.8-0.4c-0.3-0.1-0.8-0.2-1.3-0.3c-0.7-0.2-1.4-0.3-1.9-0.6c-0.5-0.2-0.9-0.5-1.2-0.9
						c-0.3-0.4-0.5-0.9-0.5-1.4c0-0.5,0.2-1,0.5-1.4c0.3-0.4,0.8-0.7,1.4-1c0.6-0.2,1.3-0.3,2.1-0.3c0.6,0,1.2,0.1,1.7,0.2
						c0.5,0.1,0.9,0.3,1.2,0.6c0.3,0.2,0.6,0.5,0.7,0.8c0.1,0.3,0.2,0.6,0.2,0.8c0,0.3-0.1,0.5-0.3,0.7c-0.2,0.2-0.4,0.3-0.7,0.3
						c-0.3,0-0.5-0.1-0.6-0.2c-0.1-0.1-0.3-0.3-0.4-0.6c-0.2-0.3-0.4-0.6-0.6-0.8c-0.2-0.2-0.6-0.3-1.2-0.3c-0.5,0-0.9,0.1-1.2,0.3
						c-0.3,0.2-0.4,0.4-0.4,0.7c0,0.2,0,0.3,0.1,0.4c0.1,0.1,0.2,0.2,0.4,0.3c0.2,0.1,0.4,0.2,0.6,0.2c0.2,0.1,0.5,0.1,1,0.2
						c0.6,0.1,1.1,0.3,1.6,0.4c0.5,0.2,0.9,0.3,1.2,0.6c0.3,0.2,0.6,0.5,0.8,0.9c0.2,0.3,0.3,0.8,0.3,1.3
						C-434.8,33.5-434.9,34.1-435.2,34.5L-435.2,34.5L-435.2,34.5z"/>
					<g id="Shape_127_" transform="translate(2.000000, 391.000000)">
						<path class="st37" d="M-436.4-272.2c0.1,0,0.2,0,0.3-0.1h1.1l0.2-0.2c0,0,0,0,0,0l0.4-0.6c0,0,0,0,0,0l0-0.1h-5.9l0.2,0.9h1.6
							l-2.7,2.4c-0.6-0.8-1.8-2.3-2.7-3.6h2v-0.7l0-0.2c0,0,0,0,0,0v-0.1h-6.7v0.9h2c0.8,0.6,3.7,4.3,3.8,4.6c0,0.3,0.1,2.4,0,2.5
							c-0.3,0.3-1.6,0.2-1.9,0.2l-0.1,0.6c0.6,0,2.5,0,3.1,0c1.2,0,3.2,0,3.5,0l0-0.7c-0.3,0-1.9,0-2.1-0.1c0-0.3-0.1-2.5-0.1-2.7
							C-440.1-269.5-436.8-272.1-436.4-272.2L-436.4-272.2L-436.4-272.2z"/>
						<path class="st37" d="M-435.4-267.2l0.9,0.1l1-4c-0.2,0-1.8-0.2-2-0.2L-435.4-267.2L-435.4-267.2z"/>
						<path class="st37" d="M-435.6-266.5l0,1l0.5,0l0.5,0l0.1-1l-0.5,0L-435.6-266.5L-435.6-266.5z"/>
					</g>
					<g transform="translate(2.000000, 479.000000)">
						<g id="SVGID_9_-link" transform="translate(0.000000, 6.000000)">
							<path id="SVGID_9_" class="st37" d="M-443.1-268.8c-0.8-0.5-1.6-1-2.8-1c-0.7,0-1.6,0.2-2.6,0.6l1.4-4.8
								c0.2-0.1,0.3-0.1,0.5-0.2c0.5-0.2,1.2-0.4,2-0.4c0.1,0,0.2,0,0.3,0c0.8,0,1.5,0.3,2,0.5c0.2,0.1,0.4,0.2,0.6,0.4
								C-441.9-273.1-442.8-269.8-443.1-268.8"/>
						</g>
						<g id="SVGID_11_-link" transform="translate(6.000000, 7.000000)">
							<path id="SVGID_11_" class="st37" d="M-445.4-268.3c-1.2,0-2.8-1-2.8-1l1.4-4.8c0.4,0.3,1.4,1,3,1c0.7,0,1.6-0.1,2.6-0.5
								l-1.3,4.7C-443.7-268.5-444.6-268.3-445.4-268.3"/>
						</g>
						<g id="SVGID_13_-link" transform="translate(2.000000, 0.000000)">
							<path id="SVGID_13_" class="st37" d="M-442-273.7L-442-273.7c-0.3,1-1.1,3.9-1.4,4.8 M-443.4-268.9c-0.7-0.5-1.5-0.9-2.7-1h0
								c-0.7,0-1.6,0.2-2.7,0.6l1.4-4.8c1-0.4,1.9-0.6,2.6-0.6h0c0.4,0,0.8,0.1,1.1,0.1c0.7,0.2,1.7,0.8,1.7,0.8"/>
						</g>
						<g id="SVGID_15_-link" transform="translate(8.000000, 1.000000)">
							<path id="SVGID_15_" class="st37" d="M-445.6-268.3c-1.2,0-2.2-0.4-3-0.9c0,0,0,0,0,0l1.4-4.9c0.4,0.3,1.4,1,3,1
								c0.8,0,1.7-0.2,2.7-0.6l-1.4,4.8c0,0,0,0,0,0v0C-443.9-268.5-444.8-268.3-445.6-268.3"/>
						</g>
					</g>
					<g id="Shape_128_" transform="translate(2.000000, 569.000000)">
						<path class="st37" d="M-442.3-268.2l1.3-2.2c0.1-0.2,0-0.4-0.1-0.5l-0.9-0.5c-0.2-0.1-0.4,0-0.5,0.1l-1.4,2.4l-1.5,2.7
							l-1.3,2.2c-0.1,0.2,0,0.4,0.1,0.5l0.9,0.5c0.2,0.1,0.4,0,0.5-0.1l1.8-3.1L-442.3-268.2L-442.3-268.2z"/>
						<path class="st37" d="M-433.8-268.9h-3c0.4,0.7,0.7,1.3,0.9,1.8c0.2,0.3,0.3,0.6,0.3,0.6c0,0.1,0.1,0.2,0.1,0.3h1.7
							c0.2,0,0.3-0.1,0.3-0.3v-2C-433.5-268.7-433.6-268.9-433.8-268.9L-433.8-268.9L-433.8-268.9z"/>
						<path class="st37" d="M-441.2-268.9l-1.5,2.7h4.1c-0.3-0.6-0.7-1.4-1.2-2.7H-441.2L-441.2-268.9z"/>
						<path class="st37" d="M-444.7-268.9h-3.5c-0.2,0-0.3,0.1-0.3,0.3v2c0,0.2,0.1,0.3,0.3,0.3h2L-444.7-268.9L-444.7-268.9z"/>
						<path class="st37" d="M-446-262.6l-0.9-0.5c-0.2-0.1-0.3,0-0.3,0.2l-0.2,1.4c0,0.2,0.1,0.3,0.2,0.1l1.2-0.8
							C-445.8-262.3-445.9-262.5-446-262.6L-446-262.6L-446-262.6z"/>
						<path class="st37" d="M-436.2-266.2C-436.2-266.2-436.2-266.2-436.2-266.2L-436.2-266.2c-0.1-0.2-0.3-0.6-0.6-1.1c0,0,0,0,0,0
							c0,0,0-0.1-0.1-0.1c0,0,0-0.1,0-0.1c0,0,0-0.1,0-0.1c0,0-0.1-0.1-0.1-0.1c0,0,0,0,0,0c0-0.1-0.1-0.1-0.1-0.2c0,0,0,0,0,0
							c-0.6-1.2-1.4-2.7-1.9-3.5c-0.9-1.4-2-3.6-2.3-3.5c-0.5,0.2,0.9,3.1,1.4,4.2c0.5,1.1,2.3,5.2,2.6,5.4c0.4,0.2,0.5,0.1,0.7,0
							C-436.4-265.4-435.9-265.8-436.2-266.2L-436.2-266.2L-436.2-266.2z"/>
						<path class="st37" d="M-435.1-264l-0.4-0.8c-0.1-0.2-0.3-0.3-0.5-0.2l-0.5,0.3c-0.2,0.1-0.2,0.3-0.1,0.5l0.5,0.9
							c0.1,0.2,0.4,0.2,0.5,0.1l0.4-0.2C-435.1-263.6-435-263.9-435.1-264L-435.1-264L-435.1-264z"/>
						<path class="st37" d="M-435.3-262.8c-0.1,0.1-0.5,0.4-0.1,1c0.4,0.5,1.3,0.6,1.4,0.9C-434-260.9-433.7-263.7-435.3-262.8
							L-435.3-262.8L-435.3-262.8z"/>
					</g>
					<g id="Shape_129_" transform="translate(2.000000, 658.000000)">
						<path class="st37" d="M-435.7-262.3c-0.1,0-0.2,0-0.2,0.1c-0.1,0-0.2,0.1-0.2,0.1l-0.1,0l-0.1,0.1v0c-1.6,0.7-3.3,1-4.9,1.1
							c-0.1,0-0.1,0-0.2,0c-2.5,0-4.5-1.1-6.5-2.3c-0.1,0-0.1-0.1-0.2-0.1c-0.1,0-0.2,0-0.3,0.1c-0.1,0.1-0.1,0.2-0.1,0.3
							c0,0.1,0.1,0.2,0.2,0.3c1.9,1.6,4,3.2,6.8,3.2c0.1,0,0.1,0,0.2,0c1.8,0,3.8-0.6,5.4-1.6l0,0c0.2-0.1,0.4-0.3,0.6-0.4
							c0.1-0.1,0.2-0.2,0.2-0.4C-435.2-262.1-435.4-262.3-435.7-262.3L-435.7-262.3L-435.7-262.3z"/>
						<path class="st37" d="M-433.5-263.2L-433.5-263.2c0-0.2,0-0.3-0.1-0.4l0,0l0,0c-0.1-0.1-0.1-0.1-0.2-0.1
							c-0.2-0.1-0.5-0.1-0.9-0.1c-0.3,0-0.5,0-0.8,0.1v0l-0.3,0.1l0,0l-0.2,0.1v0c-0.2,0.1-0.4,0.2-0.5,0.3
							c-0.1,0.1-0.2,0.2-0.2,0.3c0,0.1,0,0.2,0.1,0.2c0.1,0.1,0.2,0.1,0.2,0.1c0,0,0,0,0,0l0,0l0,0c0.1,0,0.3-0.1,0.6-0.1
							c0.2,0,0.4,0,0.6,0c0.1,0,0.3,0,0.3,0c0,0,0.1,0,0.1,0c0,0,0,0,0,0c0,0,0,0,0,0.1c0,0.2-0.1,0.5-0.2,0.7
							c-0.1,0.3-0.2,0.6-0.3,0.8c0,0,0,0.1,0,0.1c0,0.1,0,0.2,0.1,0.2c0.1,0.1,0.1,0.1,0.2,0.1h0c0.1,0,0.2,0,0.3-0.1
							C-433.8-261.5-433.5-262.5-433.5-263.2L-433.5-263.2L-433.5-263.2z"/>
						<path class="st37" d="M-440.2-270.3c-0.4,0-0.9,0.1-1.4,0.1c-0.8,0.1-1.5,0.2-2.2,0.5c-1.2,0.5-2.1,1.6-2.1,3.1
							c0,2,1.3,2.9,2.8,2.9c0.5,0,1-0.1,1.4-0.2c0.6-0.2,1.2-0.6,1.8-1.2c0.4,0.5,0.5,0.7,1.1,1.3c0.2,0.1,0.3,0.1,0.5,0
							c0.4-0.3,1.1-0.9,1.5-1.3c0.2-0.1,0.1-0.3,0-0.5c-0.4-0.5-0.7-0.9-0.7-1.8v-3c0-1.3,0.1-2.4-0.8-3.3c-0.8-0.7-2-1-2.9-1h-0.4
							c-1.7,0.1-3.5,0.8-3.9,2.9c-0.1,0.3,0.1,0.4,0.3,0.4l1.9,0.2c0.2,0,0.3-0.2,0.3-0.4c0.2-0.7,0.8-1.1,1.4-1.2h0.1
							c0.4,0,0.8,0.2,1.1,0.5c0.3,0.4,0.2,0.9,0.2,1.4V-270.3L-440.2-270.3z M-440.6-266.3c-0.2,0.5-0.6,0.8-1.1,0.9
							c-0.1,0-0.2,0-0.3,0c-0.7,0-1.2-0.6-1.2-1.4c0-1.1,0.6-1.6,1.4-1.8c0.4-0.1,0.9-0.1,1.4-0.1v0.4
							C-440.2-267.6-440.2-267-440.6-266.3L-440.6-266.3L-440.6-266.3z"/>
					</g>
					<g id="Shape_130_" transform="translate(3.000000, 748.000000)">
						<path class="st37" d="M-439.8-273.1l0.2-0.2l0.2-0.2l0.4-0.5c0-0.1,0-0.2,0-0.2c-0.1,0-0.2,0-0.2,0l-0.4,0.6l-0.2,0.2
							l-0.2,0.2c-0.5-0.2-1.1-0.3-1.7-0.3c-0.6,0-1.2,0.1-1.7,0.3l-0.2-0.2l-0.2-0.2l-0.4-0.6c0-0.1-0.1-0.1-0.2,0
							c-0.1,0-0.1,0.1,0,0.2l0.4,0.5l0.2,0.2l0.2,0.2c-1.2,0.6-2.1,1.7-2.1,2.9h8.1C-437.7-271.5-438.5-272.6-439.8-273.1
							L-439.8-273.1L-439.8-273.1z M-443.5-271.4c-0.2,0-0.4-0.2-0.4-0.4c0-0.2,0.2-0.4,0.4-0.4c0.2,0,0.4,0.2,0.4,0.4
							C-443.1-271.6-443.3-271.4-443.5-271.4L-443.5-271.4L-443.5-271.4z M-440-271.4c-0.2,0-0.4-0.2-0.4-0.4c0-0.2,0.2-0.4,0.4-0.4
							c0.2,0,0.4,0.2,0.4,0.4C-439.6-271.6-439.8-271.4-440-271.4L-440-271.4L-440-271.4z"/>
						<path class="st37" d="M-445.8-269.6L-445.8-269.6l-0.1,0.7v0.6v5.1c0,0.5,0.4,0.9,0.9,0.9h0.7c0,0.1,0,0.2,0,0.2v0v0.3v1.5
							c0,0.5,0.4,0.9,0.9,0.9c0.5,0,0.9-0.4,0.9-0.9v-1.5v-0.3v0c0-0.1,0-0.2,0-0.2h1.6c0,0.1,0,0.2,0,0.2v0v0.3v1.5
							c0,0.5,0.4,0.9,0.9,0.9c0.5,0,0.9-0.4,0.9-0.9v-1.5v-0.3v0c0-0.1,0-0.2,0-0.2h0.7c0.5,0,0.9-0.4,0.9-0.9v-5.1v-0.6v-0.7h-0.1
							H-445.8L-445.8-269.6z"/>
						<path class="st37" d="M-447.3-269.6c-0.5,0-0.9,0.4-0.9,0.9v3.7c0,0.5,0.4,0.9,0.9,0.9c0.5,0,0.9-0.4,0.9-0.9v-3.7
							C-446.4-269.3-446.8-269.6-447.3-269.6L-447.3-269.6L-447.3-269.6z"/>
						<path class="st37" d="M-436.2-269.6c-0.5,0-0.9,0.4-0.9,0.9v3.7c0,0.5,0.4,0.9,0.9,0.9c0.5,0,0.9-0.4,0.9-0.9v-3.7
							C-435.4-269.3-435.8-269.6-436.2-269.6L-436.2-269.6L-436.2-269.6z"/>
					</g>
					<path id="Shape_131_" class="st37" d="M-434.4,563.6h-9.2c-1.6,0-2.9,1.3-2.9,2.9v3.1v6.1c0,1.6,1.3,2.9,2.9,2.9h9.2
						c1.6,0,2.9-1.3,2.9-2.9v-6.1v-3.1C-431.5,564.9-432.8,563.6-434.4,563.6L-434.4,563.6L-434.4,563.6z M-433.6,565.3l0.3,0v0.3
						v2.2l-2.5,0l0-2.5L-433.6,565.3L-433.6,565.3z M-441.1,569.5c0.5-0.7,1.3-1.1,2.1-1.1c0.9,0,1.7,0.4,2.1,1.1
						c0.3,0.4,0.5,1,0.5,1.5c0,1.5-1.2,2.6-2.6,2.6c-1.5,0-2.6-1.2-2.6-2.6C-441.6,570.5-441.5,570-441.1,569.5L-441.1,569.5
						L-441.1,569.5z M-433,575.7c0,0.8-0.6,1.4-1.4,1.4h-9.2c-0.8,0-1.4-0.6-1.4-1.4v-6.1h2.2c-0.2,0.5-0.3,1-0.3,1.5
						c0,2.3,1.8,4.1,4.1,4.1s4.1-1.8,4.1-4.1c0-0.5-0.1-1.1-0.3-1.5h2.2L-433,575.7L-433,575.7L-433,575.7z"/>
					<path id="Shape_132_" class="st37" d="M-431.5,662.9h-15v-3.6h1.7v1.9h11.7v-1.9h1.7V662.9L-431.5,662.9z"/>
					<path id="Shape_133_" class="st37" d="M-432.5,758.1l-6.2-14.3c-0.1-0.1-0.2-0.2-0.3-0.2l0,0c-0.1,0-0.3,0.1-0.3,0.2l-6.2,14.3
						c0,0.1,0,0.2,0,0.3c0.1,0.1,0.2,0.2,0.3,0.2h5.5v-3l-1.5-1l0.2-0.4l1.2,0.9v-2.4h1.4v1.6l1.3-0.6l0.2,0.4l-1.5,0.7v1.2l2.4-1.2
						l0.2,0.4l-2.6,1.3v2.3h5.5c0.1,0,0.2-0.1,0.3-0.2C-432.4,758.3-432.4,758.2-432.5,758.1L-432.5,758.1L-432.5,758.1z"/>
					<g id="Shape_134_" transform="translate(2.000000, 59.000000)">
						<path class="st37" d="M-448.5-267.2l4.4,2.9l3.1-2.6l-4.4-2.7L-448.5-267.2L-448.5-267.2z"/>
						<path class="st37" d="M-444.1-275l-4.4,2.9l3,2.4l4.4-2.7L-444.1-275L-444.1-275z"/>
						<path class="st37" d="M-433.5-272.1l-4.4-2.9l-3.1,2.6l4.4,2.7L-433.5-272.1L-433.5-272.1z"/>
						<path class="st37" d="M-441-266.9l3.1,2.6l4.4-2.9l-3.1-2.4L-441-266.9L-441-266.9z"/>
						<path class="st37" d="M-441-266.3l-3.1,2.6l-1.3-0.9v1l4.4,2.7l4.4-2.7v-1l-1.3,0.9L-441-266.3L-441-266.3z"/>
					</g>
					<path id="Shape_135_" class="st37" d="M-433.9-119.7c-0.1,0-0.3-0.1-0.4-0.1c-0.9-0.3-1.5-0.5-1.5-1.2c0-0.6,0.5-1,1.1-1
						c0.5,0,0.8,0.2,1.2,0.6c0,0,0.1,0.1,0.1,0l0.9-0.5c0,0,0,0,0.1-0.1c0,0,0-0.1,0-0.1c-0.5-0.9-1.2-1.3-2.2-1.3
						c-1.5,0-2.5,0.9-2.5,2.3c0,1.4,0.9,2,2.7,2.6c1,0.3,1.5,0.5,1.5,1.2c0,0.8-0.7,1.4-1.7,1.4c-1,0-1.4-0.6-1.8-1.5
						c-0.7-1.5-1.4-3.3-1.4-3.3c-0.8-1.8-2.3-2.8-4.2-2.8c-2.5,0-4.5,2-4.5,4.5c0,2.5,2,4.5,4.5,4.5c1.4,0,2.6-0.6,3.5-1.7
						c0,0,0-0.1,0-0.1l-0.6-1.3c0,0-0.1-0.1-0.1-0.1c0,0-0.1,0-0.1,0.1c-0.5,1-1.6,1.7-2.7,1.7c-1.7,0-3.1-1.4-3.1-3.1
						c0-1.7,1.4-3.1,3.1-3.1c1.2,0,2.4,0.7,2.8,1.8l1.4,3.2l0.2,0.4c0.6,1.5,1.6,2.1,3,2.1c1.7,0,3.1-1.2,3.1-2.7
						C-431.6-118.7-432.5-119.2-433.9-119.7L-433.9-119.7L-433.9-119.7z"/>
					<path id="Shape_136_" class="st37" d="M-445.8-26.5C-445.7-26.5-445.7-26.6-445.8-26.5l0.2-1.4l-0.2-1.3c0,0,0-0.1-0.1-0.1
						c0,0-0.1,0-0.1,0.1l-0.1,1.3L-445.8-26.5C-445.8-26.6-445.8-26.5-445.8-26.5L-445.8-26.5L-445.8-26.5z M-446.3-27
						C-446.3-27-446.3-27.1-446.3-27l0.2-0.9l-0.1-0.8c0,0,0-0.1-0.1-0.1c0,0-0.1,0-0.1,0.1l-0.1,0.8L-446.3-27
						C-446.4-27.1-446.4-27-446.3-27L-446.3-27L-446.3-27z M-445.1-29.5C-445.1-29.6-445.1-29.6-445.1-29.5c-0.1-0.1-0.1,0-0.1,0
						l-0.1,1.6l0.1,1.5c0,0,0,0.1,0.1,0.1c0,0,0.1,0,0.1-0.1l0.2-1.5L-445.1-29.5L-445.1-29.5z M-444.6-26.3
						C-444.5-26.3-444.5-26.3-444.6-26.3L-444.6-26.3l0.2-1.7l-0.1-1.6c0-0.1,0-0.1-0.1-0.1c0,0-0.1,0-0.1,0.1l-0.1,1.6L-444.6-26.3
						C-444.7-26.3-444.6-26.3-444.6-26.3L-444.6-26.3L-444.6-26.3z M-444-26.2c0.1,0,0.1,0,0.1-0.1l0,0l0.1-1.6l-0.1-1.5
						c0-0.1,0-0.1-0.1-0.1c-0.1,0-0.1,0-0.1,0.1l-0.1,1.5l0.1,1.6C-444.1-26.3-444-26.2-444-26.2L-444-26.2L-444-26.2z M-443.1-27.9
						l-0.1-2.5c0-0.1-0.1-0.1-0.1-0.1c-0.1,0-0.1,0.1-0.1,0.1l-0.1,2.5l0.1,1.6c0,0.1,0.1,0.1,0.1,0.1c0.1,0,0.1-0.1,0.1-0.1l0,0
						L-443.1-27.9L-443.1-27.9z M-442.8-26.2c0.1,0,0.1-0.1,0.1-0.1v0l0.1-1.6l-0.1-3c0-0.1-0.1-0.1-0.1-0.1c-0.1,0-0.1,0.1-0.1,0.1
						l-0.1,3l0.1,1.6C-442.9-26.3-442.8-26.2-442.8-26.2L-442.8-26.2L-442.8-26.2z M-442.2-31.4c-0.1,0-0.1,0.1-0.1,0.1l-0.1,3.3
						l0.1,1.6c0,0.1,0.1,0.1,0.1,0.1c0.1,0,0.1-0.1,0.1-0.1l0,0l0.1-1.6l-0.1-3.3C-442-31.3-442.1-31.4-442.2-31.4L-442.2-31.4
						L-442.2-31.4z M-441.5-26.2c0.1,0,0.1-0.1,0.2-0.2v0l0.1-1.6l-0.1-3.4c0-0.1-0.1-0.2-0.2-0.2c-0.1,0-0.1,0.1-0.2,0.2l-0.1,3.4
						l0.1,1.6C-441.7-26.3-441.6-26.2-441.5-26.2L-441.5-26.2L-441.5-26.2z M-440.9-26.2c0.1,0,0.2-0.1,0.2-0.2l0,0l0.1-1.6
						l-0.1-3.3c0-0.1-0.1-0.2-0.2-0.2c-0.1,0-0.2,0.1-0.2,0.2l-0.1,3.3l0.1,1.6C-441.1-26.3-441-26.2-440.9-26.2L-440.9-26.2
						L-440.9-26.2z M-440-27.9l-0.1-3.2c0-0.1-0.1-0.2-0.2-0.2s-0.2,0.1-0.2,0.2l-0.1,3.2l0.1,1.5c0,0.1,0.1,0.2,0.2,0.2
						s0.2-0.1,0.2-0.2v0L-440-27.9L-440-27.9z M-439.7-26.2c0.1,0,0.2-0.1,0.2-0.2v0l0.1-1.5l-0.1-3.8c0-0.1-0.1-0.2-0.2-0.2
						c-0.1,0-0.2,0.1-0.2,0.2l-0.1,3.8c0,0,0.1,1.5,0.1,1.5C-439.9-26.3-439.8-26.2-439.7-26.2L-439.7-26.2L-439.7-26.2z M-439-32.3
						c-0.1,0-0.2,0.1-0.2,0.2l-0.1,4.2l0.1,1.5c0,0.1,0.1,0.2,0.2,0.2c0.1,0,0.2-0.1,0.2-0.2v0l0.1-1.5l-0.1-4.2
						C-438.8-32.2-438.9-32.3-439-32.3L-439-32.3L-439-32.3z M-438.5-26.2c0,0,5.1,0,5.1,0c1,0,1.8-0.8,1.8-1.8c0-1-0.8-1.8-1.8-1.8
						c-0.3,0-0.5,0.1-0.7,0.1c-0.1-1.7-1.5-3-3.2-3c-0.4,0-0.8,0.1-1.2,0.2c-0.1,0.1-0.2,0.1-0.2,0.2v5.9
						C-438.7-26.3-438.6-26.2-438.5-26.2L-438.5-26.2L-438.5-26.2z"/>
					<path id="Shape_137_" class="st37" d="M-446.5,61c0,3,1.7,5.5,4.2,6.7l-3.6-9.8C-446.3,58.9-446.5,59.9-446.5,61L-446.5,61
						L-446.5,61z M-433.9,60.6c0-0.9-0.3-1.6-0.6-2.1c-0.4-0.6-0.7-1.1-0.7-1.8c0-0.7,0.5-1.3,1.3-1.3c0,0,0.1,0,0.1,0
						c-1.3-1.2-3.1-2-5.1-2c-2.6,0-4.9,1.3-6.3,3.4c0.2,0,0.3,0,0.5,0c0.8,0,2-0.1,2-0.1c0.4,0,0.5,0.6,0,0.6c0,0-0.4,0-0.9,0.1
						l2.7,8.1l1.6-4.9l-1.2-3.2c-0.4,0-0.8-0.1-0.8-0.1c-0.4,0-0.4-0.6,0-0.6c0,0,1.2,0.1,2,0.1c0.8,0,2-0.1,2-0.1
						c0.4,0,0.5,0.6,0,0.6c0,0-0.4,0-0.9,0.1l2.7,8.1l0.8-2.5C-434.1,62.1-433.9,61.3-433.9,60.6L-433.9,60.6L-433.9,60.6z
						 M-438.9,61.7l-2.3,6.5c0.7,0.2,1.4,0.3,2.1,0.3c0.9,0,1.7-0.1,2.5-0.4c0,0,0-0.1-0.1-0.1L-438.9,61.7L-438.9,61.7z
						 M-432.4,57.4c0,0.2,0.1,0.5,0.1,0.8c0,0.8-0.1,1.6-0.6,2.7l-2.3,6.6c2.2-1.3,3.7-3.7,3.7-6.5
						C-431.5,59.7-431.8,58.5-432.4,57.4L-432.4,57.4L-432.4,57.4z"/>
					<g transform="translate(2.000000, 421.000000)">
						<path id="Shape_138_" class="st37" d="M-446.2-274.2v2h-2.3v4.5h3.7v-6.5H-446.2L-446.2-274.2z M-446.2-268.9h-0.8v-2.1h0.8
							L-446.2-268.9L-446.2-268.9L-446.2-268.9z"/>
						<path id="Shape_139_" class="st37" d="M-441.7-272.2v4.6h2.3v0.7h-2.3v1.3h3.1h0.6v-6.5H-441.7L-441.7-272.2z M-439.5-268.9
							h-0.8v-2.1h0.8V-268.9L-439.5-268.9z"/>
						<path id="Shape_140_" class="st37" d="M-437.2-272.2v4.6h2.3v0.7h-2.3v1.3h3.1h0.6v-6.5H-437.2L-437.2-272.2z M-435-268.9
							h-0.8v-2.1h0.8L-435-268.9L-435-268.9L-435-268.9z"/>
						<rect id="Rectangle-path_2_" x="-444" y="-272.3" class="st37" width="1.5" height="4.6"/>
						<rect id="Rectangle-path_3_" x="-444" y="-274.2" class="st37" width="1.5" height="1.2"/>
					</g>
					<path id="Shape_141_" class="st37" d="M-439.4,243.6c0-1.3-1.1-2.4-2.5-2.5l-0.5,0c-0.5,0-0.9-0.4-0.9-0.9
						c0-0.5,0.4-0.9,0.9-0.9h3.5c0.5,0,0.9,0.4,0.9,0.9v3.2c0,1.4,1.2,2.6,2.6,2.6h0.4c1.4,0,2.6-1.1,2.6-2.6v-10.8
						c-0.1,0-0.1,0-0.2,0h-1.5v10.8c0,0.5-0.4,0.9-0.9,0.9h-0.4c-0.5,0-0.9-0.4-0.9-0.9v-3.2c0-1.4-1.1-2.6-2.6-2.6h-3.5
						c-1.4,0-2.6,1.1-2.6,2.5c0,1.4,1.1,2.5,2.5,2.6l0.5,0c0.5,0,0.9,0.4,0.9,0.8c0,0.4-0.5,0.8-1,0.8h-5.5v1.7h5.5
						C-440.6,246-439.4,244.9-439.4,243.6L-439.4,243.6L-439.4,243.6z"/>
					<g id="Shape_142_" transform="translate(0.000000, 602.000000)">
						<path class="st37" d="M-438.3-271.8c-0.2-0.1-0.5-0.2-0.8-0.2c-0.5,0-0.9,0.1-1.2,0.5h0v-2.5h-1.5v2.1c0,0,0,0,0.1,0
							c0.6,0.2,0.9,0.5,1,0.9c0.2,0.4,0.2,0.8,0.2,1.3l0,0c0,0.1-0.1,0.2-0.2,0.2h-1.1v0v0.1h1.1h0c0.1,0,0.2,0.1,0.2,0.2
							c0,0.3-0.1,0.5-0.3,0.7c-0.2,0.2-0.4,0.4-0.8,0.5c0,0-0.1,0-0.1,0l0,0v0.8h1.4v-0.5h0c0.3,0.5,0.7,0.6,1.2,0.6
							c1.1,0,1.4-0.9,1.4-1.7l0,0h0c-0.5-0.1-0.8-0.4-1-0.8l0,0c0-0.1-0.1-0.2-0.1-0.2c-0.1-0.2-0.1-0.4-0.1-0.6l0,0v0
							c0-0.3,0.1-0.6,0.2-0.8C-438.6-271.5-438.5-271.7-438.3-271.8L-438.3-271.8L-438.3-271.8z M-439.1-269.6
							c0,1.2-0.1,1.7-0.6,1.7c-0.5,0-0.6-0.5-0.6-1.7c0-0.9,0-1.6,0.6-1.6C-439.1-271.2-439.1-270.5-439.1-269.6L-439.1-269.6
							L-439.1-269.6z"/>
						<path class="st37" d="M-440.7-269.2h-1.1h-0.8h0h-0.9c0,0.4-0.2,0.8-1.1,0.8c-1.2,0-1.2-0.7-1.2-1.3h4h1.1
							c0.1-0.9-0.1-1.6-1.1-2c-0.2-0.1-0.5-0.2-0.8-0.2c-0.5-0.1-1.2-0.2-2-0.2c-3.5,0-3.9,1-3.9,2.1c0,1.3,0.4,2.3,3.9,2.3
							c0.8,0,1.5-0.1,2-0.2c0.3-0.1,0.5-0.1,0.8-0.2c0,0,0,0,0,0C-441.1-268.4-440.8-268.8-440.7-269.2L-440.7-269.2L-440.7-269.2z
							 M-444.6-271.4c1.3,0,1.2,0.6,1.2,1h-2.4C-445.8-270.7-445.8-271.4-444.6-271.4L-444.6-271.4L-444.6-271.4z"/>
						<path class="st37" d="M-438.2-271.7c-0.4,0.2-0.5,0.6-0.5,1.3c0,0.7,0.3,1.4,1,1.5c0.1,0,0.2,0,0.4,0c0.6,0,1.1-0.2,1.4-0.7h0
							l0.1,0.6h1.4c0-0.3-0.1-0.6-0.1-0.9v-0.9l-0.1-0.3l-1.5-2.7l-0.1-0.1c-0.1,0-0.3,0-0.5,0c-0.6,0-1,0.1-1.4,0.3
							c-0.4,0.2-0.6,0.6-0.6,1.2h1.5c0-0.4,0-0.7,0.5-0.7c0.5,0,0.6,0.3,0.6,0.7v0.4C-436.9-272.1-437.7-272.1-438.2-271.7
							L-438.2-271.7L-438.2-271.7z M-436.8-269.7c-0.5,0-0.6-0.4-0.6-0.8c0-0.8,0.6-0.8,1.3-0.8C-436-270.8-435.9-269.7-436.8-269.7
							L-436.8-269.7L-436.8-269.7z"/>
						<path class="st37" d="M-431.5-274.5l-1.5,2.9l-1.4-2.9h-2.1l0.3,0.6l1.5,2.7l0.6,1.1v2.4h1.9v-2.4l2.6-4.4H-431.5
							L-431.5-274.5z"/>
					</g>
					<g id="Shape_143_" transform="translate(2.000000, 688.000000)">
						<path class="st37" d="M-437.9-273.9c-1-0.4-2-0.7-3.1-0.7c-0.9,0-1.8,0.2-2.6,0.5c0.2,0.2,5.5,5,5.7,5.2V-273.9L-437.9-273.9z
							"/>
						<path class="st37" d="M-444.9-260.7v-6.4c-0.2,0.2-3,2.7-3.1,2.8C-447.4-262.8-446.3-261.5-444.9-260.7L-444.9-260.7
							L-444.9-260.7z"/>
						<path class="st37" d="M-448.5-267.1c0,0.6,0.1,1.3,0.3,1.9c0.2-0.2,6.5-5.9,6.6-6c-0.1-0.1-2.8-2.5-2.8-2.6
							C-446.9-272.5-448.5-269.9-448.5-267.1L-448.5-267.1L-448.5-267.1z"/>
						<path class="st37" d="M-444.1-263.8v3.6c0.8,0.3,1.6,0.6,2.4,0.6h1.4c2.6-0.2,4.9-1.8,6.1-4.2H-444.1L-444.1-263.8z"/>
						<path class="st37" d="M-437.1-273.5v8.9h3.2c0.3-0.8,0.4-1.6,0.4-2.5C-433.5-269.7-434.9-272.1-437.1-273.5L-437.1-273.5
							L-437.1-273.5z"/>
					</g>
					<path id="Shape_144_" class="st37" d="M-431.5,507.3c0-0.6-0.2-1.2-0.5-1.6c-0.8-1.3-2.3-2-3.7-2h-7.5l-3.3,14.8h4.4l1.1-4.9
						h3.2c0,0,0.1,0,0.1,0c1.8,0,3.4-0.7,4.5-1.9c0.7-0.8,1.3-1.8,1.6-3C-431.5,508.2-431.5,507.7-431.5,507.3L-431.5,507.3
						L-431.5,507.3z M-435.8,508.7c-0.1,0.5-0.4,0.9-0.8,1.3c-0.1,0.1-0.3,0.2-0.4,0.3c-0.4,0.2-0.9,0.4-1.3,0.4h-2.1l0.9-3.8
						l0.1-0.3h2.2c0.4,0,0.7,0.1,1,0.3C-435.8,507.3-435.6,508-435.8,508.7L-435.8,508.7L-435.8,508.7z"/>
					<path id="Shape_145_" class="st37" d="M-441.1,599.4c3.4-1,6.2,1,6.2,1l-2.3,0.6l-0.7-1.2c-0.6-0.1-1.4-0.2-2.1,0l1.6,3.2
						l6.9-2c0,0-2.5-3.9-9.9-2.7c0,0-0.1,0-0.1,0l-0.7-1.5l-2.1,0.2l0.9,1.8c-4.5,1.9-2.5,6.3-2.5,6.3l6.9-2L-441.1,599.4
						L-441.1,599.4z M-444.2,602.9c0,0-0.7-1.5,1.3-2.7l1,2.1L-444.2,602.9L-444.2,602.9z"/>
					<path id="Shape_146_" class="st37" d="M-431.8,773.6h-14.4c-0.2,0-0.3,0.1-0.3,0.3v14.4c0,0.2,0.1,0.3,0.3,0.3h14.4
						c0.2,0,0.3-0.1,0.3-0.3v-14.4C-431.5,773.7-431.6,773.6-431.8,773.6L-431.8,773.6L-431.8,773.6z M-439,788v-6.9h-6.9v-6.9h6.9
						v6.9h6.9v6.9H-439L-439,788z"/>
					<g id="Shape_147_" transform="translate(2.000000, 959.000000)">
						<path class="st37" d="M-443.2-265.2L-443.2-265.2l-0.1,0.1l-2,3.6l-0.1,0.2h0.2h9.5h0.1l0-0.1l2-3.6l0.1-0.2h-0.2H-443.2
							L-443.2-265.2z"/>
						<path class="st37" d="M-438-266.1L-438-266.1l0.1,0.1l4.1,0l0.2,0l-0.1-0.2l-4.7-8.2l0-0.1h-0.1l-4.1,0l-0.2,0l0.1,0.2
							L-438-266.1L-438-266.1z"/>
						<path class="st37" d="M-441.4-270.2L-441.4-270.2l-2.1-3.6l-0.1-0.2l-0.1,0.2l-4.7,8.2l0,0.1l0,0.1l2.1,3.5l0.1,0.2l0.1-0.2
							L-441.4-270.2L-441.4-270.2L-441.4-270.2z"/>
					</g>
				</g>
			</g>
			<path id="Shape_148_" class="st1" d="M-419,820.1c0-8.3-6.7-15-15-15s-15,6.7-15,15c0,8.3,6.7,15,15,15S-419,828.4-419,820.1z"/>
			<path id="Shape-Copy" d="M-419,820c0-2,0.4-4,1.2-5.8s1.9-3.5,3.2-4.8s2.9-2.4,4.8-3.2s3.8-1.2,5.8-1.2s4,0.4,5.8,1.2
				s3.5,1.9,4.8,3.2s2.4,2.9,3.2,4.8s1.2,3.8,1.2,5.8s-0.4,4-1.2,5.8s-1.9,3.5-3.2,4.8s-2.9,2.4-4.8,3.2s-3.8,1.2-5.8,1.2
				s-4-0.4-5.8-1.2s-3.5-1.9-4.8-3.2s-2.4-2.9-3.2-4.8S-419,822-419,820L-419,820L-419,820z M-412,824.4c0.5,0.9,1.2,1.6,2.1,2
				c1,0.5,2,0.7,3,0.8c0.8,0.1,1.8,0.2,3,0.2c0.6,0,1.2,0,1.7,0c1.3-0.1,2.5-0.3,3.5-0.7c1.2-0.5,2.1-1.3,2.5-2.3
				c0.4-0.9,0.6-2,0.6-3.4c0-1.6-0.5-3-1.4-4.1c0.2-0.5,0.3-1.1,0.3-1.7c0-0.8-0.2-1.5-0.5-2.2c-0.7,0-1.3,0.1-1.9,0.4
				s-1.2,0.7-2,1.3c-0.9-0.2-1.9-0.3-2.9-0.3c-1.1,0-2.2,0.1-3.2,0.4c-0.8-0.6-1.5-1-2-1.3s-1.2-0.4-1.9-0.4
				c-0.4,0.7-0.5,1.5-0.5,2.2c0,0.5,0.1,1.1,0.3,1.8c-0.9,1.1-1.4,2.4-1.4,4.1C-412.7,822.4-412.5,823.5-412,824.4L-412,824.4z
				 M-410.4,822.8c0-0.9,0.2-1.6,0.7-2.1s1.1-0.9,1.9-0.9c0.3,0,1,0.1,2,0.2c0.4,0.1,1,0.1,1.6,0.1c0.6,0,1.2,0,1.6-0.1
				c1.1-0.2,1.7-0.2,2-0.2c0.8,0,1.4,0.3,1.9,0.9s0.7,1.3,0.7,2.1c0,0.6-0.1,1.1-0.3,1.6c-0.4,0.8-1.1,1.4-2.1,1.7
				c-0.8,0.2-1.8,0.4-3,0.4h-1.7c-0.6,0-1.1,0-1.5-0.1c-1.2-0.1-2.1-0.4-2.7-0.9C-410,824.9-410.4,824-410.4,822.8L-410.4,822.8
				L-410.4,822.8z M-408.7,822.8c0,0.3,0,0.6,0.1,0.8c0.1,0.3,0.2,0.6,0.5,0.8s0.5,0.3,0.7,0.3c0.3,0,0.5-0.1,0.8-0.3
				c0.4-0.4,0.6-1,0.6-1.6c0-0.3,0-0.6-0.1-0.9c-0.1-0.3-0.2-0.6-0.5-0.8s-0.5-0.3-0.7-0.3c-0.3,0-0.5,0.1-0.8,0.3
				C-408.5,821.6-408.7,822.2-408.7,822.8L-408.7,822.8L-408.7,822.8z M-402.1,822.8c0,0.3,0,0.6,0.1,0.8c0.1,0.3,0.2,0.6,0.4,0.8
				s0.5,0.3,0.7,0.3c0.3,0,0.6-0.1,0.8-0.3c0.4-0.4,0.5-1,0.5-1.6c0-0.3,0-0.6-0.1-0.9c-0.1-0.3-0.2-0.6-0.5-0.8s-0.5-0.3-0.8-0.3
				s-0.5,0.1-0.7,0.3C-401.9,821.6-402.1,822.1-402.1,822.8L-402.1,822.8L-402.1,822.8z"/>
			<path id="Shape-Copy-2" class="st37" d="M-442,824.4c0.5,0.9,1.2,1.6,2.1,2c1,0.5,2,0.7,3,0.8c0.8,0.1,1.8,0.2,3,0.2
				c0.6,0,1.2,0,1.7,0c1.3-0.1,2.5-0.3,3.5-0.7c1.2-0.5,2.1-1.3,2.5-2.3c0.4-0.9,0.6-2,0.6-3.4c0-1.6-0.5-3-1.4-4.1
				c0.2-0.5,0.3-1.1,0.3-1.7c0-0.8-0.2-1.5-0.5-2.2c-0.7,0-1.3,0.1-1.9,0.4s-1.2,0.7-2,1.3c-0.9-0.2-1.9-0.3-2.9-0.3
				c-1.1,0-2.2,0.1-3.2,0.4c-0.8-0.6-1.5-1-2-1.3s-1.2-0.4-1.9-0.4c-0.4,0.7-0.5,1.5-0.5,2.2c0,0.5,0.1,1.1,0.3,1.8
				c-0.9,1.1-1.4,2.4-1.4,4.1C-442.7,822.4-442.5,823.5-442,824.4L-442,824.4z M-440.4,822.8c0-0.9,0.2-1.6,0.7-2.1s1.1-0.9,1.9-0.9
				c0.3,0,1,0.1,2,0.2c0.4,0.1,1,0.1,1.6,0.1c0.6,0,1.2,0,1.6-0.1c1.1-0.2,1.7-0.2,2-0.2c0.8,0,1.4,0.3,1.9,0.9s0.7,1.3,0.7,2.1
				c0,0.6-0.1,1.1-0.3,1.6c-0.4,0.8-1.1,1.4-2.1,1.7c-0.8,0.2-1.8,0.4-3,0.4h-1.7c-0.6,0-1.1,0-1.5-0.1c-1.2-0.1-2.1-0.4-2.7-0.9
				C-440,824.9-440.4,824-440.4,822.8L-440.4,822.8L-440.4,822.8z M-438.7,822.8c0,0.3,0,0.6,0.1,0.8c0.1,0.3,0.2,0.6,0.5,0.8
				s0.5,0.3,0.7,0.3c0.3,0,0.5-0.1,0.8-0.3c0.4-0.4,0.6-1,0.6-1.6c0-0.3,0-0.6-0.1-0.9c-0.1-0.3-0.2-0.6-0.5-0.8s-0.5-0.3-0.7-0.3
				c-0.3,0-0.5,0.1-0.8,0.3C-438.5,821.6-438.7,822.2-438.7,822.8L-438.7,822.8L-438.7,822.8z M-432.1,822.8c0,0.3,0,0.6,0.1,0.8
				c0.1,0.3,0.2,0.6,0.4,0.8s0.5,0.3,0.7,0.3c0.3,0,0.6-0.1,0.8-0.3c0.4-0.4,0.5-1,0.5-1.6c0-0.3,0-0.6-0.1-0.9
				c-0.1-0.3-0.2-0.6-0.5-0.8s-0.5-0.3-0.8-0.3s-0.5,0.1-0.7,0.3C-431.9,821.6-432.1,822.1-432.1,822.8L-432.1,822.8L-432.1,822.8z"
				/>
			<path id="Shape_150_" class="st1" d="M-419,850c0-8.3-6.7-15-15-15s-15,6.7-15,15c0,8.3,6.7,15,15,15S-419,858.3-419,850z"/>
			<g>
				<path class="st37" d="M-426.7,845.9h-0.6c-0.2,0-0.5,0.3-0.5,0.5v7.2c0,0.2,0.2,0.5,0.5,0.5h0.6v1.7h-5.2v-1.7h1v-7.6h0
					l-2.6,9.3h-2l-2.5-9.3h0v7.6h1.1v1.7h-4.4v-1.7h0.6c0.2,0,0.5-0.3,0.5-0.5v-7.2c0-0.2-0.2-0.5-0.5-0.5h-0.6v-1.7h5.5l1.8,6.7h0
					l1.8-6.7h5.5V845.9L-426.7,845.9z"/>
			</g>
			<g>
				<path id="Shape_149_" d="M-389,850c0-8.3-6.7-15-15-15s-15,6.7-15,15c0,8.3,6.7,15,15,15S-389,858.3-389,850z"/>
				<g>
					<path class="st1" d="M-396.7,845.9h-0.6c-0.2,0-0.5,0.3-0.5,0.5v7.2c0,0.2,0.2,0.5,0.5,0.5h0.6v1.7h-5.2v-1.7h1v-7.6h0
						l-2.6,9.3h-2l-2.5-9.3h0v7.6h1.1v1.7h-4.4v-1.7h0.6c0.2,0,0.5-0.3,0.5-0.5v-7.2c0-0.2-0.2-0.5-0.5-0.5h-0.6v-1.7h5.5l1.8,6.7h0
						l1.8-6.7h5.5V845.9L-396.7,845.9z"/>
				</g>
			</g>
		</g>
	</g>
</g>
</svg>
