<?xml version="1.0" encoding="UTF-8" standalone="no"?>
<svg width="60px" height="330px" viewBox="0 0 60 330" version="1.1" xmlns="http://www.w3.org/2000/svg" xmlns:xlink="http://www.w3.org/1999/xlink" xmlns:sketch="http://www.bohemiancoding.com/sketch/ns">
    <!-- Generator: Sketch 3.3.3 (12072) - http://www.bohemiancoding.com/sketch -->
    <title>Untitled 2</title>
    <desc>Created with Sketch.</desc>
    <defs></defs>
    <g id="Page-1" stroke="none" stroke-width="1" fill="none" fill-rule="evenodd" sketch:type="MSPage">
        <g id="social_icons_dark" sketch:type="MSLayerGroup">
            <g id="Page-1" sketch:type="MSShapeGroup">
                <g id="social_icons_dark">
                    <g id="Group">
                        <path d="M15,90 C23.3,90 30,83.3 30,75 C30,66.7 23.3,60 15,60 C6.7,60 0,66.7 0,75 C0,83.3 6.7,90 15,90" id="Shape" fill="#4B4B4B"></path>
                        <path d="M15,67.5 C10.9,67.5 7.5,70.9 7.5,75 C7.5,78.1 9.3,80.7 12,81.9 C12,81.4 12,80.7 12.1,80.2 C12.2,79.6 13.1,76.1 13.1,76.1 C13.1,76.1 12.9,75.6 12.9,74.9 C12.9,73.8 13.5,73 14.3,73 C15,73 15.3,73.5 15.3,74.1 C15.3,74.8 14.9,75.8 14.6,76.8 C14.4,77.6 15,78.2 15.8,78.2 C17.2,78.2 18.2,76.4 18.2,74.2 C18.2,72.6 17.1,71.3 15.1,71.3 C12.8,71.3 11.4,73 11.4,74.9 C11.4,75.6 11.6,76 11.9,76.4 C12,76.6 12.1,76.6 12,76.8 C12,76.9 11.9,77.3 11.8,77.4 C11.7,77.6 11.6,77.7 11.4,77.6 C10.4,77.2 9.9,76 9.9,74.7 C9.9,72.6 11.7,70 15.3,70 C18.2,70 20.1,72.1 20.1,74.3 C20.1,77.2 18.5,79.4 16.1,79.4 C15.3,79.4 14.5,79 14.3,78.5 C14.3,78.5 13.9,80.2 13.8,80.6 C13.6,81.2 13.3,81.8 13,82.2 C13.7,82.4 14.4,82.5 15.1,82.5 C19.2,82.5 22.6,79.1 22.6,75 C22.6,70.9 19.1,67.5 15,67.5" id="Shape" fill="#6F6F6E"></path>
                        <path d="M15,120 C23.3,120 30,113.3 30,105 C30,96.7 23.3,90 15,90 C6.7,90 0,96.7 0,105 C0,113.3 6.7,120 15,120" id="Shape" fill="#4B4B4B"></path>
                        <path d="M11.4,103 L13,103 L13,101 C13,100.3 13,99.3 13.5,98.7 C14,98 14.7,97.6 15.9,97.6 C17.9,97.6 18.7,97.9 18.7,97.9 L18.3,100.2 C18.3,100.2 17.7,100 17.1,100 C16.5,100 16,100.2 16,100.8 L16,103 L18.5,103 L18.3,105 L16,105 L16,113 L13,113 L13,105 L11.5,105 L11.4,103 L11.4,103 Z" id="Shape" fill="#6F6F6E"></path>
                        <path d="M15,240 C23.3,240 30,233.3 30,225 C30,216.7 23.3,210 15,210 C6.7,210 0,216.7 0,225 C0,233.3 6.7,240 15,240" id="Shape" fill="#4B4B4B"></path>
                        <path d="M17.9,225 L13,227.9 L13,222.1 L17.9,225 L17.9,225 Z M22,228 L22,222.3 C22,222.3 22.5,220 19.9,220 L10.1,220 C10.1,220 7,219.7 7,222.3 L7,227.7 C7,227.7 7.5,230 10.1,230 L19.9,230 C19.9,230 22,230.3 22,227.7 L22,228 L22,228 Z" id="Shape" fill="#6F6F6E"></path>
                        <path d="M15,270 C23.3,270 30,263.3 30,255 C30,246.7 23.3,240 15,240 C6.7,240 0,246.7 0,255 C0,263.3 6.7,270 15,270" id="Shape" fill="#4B4B4B"></path>
                        <path d="M14.4,251.1 C14.7,251.5 14.8,252 14.8,252.5 C14.8,253.1 14.7,253.5 14.4,253.9 C14.2,254.1 14,254.3 13.7,254.4 C14.2,254.6 14.5,254.8 14.8,255.2 C15.1,255.6 15.2,256 15.2,256.6 C15.2,257.1 15.1,257.6 14.8,258.1 C14.6,258.4 14.4,258.6 14.1,258.8 C13.8,259 13.5,259.5 13.1,259.6 C12.7,259.7 12.3,260 11.8,260 L8,260 L8,250 L12.1,250 C13.1,250 13.9,250.5 14.4,251.1 L14.4,251.1 L14.4,251.1 Z M9,252 L9,254 L11.6,254 C12,254 12.3,253.8 12.6,253.7 C12.8,253.5 13,253.3 13,252.9 C13,252.5 12.8,252.3 12.5,252.1 C12.2,252 11.8,252.1 11.4,252.1 L9,252.1 L9,252 L9,252 Z M9,255.4 L9,258 L11.5,258 C11.9,258 12.2,257.8 12.4,257.7 C12.8,257.5 13,257.1 13,256.5 C13,256 12.8,255.7 12.4,255.5 C12.2,255.4 11.7,255.3 11.3,255.3 L9,255.4 L9,255.4 Z M20.7,252.8 C21.2,253 21.6,253.4 21.9,253.8 C22.2,254.2 22.4,254.9 22.4,255.4 C22.4,255.7 22.5,256 22.5,257 L17.5,257 C17.5,257 17.8,258 18.2,258.2 C18.5,258.4 18.8,258.4 19.2,258.4 C19.6,258.4 19.9,258.5 20.2,258.3 C20.3,258.2 20.5,258 20.6,258 L22.4,258 C22.4,258 22.1,258.5 21.7,258.9 C21.1,259.6 20.2,259.8 19.1,259.8 C18.2,259.8 17.4,259.4 16.7,258.9 C16,258.3 15.7,257.4 15.7,256.2 C15.7,255 16,254.1 16.6,253.5 C17.2,252.9 18,252.5 19.1,252.5 C19.7,252.4 20.2,252.6 20.7,252.8 L20.7,252.8 L20.7,252.8 Z M18,254.1 C17.7,254.4 17.6,255 17.5,255 L20.6,255 C20.6,255 20.4,254.4 20.1,254.1 C19.8,253.9 19.5,253.7 19,253.7 C18.6,253.7 18.3,253.9 18,254.1 L18,254.1 L18,254.1 Z M21,251 L17,251 L17,252 L21,252 L21,251 L21,251 Z" id="Shape" fill="#6F6F6E"></path>
                        <path d="M15,300 C23.3,300 30,293.3 30,285 C30,276.7 23.3,270 15,270 C6.7,270 0,276.7 0,285 C0,293.3 6.7,300 15,300" id="Shape" fill="#4B4B4B"></path>
                        <path d="M22.5,281.8 C22.4,283.3 21.4,285.3 19.4,287.8 C17.4,290.4 15.6,291.8 14.2,291.8 C13.3,291.8 12.6,291 12,289.4 C11.6,287.9 11.2,286.4 10.8,285 C10.4,283.4 9.9,282.6 9.4,282.6 C9.3,282.6 8.9,282.8 8.2,283.3 L7.5,282.4 C8.2,281.8 9,281.1 9.7,280.5 C10.7,279.6 11.4,279.2 11.9,279.2 C13.1,279.1 13.8,279.9 14.1,281.6 C14.4,283.4 14.6,284.6 14.7,285 C15,286.5 15.4,287.3 15.8,287.3 C16.1,287.3 16.6,286.8 17.2,285.8 C17.8,284.8 18.2,284.1 18.2,283.5 C18.3,282.6 18,282.2 17.2,282.2 C16.8,282.2 16.5,282.3 16.1,282.4 C16.8,280 18.3,278.8 20.3,278.9 C21.9,278.9 22.6,279.9 22.5,281.8 L22.5,281.8 L22.5,281.8 Z" id="Shape" fill="#6F6F6E"></path>
                        <path d="M15,60 C23.3,60 30,53.3 30,45 C30,36.7 23.3,30 15,30 C6.7,30 0,36.7 0,45 C0,53.3 6.7,60 15,60" id="Shape" fill="#4B4B4B"></path>
                        <path d="M11,51 L8,51 L8,42 L11,42 L11,51 L11,51 Z M9.3,40.8 L9.3,40.8 C8.2,40.8 7.5,40.1 7.5,39.2 C7.5,38.3 8.2,37.6 9.3,37.6 C10.4,37.6 11,38.3 11.1,39.2 C11,40 10.4,40.8 9.3,40.8 L9.3,40.8 L9.3,40.8 Z M22.5,51 L19,51 L19,46.5 C19,45.2 18.6,44.4 17.4,44.4 C16.5,44.4 16.2,45 15.9,45.5 C15.8,45.7 15.9,46 15.9,46.3 L15.9,51 L11.9,51 L11.9,42 L15.9,42 L15.9,43.5 C15.9,42.9 17,41.9 18.7,41.9 C20.8,41.9 22.4,43 22.4,45.9 C22.5,46 22.5,51 22.5,51 L22.5,51 L22.5,51 Z" id="Shape" fill="#6F6F6E"></path>
                        <path d="M15,210 C23.3,210 30,203.3 30,195 C30,186.7 23.3,180 15,180 C6.7,180 0,186.7 0,195 C0,203.3 6.7,210 15,210" id="Shape" fill="#4B4B4B"></path>
                        <path d="M22.3,193.5 C22.2,193 22.1,192.5 21.9,192.1 C21.7,191.7 21.5,191.2 21.2,190.8 C20.9,190.4 20.6,190 20.3,189.7 C20,189.4 19.6,189.1 19.2,188.8 C18.8,188.5 18.4,188.3 17.9,188.1 C17.4,187.9 17,187.8 16.5,187.7 C16,187.6 15.5,187.5 15,187.5 C14.5,187.5 14,187.6 13.5,187.7 C13,187.8 12.5,187.9 12.1,188.1 C11.7,188.3 11.2,188.5 10.8,188.8 C10.4,189.1 10,189.4 9.7,189.7 C9.4,190 9.1,190.4 8.8,190.8 C8.5,191.2 8.3,191.6 8.1,192.1 C7.9,192.6 7.8,193 7.7,193.5 C7.6,194 7.5,194.5 7.5,195 C7.5,195.5 7.6,196 7.7,196.5 C7.8,197 7.9,197.5 8.1,197.9 C8.3,198.3 8.5,198.8 8.8,199.2 C9.1,199.6 9.4,200 9.7,200.3 C10,200.6 10.4,200.9 10.8,201.2 C11.2,201.5 11.6,201.7 12.1,201.9 C12.6,202.1 13,202.2 13.5,202.3 C14,202.4 14.5,202.5 15,202.5 C15.5,202.5 16,202.4 16.5,202.3 C17,202.2 17.5,202.1 17.9,201.9 C18.3,201.7 18.8,201.5 19.2,201.2 C19.6,200.9 20,200.6 20.3,200.3 C20.6,200 20.9,199.6 21.2,199.2 C21.5,198.8 21.7,198.4 21.9,197.9 C22.1,197.4 22.2,197 22.3,196.5 C22.4,196 22.5,195.5 22.5,195 C22.5,194.5 22.4,194 22.3,193.5 L22.3,193.5 L22.3,193.5 Z M21.4,195 C21.3,195 19.1,194.5 16.9,194.8 C16.9,194.7 16.8,194.6 16.8,194.5 C16.7,194.2 16.5,193.9 16.4,193.6 C18.9,192.6 20,191.1 20,191.1 C20.8,192 21.4,193.4 21.4,195 L21.4,195 L21.4,195 Z M19.2,190.2 C19.2,190.2 18.3,191.6 15.9,192.5 C14.8,190.5 13.6,188.9 13.5,188.8 C14,188.7 14.5,188.6 15,188.6 C16.6,188.6 18.1,189.2 19.2,190.2 L19.2,190.2 L19.2,190.2 Z M12.3,189.2 C12.4,189.3 13.6,190.9 14.7,192.9 C11.6,193.7 9,193.7 8.8,193.7 C9.1,191.7 10.5,190.1 12.3,189.2 L12.3,189.2 L12.3,189.2 Z M9,195 L9,194.8 C9,194.8 12.1,194.9 15.4,193.9 C15.6,194.3 15.7,194.6 15.8,195 C15.7,195 15.6,195 15.5,195.1 C12,196.2 10.5,199.3 10.5,199.3 L10.5,199.3 C9.4,198.2 9,196.7 9,195 L9,195 L9,195 Z M15,201.4 C13.5,201.4 12,200.8 10.9,199.9 L11,200 C11,200 12.2,197.3 16,196 L16,196 C16.9,198.3 17.3,200.3 17.4,200.9 C16.7,201.2 15.9,201.4 15,201.4 L15,201.4 L15,201.4 Z M18.6,200.3 C18.5,199.9 18.2,198 17.4,195.7 C19.5,195.4 21.3,195.9 21.4,196 C21,197.8 20,199.4 18.6,200.3 L18.6,200.3 L18.6,200.3 Z" id="Shape" fill="#6F6F6E"></path>
                        <path d="M15,330 C23.3,330 30,323.3 30,315 C30,306.7 23.3,300 15,300 C6.7,300 0,306.7 0,315 C0,323.3 6.7,330 15,330" id="Shape" fill="#4B4B4B"></path>
                        <path d="M19.6,308 L10.4,308 C8.8,308 7,308.8 7,310.4 L7,313.5 L7,319.6 C7,321.2 8.8,323 10.4,323 L19.6,323 C21.2,323 22,321.2 22,319.6 L22,313.5 L22,310.4 C22,308.8 21.2,308 19.6,308 L19.6,308 L19.6,308 Z M20.4,309 L21,309 L21,309.5 L21,312 L18,312 L18,309 L20.4,309 L20.4,309 Z M12.9,313.4 C13.4,312.7 14.2,312.3 15,312.3 C15.9,312.3 16.7,312.7 17.1,313.4 C17.4,313.8 17.6,314.4 17.6,314.9 C17.6,316.4 16.4,317.5 15,317.5 C13.5,317.5 12.4,316.3 12.4,314.9 C12.4,314.4 12.5,313.9 12.9,313.4 L12.9,313.4 L12.9,313.4 Z M21,319.6 C21,320.4 20.4,321 19.6,321 L10.4,321 C9.6,321 9,320.4 9,319.6 L9,314 L11.2,314 C11,314 10.9,314.8 10.9,315.2 C10.9,317.5 12.7,319.2 15,319.2 C17.3,319.2 19.1,317.6 19.1,315.3 C19.1,314.8 19,314 18.8,314 L21,314 L21,319.6 L21,319.6 Z" id="Shape" fill="#6F6F6E"></path>
                        <path d="M30,135 C30,126.7 23.3,120 15,120 C6.7,120 0,126.7 0,135 C0,143.3 6.7,150 15,150 C23.3,150 30,143.3 30,135 L30,135 L30,135 Z" id="Shape_148_" fill="#4B4B4B"></path>
                        <path d="M7,139.3 C7.5,140.2 8.2,140.9 9.1,141.3 C10.1,141.8 11.1,141.9 12.1,141.9 C12.9,142 13.9,142 15.1,142 L16.8,142 C18.1,142 19.3,141.9 20.3,141.4 C21.5,140.9 22.4,140.2 22.8,139.2 C23.2,138.3 23.4,137.2 23.4,135.8 C23.4,134.2 22.9,132.8 22,131.7 C22.2,131.2 22.3,130.6 22.3,130 C22.3,129.2 22.1,128.5 21.8,127.8 C21.1,127.8 20.5,127.9 19.9,128.2 C19.3,128.5 18.7,128.9 17.9,129.5 C17,129.3 16,129.2 15,129.2 C13.9,129.2 12.8,129.3 11.8,129.6 C11,129 10.3,128.6 9.8,128.3 C9.2,128.1 8.6,127.9 7.9,127.9 C7.5,128.6 7.4,129.4 7.4,130.1 C7.4,130.6 7.5,131.2 7.7,131.9 C6.8,133 6.3,134.3 6.3,136 C6.3,137.3 6.5,138.4 7,139.3 L7,139.3 L7,139.3 Z M8.6,137.7 C8.6,136.8 8.8,136.1 9.3,135.6 C9.8,135.1 10.4,134.7 11.2,134.7 C11.5,134.7 12.2,134.8 13.2,134.9 C13.6,135 14.2,135 14.8,135 C15.4,135 16,135 16.4,134.9 C17.5,134.7 18.1,134.7 18.4,134.7 C19.2,134.7 19.8,135 20.3,135.6 C20.8,136.2 21,136.9 21,137.7 C21,138.3 20.9,138.8 20.7,139.3 C20.3,140.1 19.6,140.5 18.6,140.8 C17.8,141 16.8,141 15.6,141 L13.9,141 C13.3,141 12.8,141.2 12.4,141.1 C11.2,141 10.3,140.8 9.7,140.3 C9,139.7 8.6,138.9 8.6,137.7 L8.6,137.7 L8.6,137.7 Z M10.3,137.7 C10.3,138 10.3,138.3 10.4,138.5 C10.5,138.8 10.6,139.1 10.9,139.3 C11.2,139.5 11.4,139.6 11.6,139.6 C11.9,139.6 12.1,139.5 12.4,139.3 C12.8,138.9 13,138.3 13,137.7 C13,137.4 13,137.1 12.9,136.8 C12.8,136.5 12.7,136.2 12.4,136 C12.2,135.8 11.9,135.7 11.7,135.7 C11.4,135.7 11.2,135.8 10.9,136 C10.5,136.5 10.3,137.1 10.3,137.7 L10.3,137.7 L10.3,137.7 Z M16.9,137.7 C16.9,138 16.9,138.3 17,138.5 C17.1,138.8 17.2,139.1 17.4,139.3 C17.6,139.5 17.9,139.6 18.1,139.6 C18.4,139.6 18.7,139.5 18.9,139.3 C19.3,138.9 19.4,138.3 19.4,137.7 C19.4,137.4 19.4,137.1 19.3,136.8 C19.2,136.5 19.1,136.2 18.8,136 C18.5,135.8 18.3,135.7 18,135.7 C17.7,135.7 17.5,135.8 17.3,136 C17.1,136.5 16.9,137 16.9,137.7 L16.9,137.7 L16.9,137.7 Z" id="Shape-Copy-2" fill="#6F6F6E"></path>
                        <path d="M30,165 C30,156.7 23.3,150 15,150 C6.7,150 0,156.7 0,165 C0,173.3 6.7,180 15,180 C23.3,180 30,173.3 30,165 L30,165 L30,165 Z" id="Shape_1_" fill="#4B4B4B"></path>
                        <g id="Medium" transform="translate(8.000000, 159.000000)">
                            <path d="M9.46082474,0.0179760956 C9.38981443,-0.0173067729 9.33169759,0.0183585657 9.33169759,0.0972430279 L9.33169759,9.79840637 L13.6063643,11.9223586 C13.8193952,12.0282072 13.9936495,11.9211633 13.9936495,11.68451 L13.9936495,2.34611952 C13.9936495,2.29960159 13.967189,2.25705179 13.9253333,2.23620717 L9.46082474,0.0179760956" id="Fill-1" fill="#FFFFFF"></path>
                            <path d="M4.67032302,7.48513147 L9.25659794,0.0790756972 C9.29821306,0.0118565737 9.39034364,-0.014247012 9.46135395,0.0210358566 L13.891512,2.22229482 C13.9466942,2.24968924 13.9663711,2.3181992 13.9340412,2.37040637 L9.3322268,9.80151394 L4.67032302,7.48513147" id="Fill-2" fill="#E5E6E7"></path>
                            <path d="M0.524735395,0.213466135 C0.240742268,0.0723824701 0.144522337,0.176796813 0.310934708,0.44552988 L4.67032302,7.48513147 L9.3322268,9.80151394 L4.70043986,2.3219761 C4.68076289,2.29013546 4.65247423,2.26446215 4.61884536,2.24772908 L0.524735395,0.213466135" id="Fill-3" fill="#ABACAD"></path>
                            <path d="M4.67032302,11.6876175 C4.67032302,11.9242709 4.49602062,12.0312669 4.2830378,11.9254661 L0.26652921,9.92978486 C0.124556701,9.85921912 0.00837113402,9.67243028 0.00837113402,9.51466135 L0.00837113402,0.243776892 C0.00837113402,0.0860079681 0.124556701,0.0146294821 0.26652921,0.0851952191 L4.61283162,2.24471713 C4.64804811,2.26221514 4.67032302,2.2980239 4.67032302,2.33713147 L4.67032302,11.6876175" id="Fill-4" fill="#8A8B8C"></path>
                        </g>
                        <path d="M15,30 C23.3,30 30,23.3 30,15 C30,6.7 23.3,0 15,0 C6.7,0 0,6.7 0,15 C0,23.3 6.7,30 15,30" id="Shape" fill="#4B4B4B"></path>
                        <path d="M22.5,11.1 C21.9,11.3 21.4,11.5 20.7,11.6 C21.3,11.2 21.8,10.6 22.1,9.9 C21.5,10.3 20.8,10.5 20.1,10.6 C19.5,10 18.7,9.6 17.9,9.6 C16.2,9.6 14.8,11 14.8,12.7 C14.8,12.9 14.8,13.2 14.9,13.4 C12.3,13.3 10.1,12 8.5,10.2 C8.2,10.7 8.1,11.2 8.1,11.8 C8.1,12.9 8.6,13.8 9.5,14.4 C9,14.4 8.5,14.2 8.1,14 L8.1,14 C8.1,15.5 9.2,16.7 10.6,17 C10.3,17.1 10.1,17.1 9.8,17.1 C9.6,17.1 9.4,17.1 9.2,17 C9.6,18.2 10.7,18.9 12.1,18.9 C11,19.7 9.7,20 8.3,20 L7.6,20 C9,21 10.6,21.6 12.3,21.6 C18,21.6 21.1,17.1 21.1,13 L21.1,12.6 C22,12.2 22,11.7 22.5,11.1" id="Shape" fill="#6F6F6E"></path>
                    </g>
                    <g id="Group" transform="translate(30.000000, 0.000000)">
                        <g id="Shape" transform="translate(0.000000, 60.000000)">
                            <path d="M15,30 C23.3,30 30,23.3 30,15 C30,6.7 23.3,0 15,0 C6.7,0 0,6.7 0,15 C0,23.3 6.7,30 15,30" fill="#E95655"></path>
                            <path d="M15,7.5 C10.9,7.5 7.5,10.9 7.5,15 C7.5,18.1 9.3,20.7 12,21.9 C12,21.4 12,20.7 12.1,20.2 C12.2,19.6 13.1,16.1 13.1,16.1 C13.1,16.1 12.9,15.6 12.9,14.9 C12.9,13.8 13.5,13 14.3,13 C15,13 15.3,13.5 15.3,14.1 C15.3,14.8 14.9,15.8 14.6,16.8 C14.4,17.6 15,18.2 15.8,18.2 C17.2,18.2 18.2,16.4 18.2,14.2 C18.2,12.6 17.1,11.3 15.1,11.3 C12.8,11.3 11.4,13 11.4,14.9 C11.4,15.6 11.6,16 11.9,16.4 C12,16.6 12.1,16.6 12,16.8 C12,16.9 11.9,17.3 11.8,17.4 C11.8,17.6 11.6,17.7 11.4,17.6 C10.4,17.2 9.9,16 9.9,14.7 C9.9,12.6 11.7,10 15.3,10 C18.2,10 20.1,12.1 20.1,14.3 C20.1,17.2 18.5,19.4 16.1,19.4 C15.3,19.4 14.5,19 14.3,18.5 C14.3,18.5 13.9,20.2 13.8,20.6 C13.6,21.2 13.3,21.8 13,22.2 C13.7,22.4 14.4,22.5 15.1,22.5 C19.2,22.5 22.6,19.1 22.6,15 C22.5,10.8 19.1,7.5 15,7.5" fill="#FFFFFF"></path>
                        </g>
                        <g id="Shape" transform="translate(0.000000, 90.000000)">
                            <path d="M15,30 C23.3,30 30,23.3 30,15 C30,6.7 23.3,0 15,0 C6.7,0 0,6.7 0,15 C0,23.3 6.7,30 15,30" fill="#547BBC"></path>
                            <path d="M11.4,13 L13,13 L13,11 C13,10.3 13,9.3 13.5,8.7 C14,8 14.7,7.6 15.9,7.6 C17.9,7.6 18.7,7.9 18.7,7.9 L18.3,10.2 C18.3,10.2 17.7,10 17.1,10 C16.5,10 16,10.2 16,10.8 L16,13 L18.5,13 L18.3,15 L16,15 L16,23 L13,23 L13,15 L11.5,15 L11.4,13 L11.4,13 Z" fill="#FFFFFF"></path>
                        </g>
                        <g id="Shape" transform="translate(0.000000, 210.000000)">
                            <path d="M15,30 C23.3,30 30,23.3 30,15 C30,6.7 23.3,0 15,0 C6.7,0 0,6.7 0,15 C0,23.3 6.7,30 15,30" fill="#E9644A"></path>
                            <path d="M17.9,15 L13,17.9 L13,12.1 L17.9,15 L17.9,15 Z M22,18 L22,12.3 C22,12.3 22.5,10 19.9,10 L10.1,10 C10.1,10 7,9.7 7,12.3 L7,17.7 C7,17.7 7.5,20 10.1,20 L19.9,20 C19.9,20 22,20.3 22,17.7 L22,18 L22,18 Z" fill="#FFFFFF"></path>
                        </g>
                        <g id="Shape" transform="translate(0.000000, 240.000000)">
                            <path d="M15,30 C23.3,30 30,23.3 30,15 C30,6.7 23.3,0 15,0 C6.7,0 0,6.7 0,15 C0,23.2 6.7,30 15,30" fill="#40BFEF"></path>
                            <path d="M14.4,11.1 C14.7,11.5 14.8,12 14.8,12.5 C14.8,13.1 14.7,13.5 14.4,13.9 C14.2,14.1 14,14.3 13.7,14.4 C14.2,14.6 14.5,14.8 14.8,15.2 C15,15.6 15.2,16 15.2,16.6 C15.2,17.1 15.1,17.6 14.8,18.1 C14.6,18.4 14.4,18.6 14.1,18.8 C13.8,19 13.5,19.5 13.1,19.6 C12.7,19.7 12.3,20 11.8,20 L8,20 L8,10 L12.1,10 C13.1,10 13.9,10.5 14.4,11.1 L14.4,11.1 L14.4,11.1 Z M9,12 L9,14 L11.7,14 C12.1,14 12.4,13.8 12.7,13.7 C12.9,13.5 13.1,13.3 13.1,12.9 C13.1,12.5 12.9,12.3 12.6,12.1 C12.3,12 11.9,12.1 11.5,12.1 L9,12.1 L9,12 L9,12 Z M9,15.4 L9,18 L11.6,18 C12,18 12.3,17.8 12.5,17.7 C12.9,17.5 13.1,17.1 13.1,16.5 C13.1,16 12.9,15.7 12.5,15.5 C12.3,15.4 11.8,15.3 11.4,15.3 L9,15.4 L9,15.4 Z M20.7,12.8 C21.2,13 21.6,13.4 21.9,13.8 C22.2,14.2 22.4,14.9 22.4,15.4 C22.4,15.7 22.5,16 22.5,17 L17.5,17 C17.5,17 17.8,18 18.2,18.2 C18.5,18.4 18.8,18.4 19.2,18.4 C19.6,18.4 19.9,18.5 20.2,18.3 C20.3,18.2 20.5,18 20.6,18 L22.4,18 C22.4,18 22.1,18.5 21.7,18.9 C21.1,19.6 20.2,19.8 19.1,19.8 C18.2,19.8 17.4,19.4 16.7,18.9 C16,18.3 15.7,17.4 15.7,16.2 C15.7,15 16,14.1 16.6,13.5 C17.2,12.9 18,12.5 19.1,12.5 C19.7,12.4 20.2,12.6 20.7,12.8 L20.7,12.8 L20.7,12.8 Z M18,14.1 C17.7,14.4 17.6,15 17.5,15 L20.6,15 C20.6,15 20.4,14.4 20.1,14.1 C19.8,13.9 19.5,13.7 19,13.7 C18.6,13.7 18.3,13.9 18,14.1 L18,14.1 L18,14.1 Z M21,11 L17,11 L17,12 L21,12 L21,11 L21,11 Z" fill="#FFFFFF"></path>
                        </g>
                        <g id="Shape" transform="translate(0.000000, 270.000000)">
                            <path d="M15,30 C23.3,30 30,23.3 30,15 C30,6.7 23.3,0 15,0 C6.7,0 0,6.7 0,15 C0,23.3 6.7,30 15,30" fill="#8CCFDD"></path>
                            <path d="M22.5,11.8 C22.4,13.3 21.4,15.3 19.4,17.8 C17.4,20.4 15.6,21.8 14.2,21.8 C13.3,21.8 12.6,21 12,19.4 C11.6,17.9 11.2,16.4 10.8,15 C10.4,13.4 9.9,12.6 9.4,12.6 C9.3,12.6 8.9,12.8 8.2,13.3 L7.5,12.4 C8.2,11.8 9,11.1 9.7,10.5 C10.7,9.6 11.4,9.2 11.9,9.2 C13.1,9.1 13.8,9.9 14.1,11.6 C14.4,13.4 14.6,14.6 14.7,15 C15,16.5 15.4,17.3 15.8,17.3 C16.1,17.3 16.6,16.8 17.2,15.8 C17.8,14.8 18.2,14.1 18.2,13.5 C18.3,12.6 18,12.2 17.2,12.2 C16.8,12.2 16.5,12.3 16.1,12.4 C16.8,10 18.3,8.8 20.3,8.9 C21.9,8.9 22.6,9.9 22.5,11.8 L22.5,11.8 L22.5,11.8 Z" fill="#FFFFFF"></path>
                        </g>
                        <g id="Shape" transform="translate(0.000000, 30.000000)">
                            <path d="M15,30 C23.3,30 30,23.3 30,15 C30,6.7 23.3,0 15,0 C6.7,0 0,6.7 0,15 C0,23.3 6.7,30 15,30" fill="#1384C7"></path>
                            <path d="M11,21 L8,21 L8,12 L11,12 L11,21 L11,21 Z M9.3,10.8 L9.3,10.8 C8.2,10.8 7.5,10.1 7.5,9.2 C7.5,8.3 8.2,7.6 9.3,7.6 C10.4,7.6 11,8.3 11.1,9.2 C11,10 10.4,10.8 9.3,10.8 L9.3,10.8 L9.3,10.8 Z M22.5,21 L19,21 L19,16.5 C19,15.2 18.6,14.4 17.4,14.4 C16.5,14.4 16.2,15 16,15.5 C15.9,15.7 16,16 16,16.3 L16,21 L12,21 L12,12 L16,12 L16,13.5 C16,12.9 17.1,11.9 18.8,11.9 C20.9,11.9 22.5,13 22.5,15.9 L22.5,21 L22.5,21 Z" fill="#FFFFFF"></path>
                        </g>
                        <g id="Shape" transform="translate(0.000000, 180.000000)">
                            <path d="M15,30 C23.3,30 30,23.3 30,15 C30,6.7 23.3,0 15,0 C6.7,0 0,6.7 0,15 C0,23.3 6.7,30 15,30" fill="#D87DA5"></path>
                            <path d="M22.3,13.5 C22.2,13 22.1,12.5 21.9,12.1 C21.7,11.7 21.5,11.2 21.2,10.8 C20.9,10.4 20.6,10 20.3,9.7 C20,9.4 19.6,9.1 19.2,8.8 C18.8,8.5 18.4,8.3 17.9,8.1 C17.4,7.9 17,7.8 16.5,7.7 C16,7.6 15.5,7.5 15,7.5 C14.5,7.5 14,7.6 13.5,7.7 C13,7.8 12.5,7.9 12.1,8.1 C11.7,8.3 11.2,8.5 10.8,8.8 C10.4,9.1 10,9.4 9.7,9.7 C9.4,10 9.1,10.4 8.8,10.8 C8.5,11.2 8.3,11.6 8.1,12.1 C7.9,12.6 7.8,13 7.7,13.5 C7.6,14 7.5,14.5 7.5,15 C7.5,15.5 7.6,16 7.7,16.5 C7.8,17 7.9,17.5 8.1,17.9 C8.3,18.3 8.5,18.8 8.8,19.2 C9.1,19.6 9.4,20 9.7,20.3 C10,20.6 10.4,20.9 10.8,21.2 C11.2,21.5 11.6,21.7 12.1,21.9 C12.6,22.1 13,22.2 13.5,22.3 C14,22.4 14.5,22.5 15,22.5 C15.5,22.5 16,22.4 16.5,22.3 C17,22.2 17.5,22.1 17.9,21.9 C18.3,21.7 18.8,21.5 19.2,21.2 C19.6,20.9 20,20.6 20.3,20.3 C20.6,20 20.9,19.6 21.2,19.2 C21.5,18.8 21.7,18.4 21.9,17.9 C22.1,17.4 22.2,17 22.3,16.5 C22.4,16 22.5,15.5 22.5,15 C22.5,14.5 22.4,14 22.3,13.5 L22.3,13.5 L22.3,13.5 Z M21.4,15 C21.3,15 19.1,14.5 16.9,14.8 C16.9,14.7 16.8,14.6 16.8,14.5 C16.7,14.2 16.5,13.9 16.4,13.6 C18.9,12.6 20,11.1 20,11.1 C20.8,12 21.4,13.4 21.4,15 L21.4,15 L21.4,15 Z M19.2,10.2 C19.2,10.2 18.3,11.6 15.9,12.5 C14.8,10.5 13.6,8.9 13.5,8.8 C14,8.7 14.5,8.6 15,8.6 C16.6,8.6 18.1,9.2 19.2,10.2 L19.2,10.2 L19.2,10.2 Z M12.3,9.2 C12.4,9.3 13.6,10.9 14.7,12.9 C11.6,13.7 9,13.7 8.8,13.7 C9.1,11.7 10.5,10.1 12.3,9.2 L12.3,9.2 L12.3,9.2 Z M9,15 L9,14.8 C9,14.8 12.1,14.9 15.4,13.9 C15.6,14.3 15.7,14.6 15.8,15 C15.7,15 15.5,15 15.4,15.1 C11.9,16.2 10.4,19.3 10.4,19.3 L10.4,19.3 C9.4,18.2 9,16.7 9,15 L9,15 L9,15 Z M15,21.4 C13.4,21.4 12,20.8 10.9,19.9 L11,20 C11,20 12.2,17.3 16,16 L16,16 C16.9,18.3 17.3,20.3 17.4,20.9 C16.7,21.2 15.9,21.4 15,21.4 L15,21.4 L15,21.4 Z M18.6,20.3 C18.5,19.9 18.2,18 17.4,15.7 C19.5,15.4 21.3,15.9 21.4,16 C21,17.8 20,19.4 18.6,20.3 L18.6,20.3 L18.6,20.3 Z" fill="#FFFFFF"></path>
                        </g>
                        <g id="Shape" transform="translate(0.000000, 300.000000)">
                            <path d="M15,30 C23.3,30 30,23.3 30,15 C30,6.7 23.3,0 15,0 C6.7,0 0,6.7 0,15 C0,23.3 6.7,30 15,30" fill="#696969"></path>
                            <path d="M19.6,8 L10.4,8 C8.8,8 7,8.8 7,10.4 L7,13.5 L7,19.6 C7,21.2 8.8,23 10.4,23 L19.6,23 C21.2,23 22,21.2 22,19.6 L22,13.5 L22,10.4 C22,8.8 21.2,8 19.6,8 L19.6,8 L19.6,8 Z M20.4,9 L21,9 L21,9.5 L21,12 L18,12 L18,9 L20.4,9 L20.4,9 Z M12.9,13.4 C13.4,12.7 14.2,12.3 15,12.3 C15.9,12.3 16.7,12.7 17.1,13.4 C17.4,13.8 17.6,14.4 17.6,14.9 C17.6,16.4 16.4,17.5 15,17.5 C13.5,17.5 12.4,16.3 12.4,14.9 C12.4,14.4 12.5,13.9 12.9,13.4 L12.9,13.4 L12.9,13.4 Z M21,19.6 C21,20.4 20.4,21 19.6,21 L10.4,21 C9.6,21 9,20.4 9,19.6 L9,14 L11.2,14 C11,14 10.9,14.8 10.9,15.2 C10.9,17.5 12.7,19.2 15,19.2 C17.3,19.2 19.1,17.6 19.1,15.3 C19.1,14.8 19,14 18.8,14 L21,14 L21,19.6 L21,19.6 Z" fill="#FFFFFF"></path>
                        </g>
                        <g transform="translate(0.000000, 120.000000)">
                            <path d="M29.5,15.1 C29.5,7.1 23,0.6 15,0.6 C7,0.6 0.5,7.1 0.5,15.1 C0.5,23.1 7,29.6 15,29.6 C23,29.6 29.5,23.1 29.5,15.1 L29.5,15.1 L29.5,15.1 Z" id="Shape_3_" fill="#FFFFFF"></path>
                            <path d="M0,15.1 C0,13.1 0.4,11.1 1.2,9.3 C2,7.4 3.1,5.8 4.4,4.5 C5.7,3.2 7.3,2.1 9.2,1.3 C11.1,0.5 13,0.1 15,0.1 C17,0.1 19,0.5 20.8,1.3 C22.7,2.1 24.3,3.2 25.6,4.5 C26.9,5.8 28,7.4 28.8,9.3 C29.6,11.2 30,13.1 30,15.1 C30,17.1 29.6,19.1 28.8,20.9 C28,22.8 26.9,24.4 25.6,25.7 C24.3,27 22.7,28.1 20.8,28.9 C18.9,29.7 17,30.1 15,30.1 C13,30.1 11,29.7 9.2,28.9 C7.3,28.1 5.7,27 4.4,25.7 C3.1,24.4 2,22.8 1.2,20.9 C0.4,19.1 0,17.1 0,15.1 L0,15.1 L0,15.1 Z M7,19.5 C7.5,20.4 8.2,21.1 9.1,21.5 C10.1,22 11.1,22.5 12.1,22.5 C12.9,22.6 13.9,23 15.1,23 L16.8,23 C18.1,22 19.3,22.5 20.3,22 C21.5,21.5 22.4,20.6 22.8,19.6 C23.2,18.7 23.4,17.5 23.4,16.1 C23.4,14.5 22.9,13.1 22,12 C22.2,11.5 22.3,10.9 22.3,10.3 C22.3,9.5 22.1,8.8 21.8,8.1 C21.1,8.1 20.5,8.2 19.9,8.5 C19.3,8.8 18.7,9.2 17.9,9.8 C17,9.6 16,9.5 15,9.5 C13.9,9.5 12.8,9.6 11.8,9.9 C11,9.3 10.3,8.9 9.8,8.6 C9.2,8.4 8.6,8.2 7.9,8.2 C7.5,8.9 7.4,9.7 7.4,10.4 C7.4,10.9 7.5,11.5 7.7,12.2 C6.8,13.3 6.3,14.6 6.3,16.3 C6.3,17.5 6.5,18.6 7,19.5 L7,19.5 L7,19.5 Z M8.6,17.9 C8.6,17 8.8,16.3 9.3,15.8 C9.8,15.3 10.4,14.9 11.2,14.9 C11.5,14.9 12.2,15 13.2,15.1 C13.6,15.2 14.2,15.2 14.8,15.2 C15.4,15.2 16,15.2 16.4,15.1 C17.5,14.9 18.1,14.9 18.4,14.9 C19.2,14.9 19.8,15.2 20.3,15.8 C20.8,16.4 21,17.1 21,17.9 C21,18.5 20.9,19 20.7,19.5 C20.3,20.3 19.6,21.1 18.6,21.4 C17.8,21.6 16.8,22 15.6,22 L13.9,22 C13.3,22 12.8,21.8 12.4,21.7 C11.2,21.6 10.3,21.2 9.7,20.7 C9,20.1 8.6,19.1 8.6,17.9 L8.6,17.9 L8.6,17.9 Z M10.3,17.9 C10.3,18.2 10.3,18.5 10.4,18.7 C10.5,19 10.6,19.3 10.9,19.5 C11.2,19.7 11.4,19.8 11.6,19.8 C11.9,19.8 12.1,19.7 12.4,19.5 C12.8,19.1 13,18.5 13,17.9 C13,17.6 13,17.3 12.9,17 C12.8,16.7 12.7,16.4 12.4,16.2 C12.2,16 11.9,15.9 11.7,15.9 C11.4,15.9 11.2,16 10.9,16.2 C10.5,16.7 10.3,17.3 10.3,17.9 L10.3,17.9 L10.3,17.9 Z M16.9,17.9 C16.9,18.2 16.9,18.5 17,18.7 C17.1,19 17.2,19.3 17.4,19.5 C17.6,19.7 17.9,19.8 18.1,19.8 C18.4,19.8 18.7,19.7 18.9,19.5 C19.3,19.1 19.4,18.5 19.4,17.9 C19.4,17.6 19.4,17.3 19.3,17 C19.2,16.7 19.1,16.4 18.8,16.2 C18.5,16 18.3,15.9 18,15.9 C17.7,15.9 17.5,16 17.3,16.2 C17.1,16.7 16.9,17.2 16.9,17.9 L16.9,17.9 L16.9,17.9 Z" id="Shape-Copy" fill="#000000"></path>
                        </g>
                        <g transform="translate(0.000000, 150.000000)">
                            <path d="M30,15 C30,6.7 23.3,0 15,0 C6.7,0 0,6.7 0,15 C0,23.3 6.7,30 15,30 C23.3,30 30,23.3 30,15 L30,15 L30,15 Z" id="Shape_2_" fill="#FFFFFF"></path>
                            <g id="Medium-color" transform="translate(8.000000, 8.945946)">
                                <path d="M9.46082474,0.0181380424 C9.38981443,-0.0174626898 9.33169759,0.0185239582 9.33169759,0.0981190912 L9.33169759,9.88668031 L13.6063643,12.0297672 C13.8193952,12.1365694 13.9936495,12.0285612 13.9936495,11.7897758 L13.9936495,2.36725573 C13.9936495,2.32031873 13.967189,2.27738559 13.9253333,2.25635318 L9.46082474,0.0181380424" id="Fill-1" fill="#32FC8D"></path>
                                <path d="M4.67032302,7.55256509 L9.25659794,0.0797880909 C9.29821306,0.0119633897 9.39034364,-0.0143753634 9.46135395,0.0212253688 L13.891512,2.24231549 C13.9466942,2.26995671 13.9663711,2.33908388 13.9340412,2.39176139 L9.3322268,9.88981587 L4.67032302,7.55256509" id="Fill-2" fill="#0BE370"></path>
                                <path d="M0.524735395,0.215389254 C0.240742268,0.0730345644 0.144522337,0.178389577 0.310934708,0.449543663 L4.67032302,7.55256509 L9.3322268,9.88981587 L4.70043986,2.3428948 C4.68076289,2.31076731 4.65247423,2.28486271 4.61884536,2.2679789 L0.524735395,0.215389254" id="Fill-3" fill="#13C767"></path>
                                <path d="M4.67032302,11.7929114 C4.67032302,12.0316968 4.49602062,12.1396567 4.2830378,12.0329028 L0.26652921,10.0192424 C0.124556701,9.94804092 0.00837113402,9.75956929 0.00837113402,9.60037902 L0.00837113402,0.245973081 C0.00837113402,0.0867828147 0.124556701,0.0147612792 0.26652921,0.0859627436 L4.61283162,2.26493981 C4.64804811,2.28259546 4.67032302,2.31872682 4.67032302,2.35818671 L4.67032302,11.7929114" id="Fill-4" fill="#00AB6C"></path>
                            </g>
                        </g>
                        <g id="Shape">
                            <path d="M15,30 C23.3,30 30,23.3 30,15 C30,6.7 23.3,0 15,0 C6.7,0 0,6.7 0,15 C0,23.3 6.7,30 15,30" fill="#78CBEF"></path>
                            <path d="M22.5,11.1 C21.9,11.3 21.4,11.5 20.7,11.6 C21.3,11.2 21.8,10.6 22.1,9.9 C21.5,10.3 20.8,10.5 20.1,10.6 C19.5,10 18.7,9.6 17.9,9.6 C16.2,9.6 14.8,11 14.8,12.7 C14.8,12.9 14.8,13.2 14.9,13.4 C12.3,13.3 10.1,12 8.5,10.2 C8.2,10.7 8.1,11.2 8.1,11.8 C8.1,12.9 8.6,13.8 9.5,14.4 C9,14.4 8.5,14.2 8.1,14 L8.1,14 C8.1,15.5 9.2,16.7 10.6,17 C10.3,17.1 10.1,17.1 9.8,17.1 C9.6,17.1 9.4,17.1 9.2,17 C9.6,18.2 10.7,18.9 12.1,18.9 C11,19.7 9.7,20 8.3,20 L7.6,20 C9,21 10.5,21.6 12.2,21.6 C17.9,21.6 21,17.1 21,13 L21,12.6 C22,12.2 22,11.7 22.5,11.1" fill="#FFFFFF"></path>
                        </g>
                    </g>
                </g>
            </g>
        </g>
    </g>
</svg>