<?xml version="1.0" encoding="utf-8"?>
<!-- Generator: Adobe Illustrator 19.1.0, SVG Export Plug-In . SVG Version: 6.00 Build 0)  -->
<svg version="1.1" id="Capa_1" xmlns="http://www.w3.org/2000/svg" xmlns:xlink="http://www.w3.org/1999/xlink" x="0px" y="0px"
	 viewBox="-449 -260 60 1140.1" style="enable-background:new -449 -260 60 1140.1;" xml:space="preserve">
<style type="text/css">
	.st0{fill:#4B4B4B;}
	.st1{fill:#78CBEF;}
	.st2{fill:#FFFFFF;}
	.st3{fill:#E95655;}
	.st4{fill:#547BBC;}
	.st5{fill:#E9644A;}
	.st6{fill:#7F807E;}
	.st7{fill:#5E8FAE;}
	.st8{fill:#40BFEF;}
	.st9{fill:#8CCFDD;}
	.st10{fill:#E1408F;}
	.st11{fill:#396DB3;}
	.st12{fill:#F29100;}
	.st13{fill:#1384C7;}
	.st14{fill:#FAC766;}
	.st15{fill:#D87DA5;}
	.st16{fill:#1D94D2;}
	.st17{fill:#8C589F;}
	.st18{fill:#ADCE74;}
	.st19{fill:#22B7EB;}
	.st20{fill:#FCC233;}
	.st21{fill:#D5DF80;}
	.st22{fill:#696969;}
	.st23{fill:#4D75B8;}
	.st24{fill:#859563;}
	.st25{fill:#8FD2F0;}
	.st26{fill:#E8476D;}
	.st27{fill:#F2CA59;}
	.st28{fill:#56ACDD;}
	.st29{fill:#282828;}
	.st30{fill:#9ECC91;}
	.st31{fill:#E73B3A;}
	.st32{fill:#B08ABE;}
	.st33{fill:#5168AE;}
	.st34{fill:#6A8751;}
	.st35{fill:#3A4C8E;}
	.st36{fill:#CCCBCB;}
	.st37{fill:#6F6F6E;}
</style>
<path id="Shape_1_" class="st0" d="M-419,865.1c0-8.3-6.7-15-15-15c-8.3,0-15,6.7-15,15c0,8.3,6.7,15,15,15
	C-425.7,880.1-419,873.4-419,865.1z"/>
<g>
	<g>
		<path class="st1" d="M-404-230c8.3,0,15-6.7,15-15c0-8.3-6.7-15-15-15c-8.3,0-15,6.7-15,15C-419-236.7-412.3-230-404-230"/>
		<path class="st2" d="M-396.5-248.9c-0.6,0.2-1.1,0.4-1.8,0.5c0.6-0.4,1.1-1,1.4-1.7c-0.6,0.4-1.3,0.6-2,0.7c-0.6-0.6-1.4-1-2.2-1
			c-1.7,0-3.1,1.4-3.1,3.1c0,0.2,0,0.5,0.1,0.7c-2.6-0.1-4.8-1.4-6.4-3.2c-0.3,0.5-0.4,1-0.4,1.6c0,1.1,0.5,2,1.4,2.6
			c-0.5,0-1-0.2-1.4-0.4v0c0,1.5,1.1,2.7,2.5,3c-0.3,0.1-0.5,0.1-0.8,0.1c-0.2,0-0.4,0-0.6-0.1c0.4,1.2,1.5,2.1,2.9,2.1
			c-1.1,0.8-2.4,1.3-3.8,1.3c-0.2,0-0.5,0-0.7,0c1.4,0.9,3,1.4,4.7,1.4c5.7,0,8.8-4.7,8.8-8.8c0-0.1,0-0.3,0-0.4
			C-397.4-247.8-396.9-248.3-396.5-248.9"/>
	</g>
	<g>
		<path class="st3" d="M-404-140c8.3,0,15-6.7,15-15c0-8.3-6.7-15-15-15c-8.3,0-15,6.7-15,15C-419-146.7-412.3-140-404-140"/>
		<path class="st2" d="M-404-162.5c-4.1,0-7.5,3.4-7.5,7.5c0,3.1,1.8,5.7,4.5,6.9c0-0.5,0-1.2,0.1-1.7c0.1-0.6,1-4.1,1-4.1
			s-0.2-0.5-0.2-1.2c0-1.1,0.6-1.9,1.4-1.9c0.7,0,1,0.5,1,1.1c0,0.7-0.4,1.7-0.7,2.7c-0.2,0.8,0.4,1.4,1.2,1.4c1.4,0,2.4-1.8,2.4-4
			c0-1.6-1.1-2.9-3.1-2.9c-2.3,0-3.7,1.7-3.7,3.6c0,0.7,0.2,1.1,0.5,1.5c0.1,0.2,0.2,0.2,0.1,0.4c0,0.1-0.1,0.5-0.2,0.6
			c0,0.2-0.2,0.3-0.4,0.2c-1-0.4-1.5-1.6-1.5-2.9c0-2.1,1.8-4.7,5.4-4.7c2.9,0,4.8,2.1,4.8,4.3c0,2.9-1.6,5.1-4,5.1
			c-0.8,0-1.6-0.4-1.8-0.9c0,0-0.4,1.7-0.5,2.1c-0.2,0.6-0.5,1.2-0.8,1.6c0.7,0.2,1.4,0.3,2.1,0.3c4.1,0,7.5-3.4,7.5-7.5
			C-396.5-159.2-399.9-162.5-404-162.5"/>
	</g>
	<g>
		<path class="st4" d="M-404-50c8.3,0,15-6.7,15-15c0-8.3-6.7-15-15-15s-15,6.7-15,15C-419-56.7-412.3-50-404-50"/>
		<path class="st2" d="M-407.6-67.5h1.6V-69c0-0.7,0-1.7,0.5-2.3c0.5-0.7,1.2-1.1,2.4-1.1c2,0,2.8,0.3,2.8,0.3l-0.4,2.3
			c0,0-0.6-0.2-1.2-0.2c-0.6,0-1.1,0.2-1.1,0.8v1.8h2.5l-0.2,2.2h-2.3v7.8h-2.9v-7.8h-1.6L-407.6-67.5L-407.6-67.5z"/>
	</g>
	<g>
		<path class="st5" d="M-404,130c8.3,0,15-6.7,15-15c0-8.3-6.7-15-15-15c-8.3,0-15,6.7-15,15C-419,123.3-412.3,130-404,130"/>
		<path class="st2" d="M-401.1,115l-4.9,2.9v-5.8L-401.1,115z M-396.5,117.7v-5.4c0,0,0-2.6-2.6-2.6h-9.8c0,0-2.6,0-2.6,2.6v5.4
			c0,0,0,2.6,2.6,2.6h9.8C-399.1,120.3-396.5,120.3-396.5,117.7"/>
	</g>
	<g>
		<path class="st0" d="M-404,40c8.3,0,15-6.7,15-15c0-8.3-6.7-15-15-15c-8.3,0-15,6.7-15,15C-419,33.3-412.3,40-404,40"/>
		<path class="st2" d="M-406.5,31.7c-1.8,0-3.1-1.1-3.1-2.5c0-1.3,1.6-2.4,3.4-2.4c0.4,0,0.8,0.1,1.2,0.2c1,0.7,1.7,1.1,1.9,1.8
			c0,0.2,0.1,0.3,0.1,0.5C-403.1,30.7-404,31.7-406.5,31.7 M-406,23.8c-1.2,0-2.3-1.3-2.5-2.9c-0.2-1.6,0.6-2.8,1.8-2.7
			c1.2,0,2.3,1.3,2.5,2.9C-404,22.6-404.8,23.8-406,23.8 M-403.5,26.1c-0.4-0.3-1.2-1-1.2-1.4c0-0.5,0.1-0.7,0.9-1.3
			c0.8-0.6,1.3-1.4,1.3-2.4c0-1.2-0.5-2.3-1.5-2.7h1.5l1-0.8h-4.6c-2.1,0-4,1.6-4,3.4c0,1.9,1.4,3.4,3.5,3.4c0.1,0,0.3,0,0.4,0
			c-0.1,0.3-0.2,0.6-0.2,0.9c0,0.5,0.3,0.9,0.6,1.3c-0.3,0-0.5,0-0.8,0c-2.6,0-4.6,1.6-4.6,3.3c0,1.7,2.2,2.7,4.8,2.7
			c2.9,0,4.6-1.7,4.6-3.3C-401.9,27.8-402.3,27-403.5,26.1 M-396.8,23.9h-1.8v-1.8h-1.5v1.8h-1.8v1.5h1.8v1.8h1.5v-1.8h1.8
			C-396.8,25.4-396.8,23.9-396.8,23.9z"/>
	</g>
	<g>
		<path class="st6" d="M-404,400.1c8.3,0,15-6.7,15-15c0-8.3-6.7-15-15-15c-8.3,0-15,6.7-15,15C-419,393.3-412.3,400.1-404,400.1"/>
		<path class="st2" d="M-397.6,388.6c-0.4,0.8-0.5,1.1-1,1.8c-0.6,1-1.5,2.2-2.6,2.2c-1,0-1.2-0.6-2.6-0.6c-1.3,0-1.6,0.6-2.6,0.6
			c-1.1,0-2-1.1-2.6-2.1c-1.8-2.7-2-5.9-0.9-7.5c0.8-1.2,2-1.9,3.2-1.9c1.2,0,1.9,0.6,2.9,0.6c0.9,0,1.5-0.6,2.9-0.6
			c1,0,2.1,0.6,2.9,1.5C-400.5,384-400.1,387.6-397.6,388.6L-397.6,388.6z M-401.9,380c0.5-0.6,0.9-1.5,0.7-2.4
			c-0.8,0.1-1.7,0.6-2.3,1.2c-0.5,0.6-0.9,1.5-0.8,2.4C-403.3,381.2-402.4,380.7-401.9,380L-401.9,380z"/>
	</g>
	<g>
		<path class="st7" d="M-404,310c8.3,0,15-6.7,15-15c0-8.3-6.7-15-15-15c-8.3,0-15,6.7-15,15C-419,303.3-412.3,310-404,310"/>
		<path class="st2" d="M-403.8,287.5v3.8h3.6v2.4h-3.6v3.8c0,0.9,0,1.4,0.1,1.7c0.1,0.2,0.3,0.4,0.5,0.6c0.3,0.2,0.7,0.3,1.1,0.3
			c0.8,0,1.5-0.2,2.3-0.7v2.4c-0.6,0.3-1.2,0.5-1.7,0.6c-0.5,0.1-1.1,0.2-1.7,0.2c-0.7,0-1.3-0.1-1.8-0.3c-0.5-0.2-1-0.4-1.3-0.7
			c-0.4-0.3-0.6-0.7-0.8-1c-0.1-0.4-0.2-0.9-0.2-1.6v-5.3h-1.7v-2.1c0.6-0.2,1.1-0.5,1.5-0.8c0.4-0.4,0.8-0.8,1-1.3
			c0.3-0.5,0.4-1.1,0.5-1.9L-403.8,287.5L-403.8,287.5z"/>
	</g>
	<g>
		<path class="st8" d="M-404,490.1c8.3,0,15-6.7,15-15c0-8.3-6.7-15-15-15c-8.3,0-15,6.7-15,15C-419,483.3-412.3,490.1-404,490.1"/>
		<path class="st2" d="M-404.6,471.3c0.3,0.4,0.4,0.9,0.4,1.4c0,0.6-0.1,1-0.4,1.4c-0.2,0.2-0.4,0.4-0.7,0.5
			c0.5,0.2,0.8,0.4,1.1,0.8c0.2,0.4,0.4,0.8,0.4,1.4c0,0.5-0.1,1-0.4,1.5c-0.2,0.3-0.4,0.5-0.7,0.7c-0.3,0.2-0.6,0.4-1,0.5
			c-0.4,0.1-0.8,0.1-1.3,0.1h-4.2v-9.3h4.5C-405.9,470.3-405.1,470.7-404.6,471.3z M-409.6,471.9v2h2.3c0.4,0,0.7-0.1,1-0.2
			c0.2-0.2,0.4-0.4,0.4-0.8c0-0.4-0.2-0.7-0.5-0.9c-0.3-0.1-0.7-0.1-1.1-0.1L-409.6,471.9L-409.6,471.9z M-409.6,475.5v2.5h2.2
			c0.4,0,0.7-0.1,0.9-0.2c0.4-0.2,0.6-0.6,0.6-1.2c0-0.5-0.2-0.8-0.6-1c-0.2-0.1-0.5-0.2-0.9-0.2L-409.6,475.5L-409.6,475.5z
			 M-398.3,472.9c0.5,0.2,0.9,0.6,1.2,1c0.3,0.4,0.5,0.9,0.5,1.4c0,0.3,0.1,0.8,0.1,1.4h-5c0,0.7,0.3,1.2,0.7,1.4
			c0.3,0.2,0.6,0.3,1,0.3c0.4,0,0.7-0.1,1-0.3c0.1-0.1,0.3-0.3,0.4-0.5h1.8c0,0.4-0.3,0.8-0.7,1.2c-0.6,0.7-1.5,1-2.6,1
			c-0.9,0-1.7-0.3-2.4-0.8c-0.7-0.6-1-1.5-1-2.7c0-1.2,0.3-2.1,0.9-2.7c0.6-0.6,1.4-1,2.5-1C-399.3,472.5-398.8,472.7-398.3,472.9z
			 M-401,474.4c-0.3,0.3-0.4,0.6-0.5,1.1h3.1c0-0.5-0.2-0.8-0.5-1.1c-0.3-0.2-0.6-0.4-1.1-0.4C-400.4,474-400.7,474.2-401,474.4z
			 M-397.9,470.7h-4v1.2h4V470.7z"/>
	</g>
	<g>
		<path class="st9" d="M-404,580.1c8.3,0,15-6.7,15-15s-6.7-15-15-15c-8.3,0-15,6.7-15,15S-412.3,580.1-404,580.1"/>
		<path class="st2" d="M-396.5,561.9c-0.1,1.5-1.1,3.5-3.1,6c-2,2.6-3.8,4-5.2,4c-0.9,0-1.6-0.8-2.2-2.4c-0.4-1.5-0.8-3-1.2-4.4
			c-0.4-1.6-0.9-2.4-1.4-2.4c-0.1,0-0.5,0.2-1.2,0.7l-0.7-0.9c0.7-0.6,1.5-1.3,2.2-1.9c1-0.9,1.7-1.3,2.2-1.3
			c1.2-0.1,1.9,0.7,2.2,2.4c0.3,1.8,0.5,3,0.6,3.4c0.3,1.5,0.7,2.3,1.1,2.3c0.3,0,0.8-0.5,1.4-1.5s1-1.7,1-2.3
			c0.1-0.9-0.2-1.3-1-1.3c-0.4,0-0.7,0.1-1.1,0.2c0.7-2.4,2.2-3.6,4.2-3.5C-397.1,559-396.4,560-396.5,561.9z"/>
	</g>
	<g>
		<path class="st5" d="M-404,220c8.3,0,15-6.7,15-15c0-8.3-6.7-15-15-15c-8.3,0-15,6.7-15,15C-419,213.3-412.3,220-404,220"/>
		<path class="st2" d="M-400.9,200v2.9c-0.1,0.1-0.2,0.1-0.2,0.2c-0.1,0.1-0.2,0.1-0.2,0.1c-0.1,0-0.1,0-0.2-0.1
			c0,0-0.1-0.1-0.1-0.2V200h-0.8v3.1c0,0.2,0,0.4,0.1,0.5c0.1,0.1,0.2,0.2,0.4,0.2c0.2,0,0.3,0,0.5-0.1c0.2-0.1,0.3-0.2,0.4-0.4v0.4
			h0.8V200L-400.9,200L-400.9,200z M-403.3,200.2c-0.2-0.2-0.5-0.3-0.8-0.3c-0.3,0-0.6,0.1-0.8,0.3c-0.2,0.2-0.3,0.4-0.3,0.7v2
			c0,0.3,0.1,0.6,0.3,0.8c0.2,0.2,0.5,0.3,0.8,0.3c0.3,0,0.6-0.1,0.8-0.3c0.2-0.2,0.3-0.4,0.3-0.8v-1.9
			C-403,200.6-403.1,200.3-403.3,200.2z M-403.8,202.9c0,0.1,0,0.2-0.1,0.2c-0.1,0.1-0.1,0.1-0.2,0.1c-0.1,0-0.2,0-0.2-0.1
			c-0.1-0.1-0.1-0.1-0.1-0.2v-2.1c0-0.1,0-0.1,0.1-0.2c0.1-0.1,0.1-0.1,0.2-0.1c0.1,0,0.2,0,0.2,0.1c0.1,0,0.1,0.1,0.1,0.2
			L-403.8,202.9L-403.8,202.9z M-406.2,198.6l-0.5,2h-0.1l-0.6-2h-0.9l1,3.1v2h0.9v-2.1l1-3L-406.2,198.6L-406.2,198.6z
			 M-400.1,207.6c0,0.1,0.1,0.2,0.1,0.3v0.3h-0.6v-0.3c0-0.1,0-0.2,0.1-0.3c0-0.1,0.1-0.1,0.2-0.1
			C-400.3,207.5-400.2,207.6-400.1,207.6z M-402.5,207.6c0-0.1-0.1-0.1-0.2-0.1c0,0-0.1,0-0.1,0c0,0-0.1,0.1-0.1,0.1v2.1
			c0.1,0.1,0.1,0.1,0.2,0.1c0.1,0,0.1,0,0.2,0c0.1,0,0.2,0,0.2-0.1c0,0,0.1-0.1,0.1-0.2v-1.8C-402.4,207.8-402.5,207.7-402.5,207.6z
			 M-402.5,207.6c0-0.1-0.1-0.1-0.2-0.1c0,0-0.1,0-0.1,0c0,0-0.1,0.1-0.1,0.1v2.1c0.1,0.1,0.1,0.1,0.2,0.1c0.1,0,0.1,0,0.2,0
			c0.1,0,0.2,0,0.2-0.1c0,0,0.1-0.1,0.1-0.2v-1.8C-402.4,207.8-402.5,207.7-402.5,207.6z M-398.6,205h-10.7c-1.2,0-2.1,1-2.1,2.1
			v2.2c0,1.2,1,2.1,2.1,2.1h10.7c1.2,0,2.1-1,2.1-2.1v-2.2C-396.5,205.9-397.5,205-398.6,205z M-406.5,206.5h-0.8v4h-0.8v-4h-0.8
			v-0.7h2.4C-406.5,205.8-406.5,206.5-406.5,206.5z M-404.2,210.4h-0.7v-0.4c-0.1,0.1-0.3,0.2-0.4,0.3c-0.1,0.1-0.3,0.1-0.4,0.1
			c-0.2,0-0.3-0.1-0.4-0.2c-0.1-0.1-0.1-0.2-0.1-0.5V207h0.7v2.6c0,0.1,0,0.1,0,0.2c0,0,0.1,0.1,0.1,0.1c0.1,0,0.1,0,0.2-0.1
			c0.1,0,0.1-0.1,0.2-0.2V207h0.7V210.4z M-401.7,209.7c0,0.2-0.1,0.4-0.2,0.6c-0.1,0.1-0.3,0.2-0.5,0.2c-0.1,0-0.2,0-0.4-0.1
			c-0.1-0.1-0.2-0.1-0.3-0.2v0.3h-0.7v-4.6h0.7v1.5c0.1-0.1,0.2-0.2,0.3-0.2c0.1-0.1,0.2-0.1,0.3-0.1c0.2,0,0.4,0.1,0.5,0.2
			c0.1,0.1,0.2,0.4,0.2,0.6V209.7z M-399.4,208.8h-1.3v0.6c0,0.2,0,0.3,0.1,0.4c0,0.1,0.1,0.1,0.2,0.1c0.1,0,0.2,0,0.2-0.1
			c0-0.1,0.1-0.2,0.1-0.4v-0.2h0.7v0.2c0,0.4-0.1,0.6-0.3,0.8c-0.2,0.2-0.4,0.3-0.8,0.3c-0.3,0-0.6-0.1-0.7-0.3
			c-0.2-0.2-0.3-0.4-0.3-0.8v-1.5c0-0.3,0.1-0.5,0.3-0.7c0.2-0.2,0.4-0.3,0.7-0.3c0.3,0,0.6,0.1,0.7,0.3c0.2,0.2,0.3,0.4,0.3,0.7
			L-399.4,208.8L-399.4,208.8z M-402.7,207.5c0,0-0.1,0-0.1,0c0,0-0.1,0.1-0.1,0.1v2.1c0.1,0.1,0.1,0.1,0.2,0.1c0.1,0,0.1,0,0.2,0
			c0.1,0,0.2,0,0.2-0.1c0,0,0.1-0.1,0.1-0.2v-1.8c0-0.1,0-0.2-0.1-0.3C-402.6,207.5-402.6,207.5-402.7,207.5z M-402.5,207.6
			c0-0.1-0.1-0.1-0.2-0.1c0,0-0.1,0-0.1,0c0,0-0.1,0.1-0.1,0.1v2.1c0.1,0.1,0.1,0.1,0.2,0.1c0.1,0,0.1,0,0.2,0c0.1,0,0.2,0,0.2-0.1
			c0,0,0.1-0.1,0.1-0.2v-1.8C-402.4,207.8-402.5,207.7-402.5,207.6z M-402.5,207.6c0-0.1-0.1-0.1-0.2-0.1c0,0-0.1,0-0.1,0
			c0,0-0.1,0.1-0.1,0.1v2.1c0.1,0.1,0.1,0.1,0.2,0.1c0.1,0,0.1,0,0.2,0c0.1,0,0.2,0,0.2-0.1c0,0,0.1-0.1,0.1-0.2v-1.8
			C-402.4,207.8-402.5,207.7-402.5,207.6z"/>
	</g>
	<g>
		<path class="st2" d="M-404,670.1c8.3,0,15-6.7,15-15c0-8.3-6.7-15-15-15c-8.3,0-15,6.7-15,15C-419,663.4-412.3,670.1-404,670.1"/>
		<g>
			<path class="st10" d="M-396.5,655.1c0,1.8-1.5,3.3-3.3,3.3c-1.8,0-3.3-1.5-3.3-3.3c0-1.8,1.5-3.3,3.3-3.3
				C-398,651.8-396.5,653.3-396.5,655.1z"/>
			<path class="st11" d="M-404.9,655.1c0,1.8-1.5,3.3-3.3,3.3c-1.8,0-3.3-1.5-3.3-3.3c0-1.8,1.5-3.3,3.3-3.3
				C-406.4,651.8-404.9,653.3-404.9,655.1z"/>
		</g>
	</g>
	<g>
		<path class="st12" d="M-404,760.1c8.3,0,15-6.7,15-15c0-8.3-6.7-15-15-15s-15,6.7-15,15C-419,753.4-412.3,760.1-404,760.1"/>
		<path id="RSS" class="st2" d="M-408.1,749.2c0.4,0.4,0.6,0.9,0.6,1.4c0,0.5-0.2,1-0.6,1.4l0,0c-0.4,0.4-0.9,0.6-1.4,0.6
			s-1-0.2-1.4-0.6c-0.4-0.4-0.6-0.9-0.6-1.4c0-0.5,0.2-1,0.6-1.4l0,0c0.4-0.4,0.9-0.6,1.4-0.6S-408.5,748.8-408.1,749.2z
			 M-408.1,749.2L-408.1,749.2L-408.1,749.2L-408.1,749.2z M-410.9,752L-410.9,752L-410.9,752L-410.9,752z M-411.5,742.7v2.9
			c1.9,0,3.6,0.7,5,2.1c1.3,1.3,2.1,3.1,2.1,5l0,0v0h2.9c0-2.7-1.1-5.2-2.9-7C-406.3,743.8-408.8,742.7-411.5,742.7z M-411.5,737.6
			v2.9c6.7,0,12.1,5.4,12.1,12.1h2.9c0-4.1-1.7-7.9-4.4-10.6C-403.6,739.3-407.4,737.6-411.5,737.6z"/>
	</g>
	<g>
		<path class="st13" d="M-404-200c8.3,0,15-6.7,15-15c0-8.3-6.7-15-15-15c-8.3,0-15,6.7-15,15C-419-206.7-412.3-200-404-200"/>
		<path class="st2" d="M-408.2-208.7h-2.9v-9.4h2.9V-208.7z M-409.7-219.2L-409.7-219.2c-1.1,0-1.8-0.7-1.8-1.6
			c0-0.9,0.7-1.6,1.8-1.6c1.1,0,1.7,0.7,1.8,1.6C-408-220-408.6-219.2-409.7-219.2z M-396.5-208.7h-3.3v-4.8c0-1.3-0.5-2.1-1.7-2.1
			c-0.9,0-1.4,0.6-1.6,1.1c-0.1,0.2-0.1,0.5-0.1,0.8v5.1h-3.3c0,0,0-8.6,0-9.4h3.3v1.5c0.2-0.6,1.2-1.6,2.9-1.6
			c2.1,0,3.7,1.3,3.7,4.2L-396.5-208.7L-396.5-208.7z"/>
	</g>
	<g>
		<path class="st14" d="M-404-110c8.3,0,15-6.7,15-15s-6.7-15-15-15c-8.3,0-15,6.7-15,15S-412.3-110-404-110"/>
		<path class="st2" d="M-396.6-126.3l-0.1-0.3l-0.2-0.2c-0.3-0.2-1.7,0-2-0.3c-0.3-0.2-0.3-0.7-0.4-1.3c-0.1-1.2-0.2-1.2-0.4-1.6
			c-0.7-1.4-2.4-2.4-3.7-2.6h-3.3c-2.6,0-4.7,2.1-4.7,4.7v5.5c0,2.6,2.1,4.7,4.7,4.7h5.4c2.6,0,4.7-2.1,4.7-4.7l0-3.8L-396.6-126.3z
			 M-406.7-128.6h2.6c0.5,0,0.9,0.4,0.9,0.9c0,0.5-0.4,0.9-0.9,0.9h-2.6c-0.5,0-0.9-0.4-0.9-0.9
			C-407.6-128.2-407.2-128.6-406.7-128.6z M-401.3-121.4h-5.3c-0.5,0-0.9-0.4-0.9-0.9c0-0.5,0.4-0.9,0.9-0.9h5.3
			c0.5,0,0.9,0.4,0.9,0.9C-400.4-121.8-400.8-121.4-401.3-121.4z"/>
	</g>
	<g>
		<path class="st15" d="M-404-20c8.3,0,15-6.7,15-15c0-8.3-6.7-15-15-15c-8.3,0-15,6.7-15,15C-419-26.7-412.3-20-404-20"/>
		<path class="st2" d="M-396.7-36.5c-0.1-0.5-0.2-1-0.4-1.4c-0.2-0.4-0.4-0.9-0.7-1.3c-0.3-0.4-0.6-0.8-0.9-1.1
			c-0.3-0.3-0.7-0.6-1.1-0.9c-0.4-0.3-0.8-0.5-1.3-0.7c-0.5-0.2-0.9-0.3-1.4-0.4c-0.5-0.1-1-0.2-1.5-0.2s-1,0.1-1.5,0.2
			c-0.5,0.1-1,0.2-1.4,0.4c-0.4,0.2-0.9,0.4-1.3,0.7c-0.4,0.3-0.8,0.6-1.1,0.9c-0.3,0.3-0.6,0.7-0.9,1.1c-0.3,0.4-0.5,0.8-0.7,1.3
			c-0.2,0.5-0.3,0.9-0.4,1.4c-0.1,0.5-0.2,1-0.2,1.5c0,0.5,0.1,1,0.2,1.5c0.1,0.5,0.2,1,0.4,1.4c0.2,0.4,0.4,0.9,0.7,1.3
			c0.3,0.4,0.6,0.8,0.9,1.1c0.3,0.3,0.7,0.6,1.1,0.9c0.4,0.3,0.8,0.5,1.3,0.7c0.5,0.2,0.9,0.3,1.4,0.4c0.5,0.1,1,0.2,1.5,0.2
			c0.5,0,1-0.1,1.5-0.2c0.5-0.1,1-0.2,1.4-0.4c0.4-0.2,0.9-0.4,1.3-0.7c0.4-0.3,0.8-0.6,1.1-0.9c0.3-0.3,0.6-0.7,0.9-1.1
			c0.3-0.4,0.5-0.8,0.7-1.3c0.2-0.5,0.3-0.9,0.4-1.4c0.1-0.5,0.2-1,0.2-1.5C-396.5-35.5-396.6-36-396.7-36.5z M-397.6-35
			c-0.1,0-2.3-0.5-4.5-0.2c0-0.1-0.1-0.2-0.1-0.3c-0.1-0.3-0.3-0.6-0.4-0.9c2.5-1,3.6-2.5,3.6-2.5C-398.2-38-397.6-36.6-397.6-35z
			 M-399.8-39.8c0,0-0.9,1.4-3.3,2.3c-1.1-2-2.3-3.6-2.4-3.7c0.5-0.1,1-0.2,1.5-0.2C-402.4-41.4-400.9-40.8-399.8-39.8z
			 M-405.5-41.2L-405.5-41.2C-405.5-41.2-405.5-41.2-405.5-41.2C-405.5-41.2-405.5-41.2-405.5-41.2z M-406.7-40.8
			c0.1,0.1,1.3,1.7,2.4,3.7c-3.1,0.8-5.7,0.8-5.9,0.8C-409.9-38.3-408.5-39.9-406.7-40.8z M-410.4-35c0-0.1,0-0.1,0-0.2
			c0.1,0,3.3,0.1,6.6-0.9c0.2,0.4,0.4,0.7,0.5,1.1c-0.1,0-0.2,0-0.3,0.1c-3.5,1.1-5.2,4.2-5.2,4.2s0,0,0,0
			C-409.8-31.8-410.4-33.3-410.4-35z M-404-28.6c-1.6,0-3-0.6-4.1-1.5c0.1,0.1,0.1,0.1,0.1,0.1s1.2-2.7,5-4c0,0,0,0,0,0
			c0.9,2.3,1.3,4.3,1.4,4.9C-402.3-28.8-403.1-28.6-404-28.6z M-400.4-29.7c-0.1-0.4-0.4-2.3-1.2-4.6c2.1-0.3,3.9,0.2,4,0.3
			C-398-32.2-399-30.6-400.4-29.7z"/>
	</g>
	<g>
		<path class="st16" d="M-404,70c8.3,0,15-6.7,15-15c0-8.3-6.7-15-15-15c-8.3,0-15,6.7-15,15S-412.3,70-404,70"/>
		<path class="st2" d="M-396.9,56.6c0.1-0.5,0.2-1,0.2-1.5c0-4-3.2-7.2-7.2-7.2c-0.4,0-0.8,0-1.2,0.1c-0.6-0.4-1.4-0.6-2.2-0.6
			c-2.3,0-4.1,1.9-4.1,4.1c0,0.8,0.2,1.5,0.6,2.1c-0.1,0.5-0.1,0.9-0.1,1.4c0,4,3.2,7.2,7.2,7.2c0.4,0,0.9,0,1.3-0.1
			c0.6,0.3,1.3,0.5,2,0.5c2.3,0,4.1-1.9,4.1-4.1C-396.5,57.8-396.7,57.2-396.9,56.6z M-400.2,58.5c-0.3,0.5-0.8,0.8-1.5,1.1
			c-0.6,0.3-1.4,0.4-2.2,0.4c-1,0-1.9-0.2-2.6-0.5c-0.5-0.3-0.9-0.6-1.2-1c-0.3-0.4-0.5-0.9-0.5-1.3c0-0.3,0.1-0.5,0.3-0.7
			c0.2-0.2,0.4-0.3,0.7-0.3c0.2,0,0.5,0.1,0.6,0.2c0.2,0.1,0.3,0.3,0.4,0.6c0.1,0.3,0.3,0.5,0.4,0.7c0.1,0.2,0.3,0.3,0.6,0.5
			c0.3,0.1,0.6,0.2,1,0.2c0.6,0,1.1-0.1,1.4-0.4c0.4-0.2,0.5-0.5,0.5-0.9c0-0.3-0.1-0.5-0.3-0.7c-0.2-0.2-0.5-0.3-0.8-0.4
			c-0.3-0.1-0.8-0.2-1.3-0.3c-0.7-0.2-1.4-0.3-1.9-0.6c-0.5-0.2-0.9-0.5-1.2-0.9c-0.3-0.4-0.5-0.9-0.5-1.4c0-0.5,0.2-1,0.5-1.4
			c0.3-0.4,0.8-0.7,1.4-1c0.6-0.2,1.3-0.3,2.1-0.3c0.6,0,1.2,0.1,1.7,0.2c0.5,0.1,0.9,0.3,1.2,0.6c0.3,0.2,0.5,0.5,0.7,0.8
			c0.1,0.3,0.2,0.6,0.2,0.8c0,0.3-0.1,0.5-0.3,0.7c-0.2,0.2-0.4,0.3-0.7,0.3c-0.3,0-0.5-0.1-0.6-0.2c-0.1-0.1-0.3-0.3-0.4-0.6
			c-0.2-0.3-0.4-0.6-0.6-0.8c-0.2-0.2-0.6-0.3-1.2-0.3c-0.5,0-0.9,0.1-1.2,0.3c-0.3,0.2-0.4,0.4-0.4,0.7c0,0.2,0,0.3,0.1,0.4
			c0.1,0.1,0.2,0.2,0.4,0.3c0.2,0.1,0.4,0.2,0.6,0.2c0.2,0.1,0.5,0.1,1,0.2c0.6,0.1,1.1,0.3,1.6,0.4c0.5,0.2,0.9,0.3,1.2,0.6
			c0.3,0.2,0.6,0.5,0.8,0.9c0.2,0.3,0.3,0.8,0.3,1.3C-399.8,57.5-399.9,58.1-400.2,58.5z"/>
	</g>
	<g>
		<path class="st17" d="M-404,160c8.3,0,15-6.7,15-15c0-8.3-6.7-15-15-15c-8.3,0-15,6.7-15,15C-419,153.3-412.3,160-404,160"/>
		<g>
			<path class="st2" d="M-399.4,142.8c0.1,0,0.2,0,0.3-0.1h1.1l0.2-0.2c0,0,0,0,0,0l0.4-0.6c0,0,0,0,0,0l0-0.1h-5.9l0.2,0.9h1.6
				l-2.7,2.4c-0.5-0.8-1.8-2.3-2.7-3.6h2v-0.7l0-0.2c0,0,0,0,0,0v-0.1h-6.7v0.9h2c0.8,0.6,3.7,4.3,3.8,4.6c0,0.3,0.1,2.4-0.1,2.5
				c-0.3,0.3-1.6,0.2-1.9,0.2l-0.1,0.6c0.6,0,2.5,0,3.1,0c1.2,0,3.2,0,3.5,0l0-0.7c-0.3,0-1.9,0-2.1-0.1c0-0.3-0.1-2.5-0.1-2.7
				C-403.1,145.5-399.8,142.9-399.4,142.8z"/>
			<path class="st2" d="M-398.4,147.8l0.9,0.1l1-4c-0.2,0-1.8-0.2-2-0.2L-398.4,147.8z"/>
			<polygon class="st2" points="-398.6,148.5 -398.6,149.4 -398.1,149.5 -397.6,149.5 -397.5,148.6 -398,148.5 			"/>
		</g>
	</g>
	<g>
		<path class="st18" d="M-404,250c8.3,0,15-6.7,15-15c0-8.3-6.7-15-15-15c-8.3,0-15,6.7-15,15C-419,243.3-412.3,250-404,250"/>
		<g>
			<g>
				<g>
					<g>
						<path id="SVGID_1_" class="st2" d="M-406.1,240.2c-0.8-0.5-1.6-1-2.8-1c-0.7,0-1.6,0.2-2.6,0.6l1.4-4.8
							c0.2-0.1,0.3-0.1,0.5-0.2c0.5-0.2,1.2-0.4,2-0.4c0.1,0,0.2,0,0.3,0c0.8,0,1.5,0.3,2,0.5c0.2,0.1,0.4,0.2,0.6,0.4
							C-404.9,235.9-405.8,239.2-406.1,240.2"/>
					</g>
				</g>
			</g>
			<g>
				<g>
					<g>
						<path id="SVGID_3_" class="st2" d="M-402.4,241.7c-1.2,0-2.8-1-2.8-1l1.4-4.8c0.4,0.3,1.4,1,3,1c0.7,0,1.6-0.1,2.6-0.5
							l-1.3,4.7C-400.7,241.5-401.6,241.7-402.4,241.7"/>
					</g>
				</g>
			</g>
			<g>
				<g>
					<g>
						<path id="SVGID_5_" class="st2" d="M-403,229.3L-403,229.3c-0.3,1-1.1,3.9-1.4,4.8 M-404.4,234.1c-0.7-0.5-1.5-0.9-2.7-1
							c0,0,0,0,0,0c-0.7,0-1.6,0.2-2.7,0.6l1.4-4.8c1-0.4,1.9-0.6,2.6-0.6c0,0,0,0,0,0c0.4,0,0.8,0,1.1,0.1c0.7,0.2,1.7,0.8,1.7,0.8
							"/>
					</g>
				</g>
			</g>
			<g>
				<g>
					<g>
						<path id="SVGID_7_" class="st2" d="M-400.6,235.7c-1.2,0-2.2-0.4-3-0.9c0,0,0,0,0,0l1.4-4.9c0.4,0.3,1.4,1,3,1
							c0.8,0,1.7-0.2,2.7-0.6l-1.4,4.8c0,0,0,0,0,0c0,0,0,0,0,0C-398.9,235.5-399.8,235.7-400.6,235.7"/>
					</g>
				</g>
			</g>
		</g>
	</g>
	<g>
		<path class="st19" d="M-404,340.1c8.3,0,15-6.7,15-15c0-8.3-6.7-15-15-15c-8.3,0-15,6.7-15,15C-419,333.3-412.3,340.1-404,340.1"
			/>
		<g>
			<path class="st2" d="M-405.3,324.8l1.3-2.2c0.1-0.2,0-0.4-0.1-0.5l-0.9-0.5c-0.2-0.1-0.4,0-0.5,0.1l-1.4,2.4l0,0l-1.5,2.7l0,0
				l-1.3,2.2c-0.1,0.2,0,0.4,0.1,0.5l0.9,0.5c0.2,0.1,0.4,0,0.5-0.1l1.8-3.1l0,0L-405.3,324.8z"/>
			<path class="st2" d="M-396.8,324.1h-3c0.4,0.7,0.7,1.3,0.9,1.8c0.2,0.3,0.3,0.6,0.3,0.6c0,0.1,0.1,0.2,0.1,0.3h1.7
				c0.2,0,0.3-0.1,0.3-0.3v-2C-396.5,324.3-396.6,324.1-396.8,324.1z"/>
			<path class="st2" d="M-404.2,324.1l-1.5,2.7h4.1c-0.3-0.6-0.7-1.4-1.2-2.7H-404.2z"/>
			<path class="st2" d="M-407.7,324.1h-3.5c-0.2,0-0.3,0.1-0.3,0.3v2c0,0.2,0.1,0.3,0.3,0.3h2L-407.7,324.1z"/>
			<path class="st2" d="M-409,330.4l-0.9-0.5c-0.2-0.1-0.3,0-0.3,0.2l-0.2,1.4c0,0.2,0.1,0.3,0.2,0.2l1.2-0.8
				C-408.8,330.7-408.9,330.5-409,330.4z"/>
			<path class="st2" d="M-399.2,326.8C-399.2,326.8-399.2,326.8-399.2,326.8L-399.2,326.8c-0.1-0.2-0.3-0.6-0.6-1.1c0,0,0,0,0,0
				c0,0,0-0.1-0.1-0.1c0,0,0-0.1,0-0.1c0,0,0-0.1,0-0.1c0,0-0.1-0.1-0.1-0.1c0,0,0,0,0,0c0-0.1-0.1-0.1-0.1-0.2c0,0,0,0,0,0
				c-0.6-1.2-1.4-2.7-1.9-3.5c-0.9-1.4-2-3.6-2.3-3.5c-0.5,0.2,0.9,3.1,1.4,4.2c0.5,1.1,2.3,5.2,2.6,5.4c0.4,0.2,0.5,0.1,0.7,0
				C-399.4,327.6-398.9,327.2-399.2,326.8z"/>
			<path class="st2" d="M-398.1,329l-0.4-0.8c-0.1-0.2-0.3-0.3-0.5-0.2l-0.5,0.3c-0.2,0.1-0.2,0.3-0.1,0.5l0.5,0.9
				c0.1,0.2,0.4,0.2,0.5,0.1l0.4-0.2C-398.1,329.4-398,329.2-398.1,329z"/>
			<path class="st2" d="M-398.3,330.2c-0.1,0.1-0.5,0.4-0.1,1c0.4,0.5,1.3,0.6,1.4,0.9C-397,332.1-396.7,329.3-398.3,330.2z"/>
		</g>
	</g>
	<g>
		<path class="st20" d="M-404,430.1c8.3,0,15-6.7,15-15c0-8.3-6.7-15-15-15c-8.3,0-15,6.7-15,15C-419,423.3-412.3,430.1-404,430.1"
			/>
		<g>
			<path class="st2" d="M-398.7,419.7c-0.1,0-0.2,0-0.2,0c-0.1,0-0.2,0.1-0.2,0.1l-0.1,0l-0.1,0.1v0c-1.6,0.7-3.3,1-4.9,1.1
				c-0.1,0-0.1,0-0.2,0c-2.5,0-4.5-1.1-6.5-2.3c-0.1,0-0.1-0.1-0.2-0.1c-0.1,0-0.2,0-0.3,0.1c-0.1,0.1-0.1,0.2-0.1,0.3
				c0,0.1,0.1,0.2,0.2,0.3c1.9,1.7,4,3.2,6.8,3.2c0.1,0,0.1,0,0.2,0c1.8,0,3.8-0.6,5.4-1.6l0,0c0.2-0.1,0.4-0.3,0.6-0.4
				c0.1-0.1,0.2-0.2,0.2-0.4C-398.2,419.9-398.4,419.7-398.7,419.7z"/>
			<path class="st2" d="M-396.5,418.8L-396.5,418.8c0-0.2,0-0.3-0.1-0.4l0,0l0,0c-0.1-0.1-0.1-0.1-0.2-0.1c-0.2-0.1-0.5-0.1-0.9-0.1
				c-0.3,0-0.5,0-0.8,0.1v0l-0.3,0.1l0,0l-0.2,0.1v0c-0.2,0.1-0.4,0.2-0.5,0.3c-0.1,0.1-0.2,0.2-0.2,0.3c0,0.1,0,0.2,0.1,0.2
				c0.1,0.1,0.2,0.1,0.2,0.1c0,0,0,0,0,0l0,0l0,0c0.1,0,0.3-0.1,0.6-0.1c0.2,0,0.4,0,0.6,0c0.1,0,0.3,0,0.3,0c0,0,0.1,0,0.1,0
				c0,0,0,0,0,0c0,0,0,0,0,0.1c0,0.2-0.1,0.5-0.2,0.7c-0.1,0.3-0.2,0.6-0.3,0.8c0,0,0,0.1,0,0.1c0,0.1,0,0.2,0.1,0.2
				c0.1,0.1,0.1,0.1,0.2,0.1h0c0.1,0,0.2,0,0.3-0.1C-396.8,420.5-396.5,419.5-396.5,418.8L-396.5,418.8z"/>
			<path class="st2" d="M-403.2,411.7c-0.4,0-0.9,0.1-1.4,0.1c-0.8,0.1-1.5,0.2-2.2,0.5c-1.2,0.5-2.1,1.6-2.1,3.1
				c0,2,1.3,2.9,2.8,2.9c0.5,0,1-0.1,1.4-0.2c0.6-0.2,1.2-0.6,1.8-1.2c0.4,0.5,0.5,0.7,1.1,1.3c0.2,0.1,0.3,0.1,0.5,0
				c0.4-0.3,1.1-0.9,1.5-1.3c0.2-0.1,0.1-0.3,0-0.5c-0.4-0.5-0.7-0.9-0.7-1.8v-3c0-1.3,0.1-2.4-0.8-3.3c-0.8-0.7-2-1-2.9-1h-0.4
				c-1.7,0.1-3.5,0.8-3.9,2.9c-0.1,0.3,0.1,0.4,0.3,0.4l1.9,0.2c0.2,0,0.3-0.2,0.3-0.4c0.2-0.7,0.8-1.1,1.4-1.2h0.1
				c0.4,0,0.8,0.2,1.1,0.5c0.3,0.4,0.2,0.9,0.2,1.4L-403.2,411.7L-403.2,411.7z M-403.6,415.7c-0.2,0.5-0.6,0.8-1.1,0.9
				c-0.1,0-0.2,0-0.3,0c-0.7,0-1.2-0.6-1.2-1.4c0-1.1,0.6-1.6,1.4-1.8c0.4-0.1,0.9-0.1,1.4-0.1v0.4
				C-403.2,414.4-403.2,415-403.6,415.7z"/>
		</g>
	</g>
	<g>
		<path class="st21" d="M-404,520.1c8.3,0,15-6.7,15-15c0-8.3-6.7-15-15-15c-8.3,0-15,6.7-15,15C-419,513.4-412.3,520.1-404,520.1"
			/>
		<g>
			<path class="st2" d="M-401.8,498.9l0.2-0.2l0.2-0.2l0.4-0.5c0-0.1,0-0.2,0-0.2c-0.1,0-0.2,0-0.2,0l-0.4,0.6l-0.2,0.2l-0.2,0.2
				c-0.5-0.2-1.1-0.3-1.7-0.3c-0.6,0-1.2,0.1-1.7,0.3l-0.2-0.2l-0.2-0.2l-0.4-0.6c0-0.1-0.1-0.1-0.2,0c-0.1,0-0.1,0.1,0,0.2l0.4,0.5
				l0.2,0.2l0.2,0.2c-1.2,0.6-2.1,1.7-2.1,2.9h8.1C-399.7,500.5-400.5,499.4-401.8,498.9z M-405.5,500.6c-0.2,0-0.4-0.2-0.4-0.4
				c0-0.2,0.2-0.4,0.4-0.4c0.2,0,0.4,0.2,0.4,0.4C-405.1,500.4-405.3,500.6-405.5,500.6z M-402,500.6c-0.2,0-0.4-0.2-0.4-0.4
				c0-0.2,0.2-0.4,0.4-0.4c0.2,0,0.4,0.2,0.4,0.4C-401.6,500.4-401.8,500.6-402,500.6z"/>
			<path class="st2" d="M-407.8,502.4L-407.8,502.4l-0.1,0.7v0.6v5.1c0,0.5,0.4,0.9,0.9,0.9h0.7c0,0.1,0,0.2,0,0.2v0v0.3v1.5
				c0,0.5,0.4,0.9,0.9,0.9c0.5,0,0.9-0.4,0.9-0.9v-1.5V510v0c0-0.1,0-0.2,0-0.2h1.6c0,0.1,0,0.2,0,0.2v0v0.3v1.5
				c0,0.5,0.4,0.9,0.9,0.9s0.9-0.4,0.9-0.9v-1.5V510v0c0-0.1,0-0.2,0-0.2h0.7c0.5,0,0.9-0.4,0.9-0.9v-5.1v-0.6v-0.7h-0.1H-407.8z"/>
			<path class="st2" d="M-409.3,502.4c-0.5,0-0.9,0.4-0.9,0.9v3.7c0,0.5,0.4,0.9,0.9,0.9c0.5,0,0.9-0.4,0.9-0.9v-3.7
				C-408.4,502.7-408.8,502.4-409.3,502.4z"/>
			<path class="st2" d="M-398.2,502.4c-0.5,0-0.9,0.4-0.9,0.9v3.7c0,0.5,0.4,0.9,0.9,0.9c0.5,0,0.9-0.4,0.9-0.9v-3.7
				C-397.4,502.7-397.8,502.4-398.2,502.4z"/>
		</g>
	</g>
	<g>
		<path class="st22" d="M-404,610.1c8.3,0,15-6.7,15-15c0-8.3-6.7-15-15-15c-8.3,0-15,6.7-15,15C-419,603.4-412.3,610.1-404,610.1"
			/>
		<path class="st2" d="M-399.4,587.6h-9.2c-1.6,0-2.9,1.3-2.9,2.9v3.1v6.1c0,1.6,1.3,2.9,2.9,2.9h9.2c1.6,0,2.9-1.3,2.9-2.9v-6.1
			v-3.1C-396.5,588.9-397.8,587.6-399.4,587.6z M-398.6,589.3l0.3,0v0.3v2.2l-2.5,0l0-2.5L-398.6,589.3z M-406.1,593.5
			c0.5-0.7,1.3-1.1,2.1-1.1c0.9,0,1.7,0.4,2.1,1.1c0.3,0.4,0.5,1,0.5,1.5c0,1.5-1.2,2.6-2.6,2.6c-1.5,0-2.6-1.2-2.6-2.6
			C-406.6,594.5-406.5,594-406.1,593.5z M-398,599.7c0,0.8-0.6,1.4-1.4,1.4h-9.2c-0.8,0-1.4-0.6-1.4-1.4v-6.1h2.2
			c-0.2,0.5-0.3,1-0.3,1.5c0,2.3,1.8,4.1,4.1,4.1s4.1-1.8,4.1-4.1c0-0.5-0.1-1.1-0.3-1.5h2.2L-398,599.7L-398,599.7z"/>
	</g>
	<g>
		<path class="st23" d="M-404,700.1c8.3,0,15-6.7,15-15c0-8.3-6.7-15-15-15c-8.3,0-15,6.7-15,15C-419,693.4-412.3,700.1-404,700.1"
			/>
		<polygon class="st2" points="-396.5,686.9 -411.5,686.9 -411.5,683.3 -409.8,683.3 -409.8,685.2 -398.2,685.2 -398.2,683.3 
			-396.5,683.3 		"/>
	</g>
	<g>
		<path class="st24" d="M-404,790.1c8.3,0,15-6.7,15-15c0-8.3-6.7-15-15-15s-15,6.7-15,15C-419,783.4-412.3,790.1-404,790.1"/>
		<path class="st2" d="M-397.5,782.1l-6.2-14.3c-0.1-0.1-0.2-0.2-0.3-0.2l0,0c-0.1,0-0.3,0.1-0.3,0.2l-6.2,14.3c0,0.1,0,0.2,0,0.3
			c0.1,0.1,0.2,0.2,0.3,0.2h5.5v-3l-1.5-1l0.2-0.4l1.2,0.9v-2.4h1.4v1.6l1.3-0.7l0.2,0.4l-1.5,0.7v1.2l2.4-1.2l0.2,0.4l-2.6,1.3v2.3
			h5.5c0.1,0,0.2-0.1,0.3-0.2C-397.4,782.3-397.4,782.2-397.5,782.1z"/>
	</g>
	<g>
		<path class="st25" d="M-404-170c8.3,0,15-6.7,15-15c0-8.3-6.7-15-15-15c-8.3,0-15,6.7-15,15S-412.3-170-404-170"/>
		<g>
			<polygon class="st2" points="-411.5,-184.2 -407.1,-181.3 -404,-183.9 -408.4,-186.6 			"/>
			<polygon class="st2" points="-407.1,-192 -411.5,-189.1 -408.4,-186.6 -404,-189.4 			"/>
			<polygon class="st2" points="-396.5,-189.1 -400.9,-192 -404,-189.4 -399.6,-186.6 			"/>
			<polygon class="st2" points="-404,-183.9 -400.9,-181.3 -396.5,-184.2 -399.6,-186.6 			"/>
			<polygon class="st2" points="-404,-183.3 -407.1,-180.8 -408.4,-181.6 -408.4,-180.7 -404,-178 -399.6,-180.7 -399.6,-181.6 
				-400.9,-180.8 			"/>
		</g>
	</g>
	<g>
		<path class="st26" d="M-404-80c8.3,0,15-6.7,15-15c0-8.3-6.7-15-15-15c-8.3,0-15,6.7-15,15C-419-86.7-412.3-80-404-80"/>
		<path class="st2" d="M-398.9-95.7c-0.1,0-0.3-0.1-0.4-0.1c-0.9-0.3-1.5-0.5-1.5-1.2c0-0.6,0.5-1,1.1-1c0.5,0,0.8,0.2,1.2,0.6
			c0,0,0.1,0.1,0.1,0l0.9-0.5c0,0,0,0,0.1-0.1c0,0,0-0.1,0-0.1c-0.5-0.9-1.2-1.3-2.2-1.3c-1.5,0-2.5,0.9-2.5,2.3
			c0,1.4,0.9,2,2.7,2.6c1,0.3,1.5,0.5,1.5,1.2c0,0.8-0.7,1.4-1.7,1.4c-1,0-1.4-0.6-1.8-1.5c-0.7-1.5-1.4-3.3-1.4-3.3
			c-0.8-1.8-2.3-2.8-4.2-2.8c-2.5,0-4.5,2-4.5,4.5c0,2.5,2,4.5,4.5,4.5c1.4,0,2.6-0.6,3.5-1.7c0,0,0-0.1,0-0.1l-0.6-1.3
			c0,0-0.1-0.1-0.1-0.1c0,0-0.1,0-0.1,0.1c-0.5,1-1.6,1.7-2.7,1.7c-1.7,0-3.1-1.4-3.1-3.1c0-1.7,1.4-3.1,3.1-3.1
			c1.2,0,2.4,0.7,2.8,1.8l1.4,3.2l0.2,0.4c0.6,1.5,1.6,2.1,3,2.1c1.7,0,3.1-1.2,3.1-2.7C-396.6-94.7-397.5-95.2-398.9-95.7z"/>
	</g>
	<g>
		<path class="st27" d="M-404,10c8.3,0,15-6.7,15-15s-6.7-15-15-15c-8.3,0-15,6.7-15,15S-412.3,10-404,10"/>
		<path class="st2" d="M-410.8-2.5C-410.7-2.5-410.7-2.6-410.8-2.5l0.2-1.4l-0.2-1.3c0,0,0-0.1-0.1-0.1c0,0-0.1,0-0.1,0.1l-0.1,1.3
			L-410.8-2.5C-410.8-2.6-410.8-2.5-410.8-2.5z M-411.3-3.1L-411.3-3.1L-411.3-3.1L-411.3-3.1z M-411.3-3
			C-411.3-3-411.3-3.1-411.3-3l0.2-0.9l-0.1-0.8c0,0,0-0.1-0.1-0.1c0,0-0.1,0-0.1,0.1l-0.1,0.8L-411.3-3C-411.4-3.1-411.4-3-411.3-3
			z M-410.1-5.5C-410.1-5.6-410.1-5.6-410.1-5.5c-0.1-0.1-0.1,0-0.1,0l-0.1,1.6l0.1,1.5c0,0,0,0.1,0.1,0.1c0,0,0.1,0,0.1-0.1
			l0.2-1.5L-410.1-5.5z M-409.6-2.3C-409.5-2.3-409.5-2.3-409.6-2.3L-409.6-2.3l0.2-1.7l-0.1-1.6c0-0.1,0-0.1-0.1-0.1
			c0,0-0.1,0-0.1,0.1l-0.1,1.6L-409.6-2.3C-409.7-2.3-409.6-2.3-409.6-2.3z M-409-2.2c0.1,0,0.1,0,0.1-0.1l0,0l0.1-1.6l-0.1-1.5
			c0-0.1,0-0.1-0.1-0.1c-0.1,0-0.1,0-0.1,0.1l-0.1,1.5l0.1,1.6C-409.1-2.3-409-2.2-409-2.2z M-408.1-3.9l-0.1-2.5
			c0-0.1-0.1-0.1-0.1-0.1c-0.1,0-0.1,0.1-0.1,0.1l-0.1,2.5l0.1,1.6c0,0.1,0.1,0.1,0.1,0.1s0.1-0.1,0.1-0.1l0,0L-408.1-3.9z
			 M-407.8-2.2c0.1,0,0.1-0.1,0.1-0.1v0l0.1-1.6l-0.1-3c0-0.1-0.1-0.1-0.1-0.1c-0.1,0-0.1,0.1-0.1,0.1l-0.1,3l0.1,1.6
			C-407.9-2.3-407.8-2.2-407.8-2.2z M-407.2-7.4c-0.1,0-0.1,0.1-0.1,0.1l-0.1,3.3l0.1,1.6c0,0.1,0.1,0.1,0.1,0.1
			c0.1,0,0.1-0.1,0.1-0.1l0,0l0.1-1.6l-0.1-3.3C-407-7.3-407.1-7.4-407.2-7.4z M-406.5-2.2c0.1,0,0.1-0.1,0.2-0.2v0l0.1-1.6
			l-0.1-3.4c0-0.1-0.1-0.2-0.2-0.2s-0.1,0.1-0.2,0.2l-0.1,3.4l0.1,1.6C-406.7-2.3-406.6-2.2-406.5-2.2z M-405.9-2.2
			c0.1,0,0.2-0.1,0.2-0.2l0,0l0.1-1.6l-0.1-3.3c0-0.1-0.1-0.2-0.2-0.2c-0.1,0-0.2,0.1-0.2,0.2l-0.1,3.3l0.1,1.6
			C-406.1-2.3-406-2.2-405.9-2.2z M-405-3.9l-0.1-3.2c0-0.1-0.1-0.2-0.2-0.2c-0.1,0-0.2,0.1-0.2,0.2l-0.1,3.2l0.1,1.5
			c0,0.1,0.1,0.2,0.2,0.2c0.1,0,0.2-0.1,0.2-0.2v0L-405-3.9z M-404.7-2.2c0.1,0,0.2-0.1,0.2-0.2v0l0.1-1.5l-0.1-3.8
			c0-0.1-0.1-0.2-0.2-0.2c-0.1,0-0.2,0.1-0.2,0.2l-0.1,3.8c0,0,0.1,1.5,0.1,1.5C-404.9-2.3-404.8-2.2-404.7-2.2z M-404-8.3
			c-0.1,0-0.2,0.1-0.2,0.2l-0.1,4.2l0.1,1.5c0,0.1,0.1,0.2,0.2,0.2c0.1,0,0.2-0.1,0.2-0.2v0l0.1-1.5l-0.1-4.2
			C-403.8-8.2-403.9-8.3-404-8.3z M-403.5-2.2c0,0,5.1,0,5.1,0c1,0,1.8-0.8,1.8-1.8c0-1-0.8-1.8-1.8-1.8c-0.3,0-0.5,0.1-0.7,0.1
			c-0.1-1.7-1.5-3-3.2-3c-0.4,0-0.8,0.1-1.2,0.2c-0.1,0.1-0.2,0.1-0.2,0.2v5.9C-403.7-2.3-403.6-2.2-403.5-2.2z"/>
	</g>
	<g>
		<path class="st28" d="M-404,100c8.3,0,15-6.7,15-15c0-8.3-6.7-15-15-15c-8.3,0-15,6.7-15,15C-419,93.3-412.3,100-404,100"/>
		<path class="st2" d="M-411.5,85c0,3,1.7,5.5,4.2,6.8l-3.6-9.8C-411.3,82.9-411.5,83.9-411.5,85z M-398.9,84.6
			c0-0.9-0.3-1.6-0.6-2.1c-0.4-0.6-0.7-1.1-0.7-1.8c0-0.7,0.5-1.3,1.3-1.3c0,0,0.1,0,0.1,0c-1.3-1.2-3.1-2-5.1-2
			c-2.6,0-4.9,1.3-6.3,3.4c0.2,0,0.3,0,0.5,0c0.8,0,2-0.1,2-0.1c0.4,0,0.5,0.6,0,0.6c0,0-0.4,0-0.9,0.1l2.7,8.1l1.6-4.9l-1.2-3.2
			c-0.4,0-0.8-0.1-0.8-0.1c-0.4,0-0.4-0.6,0-0.6c0,0,1.2,0.1,2,0.1c0.8,0,2-0.1,2-0.1c0.4,0,0.5,0.6,0,0.6c0,0-0.4,0-0.9,0.1
			l2.7,8.1l0.8-2.5C-399.1,86.1-398.9,85.3-398.9,84.6z M-403.9,85.7l-2.2,6.5c0.7,0.2,1.4,0.3,2.1,0.3c0.9,0,1.7-0.1,2.5-0.4
			c0,0,0-0.1-0.1-0.1L-403.9,85.7z M-397.4,81.4c0,0.2,0.1,0.5,0.1,0.8c0,0.8-0.1,1.6-0.6,2.7l-2.3,6.6c2.2-1.3,3.7-3.7,3.7-6.5
			C-396.5,83.7-396.8,82.5-397.4,81.4z"/>
	</g>
	<g>
		<path class="st29" d="M-404,190c8.3,0,15-6.7,15-15s-6.7-15-15-15c-8.3,0-15,6.7-15,15S-412.3,190-404,190"/>
		<g>
			<path class="st2" d="M-409.2,170.8v2h-2.3v4.5h3.7v-6.5H-409.2z M-409.2,176.1h-0.8V174h0.8V176.1z"/>
			<path class="st2" d="M-404.7,172.8v4.5h2.3v0.7h-2.3v1.3h3.1h0.6v-6.5H-404.7z M-402.5,176.1h-0.8V174h0.8V176.1z"/>
			<path class="st2" d="M-400.2,172.8v4.5h2.3v0.7h-2.3v1.3h3.1h0.6v-6.5H-400.2z M-398,176.1h-0.8V174h0.8L-398,176.1L-398,176.1z"
				/>
			<rect x="-407" y="172.7" class="st2" width="1.5" height="4.6"/>
			<rect x="-407" y="170.8" class="st2" width="1.5" height="1.2"/>
		</g>
	</g>
	<g>
		<path class="st30" d="M-404,280c8.3,0,15-6.7,15-15c0-8.3-6.7-15-15-15c-8.3,0-15,6.7-15,15C-419,273.3-412.3,280-404,280"/>
		<path class="st2" d="M-404.4,267.6c0-1.3-1.1-2.4-2.5-2.5l-0.5,0c-0.5,0-0.9-0.5-0.9-0.9c0-0.5,0.4-0.9,0.9-0.9h3.5
			c0.5,0,0.9,0.4,0.9,0.9v3.2c0,1.4,1.2,2.6,2.6,2.6h0.4c1.4,0,2.6-1.2,2.6-2.6v-10.7c-0.1,0-0.1,0-0.2,0h-1.5v10.8
			c0,0.5-0.4,0.9-0.9,0.9h-0.4c-0.5,0-0.9-0.4-0.9-0.9v-3.2c0-1.4-1.2-2.6-2.6-2.6h-3.5c-1.4,0-2.6,1.1-2.6,2.5
			c0,1.4,1.1,2.5,2.5,2.6l0.5,0c0.5,0,0.9,0.4,0.9,0.8c0,0.4-0.5,0.8-1,0.8h-5.5v1.7h5.5C-405.6,270-404.4,268.9-404.4,267.6z"/>
	</g>
	<g>
		<path class="st31" d="M-404,370.1c8.3,0,15-6.7,15-15c0-8.3-6.7-15-15-15c-8.3,0-15,6.7-15,15C-419,363.3-412.3,370.1-404,370.1"
			/>
		<g>
			<path class="st2" d="M-403.3,354.2c-0.2-0.1-0.5-0.2-0.8-0.2c-0.5,0-0.9,0.1-1.2,0.5h0V352h-1.5v2.1c0,0,0,0,0.1,0
				c0.6,0.2,0.9,0.5,1,0.9c0.2,0.4,0.2,0.8,0.2,1.3l0,0c0,0.1-0.1,0.2-0.2,0.2h-1.1v0v0.1h1.1l0,0h0c0.1,0,0.2,0.1,0.2,0.2
				c0,0.3-0.1,0.5-0.3,0.7c-0.2,0.2-0.4,0.4-0.8,0.5c0,0-0.1,0-0.1,0l0,0v0.8h1.4v-0.5h0c0.3,0.5,0.7,0.6,1.2,0.6
				c1.1,0,1.4-0.9,1.4-1.7l0,0l0,0h0c-0.5-0.1-0.8-0.4-1-0.8l0,0c0-0.1-0.1-0.2-0.1-0.2c-0.1-0.2-0.1-0.4-0.1-0.6l0,0v0
				c0-0.3,0.1-0.6,0.2-0.8C-403.6,354.5-403.5,354.3-403.3,354.2L-403.3,354.2z M-404.1,356.4c0,1.2-0.1,1.7-0.6,1.7
				c-0.5,0-0.6-0.5-0.6-1.7c0-0.9,0-1.6,0.6-1.6C-404.1,354.8-404.1,355.5-404.1,356.4L-404.1,356.4z"/>
			<path class="st2" d="M-405.7,356.8h-1.1h-0.8h0h-0.9c0,0.4-0.2,0.8-1.1,0.8c-1.2,0-1.2-0.7-1.2-1.3h4h1.1c0.1-0.9-0.1-1.6-1.1-2
				c-0.2-0.1-0.5-0.2-0.8-0.2c-0.5-0.1-1.2-0.2-2-0.2c-3.5,0-3.9,1-3.9,2.1c0,1.3,0.4,2.3,3.9,2.3c0.8,0,1.5-0.1,2-0.2
				c0.3-0.1,0.5-0.1,0.8-0.2c0,0,0,0,0,0C-406.1,357.6-405.8,357.2-405.7,356.8L-405.7,356.8z M-409.6,354.6c1.3,0,1.2,0.6,1.2,1
				h-2.4C-410.8,355.3-410.8,354.6-409.6,354.6L-409.6,354.6z"/>
			<path class="st2" d="M-403.2,354.3c-0.4,0.2-0.5,0.6-0.5,1.3c0,0.7,0.3,1.4,1,1.5c0.1,0,0.2,0,0.4,0c0.6,0,1.1-0.2,1.4-0.7h0
				l0.1,0.6h1.4c0-0.3-0.1-0.6-0.1-0.9v-0.9l-0.1-0.3l0,0l-1.5-2.7l-0.1-0.1c-0.1,0-0.3,0-0.5,0c-0.6,0-1,0.1-1.4,0.3
				c-0.4,0.2-0.6,0.6-0.6,1.2h1.5c0-0.4,0-0.7,0.5-0.7c0.5,0,0.6,0.3,0.6,0.7v0.4C-401.9,353.9-402.7,353.9-403.2,354.3
				L-403.2,354.3z M-401.8,356.3c-0.5,0-0.6-0.4-0.6-0.8c0-0.8,0.6-0.8,1.3-0.8C-401,355.2-400.9,356.3-401.8,356.3L-401.8,356.3z"
				/>
			<polygon class="st2" points="-396.5,351.5 -397.9,354.4 -399.3,351.5 -401.4,351.5 -401.1,352.1 -399.6,354.8 -399,355.9 
				-399,358.3 -397.1,358.3 -397.1,355.9 -394.5,351.5 			"/>
		</g>
	</g>
	<g>
		<path class="st32" d="M-404,460.1c8.3,0,15-6.7,15-15c0-8.3-6.7-15-15-15c-8.3,0-15,6.7-15,15C-419,453.3-412.3,460.1-404,460.1"
			/>
		<g>
			<g>
				<path class="st2" d="M-400.9,438.1c-1-0.4-2-0.7-3.1-0.7c-0.9,0-1.8,0.2-2.6,0.5c0.2,0.2,5.5,5,5.7,5.2
					C-400.9,442.8-400.9,438.2-400.9,438.1L-400.9,438.1z"/>
			</g>
			<g>
				<path class="st2" d="M-407.9,451.3c0-0.3,0-6.1,0-6.5c-0.2,0.2-3,2.7-3.1,2.8C-410.4,449.2-409.3,450.5-407.9,451.3
					L-407.9,451.3z"/>
			</g>
			<g>
				<path class="st2" d="M-411.5,444.9c0,0.6,0.1,1.3,0.3,1.9c0.2-0.2,6.5-5.9,6.6-6c-0.1-0.1-2.8-2.5-2.8-2.6
					C-409.9,439.5-411.5,442.1-411.5,444.9L-411.5,444.9z"/>
			</g>
			<g>
				<path class="st2" d="M-407.1,448.2c0,0.2,0,3.5,0,3.6c0.8,0.3,1.6,0.6,2.4,0.6h1.4c2.6-0.2,4.9-1.8,6.1-4.2
					C-397.5,448.2-406.9,448.2-407.1,448.2L-407.1,448.2z"/>
			</g>
			<g>
				<path class="st2" d="M-400.1,438.5c0,0.3,0,8.7,0,8.9c0.2,0,3.1,0,3.2,0c0.3-0.8,0.4-1.6,0.4-2.5
					C-396.5,442.3-397.9,439.9-400.1,438.5L-400.1,438.5z"/>
			</g>
		</g>
	</g>
	<g>
		<path class="st33" d="M-404,550.1c8.3,0,15-6.7,15-15c0-8.3-6.7-15-15-15c-8.3,0-15,6.7-15,15C-419,543.4-412.3,550.1-404,550.1"
			/>
		<path class="st2" d="M-396.5,531.3c0-0.6-0.2-1.2-0.5-1.6c-0.8-1.3-2.3-2-3.7-2h-7.5l-3.3,14.8h4.4l1.1-4.9h3.2c0,0,0.1,0,0.1,0
			c1.8,0,3.4-0.7,4.5-1.9c0.7-0.8,1.3-1.8,1.6-3C-396.5,532.2-396.5,531.7-396.5,531.3z M-400.8,532.7c-0.1,0.5-0.4,0.9-0.8,1.3
			c-0.1,0.1-0.3,0.2-0.4,0.3c-0.4,0.2-0.9,0.4-1.3,0.4h-2.1l0.9-3.8l0.1-0.3h2.2c0.4,0,0.7,0.1,1,0.3
			C-400.8,531.3-400.6,532-400.8,532.7z"/>
	</g>
	<g>
		<path class="st34" d="M-404,640.1c8.3,0,15-6.7,15-15c0-8.3-6.7-15-15-15c-8.3,0-15,6.7-15,15C-419,633.4-412.3,640.1-404,640.1"
			/>
		<path class="st2" d="M-406.1,623.4c3.4-1,6.2,1,6.2,1l-2.3,0.6l-0.7-1.2c-0.6-0.1-1.4-0.2-2.1,0l1.6,3.2l6.9-2
			c0,0-2.5-3.9-9.9-2.7c0,0-0.1,0-0.1,0l-0.7-1.5l-2.1,0.2l0.9,1.8c-4.5,1.9-2.5,6.3-2.5,6.3l6.9-2L-406.1,623.4z M-409.2,626.9
			c0,0-0.7-1.5,1.3-2.7l1,2.1L-409.2,626.9z"/>
	</g>
	<g>
		<path class="st35" d="M-404,820.1c8.3,0,15-6.7,15-15c0-8.3-6.7-15-15-15s-15,6.7-15,15C-419,813.4-412.3,820.1-404,820.1"/>
		<path class="st2" d="M-396.8,797.6h-14.4c-0.2,0-0.3,0.1-0.3,0.3v14.4c0,0.2,0.1,0.3,0.3,0.3h14.4c0.2,0,0.3-0.1,0.3-0.3v-14.4
			C-396.5,797.7-396.6,797.6-396.8,797.6z M-404,812v-6.9h-6.9v-6.9h6.9v6.9h6.9v6.9H-404z"/>
	</g>
	<g>
		<path class="st36" d="M-404,730.1c8.3,0,15-6.7,15-15c0-8.3-6.7-15-15-15c-8.3,0-15,6.7-15,15C-419,723.4-412.3,730.1-404,730.1"
			/>
		<g>
			<polygon class="st2" points="-406.2,717.8 -406.3,717.8 -406.3,717.9 -408.4,721.5 -408.5,721.7 -408.3,721.7 -398.8,721.7 
				-398.7,721.7 -398.7,721.6 -396.6,718 -396.5,717.8 -396.7,717.8 			"/>
			<polygon class="st2" points="-401,716.9 -400.9,717 -400.8,717 -396.7,717 -396.5,717 -396.6,716.8 -401.4,708.6 -401.4,708.5 
				-401.5,708.5 -405.6,708.5 -405.8,708.5 -405.7,708.7 			"/>
			<polygon class="st2" points="-404.4,712.8 -404.4,712.7 -406.5,709.2 -406.6,708.9 -406.7,709.2 -411.5,717.4 -411.5,717.4 
				-411.5,717.5 -409.4,721 -409.3,721.3 -409.1,721 -404.4,712.8 			"/>
		</g>
	</g>
</g>
<g>
	<path class="st0" d="M-434-230c8.3,0,15-6.7,15-15c0-8.3-6.7-15-15-15s-15,6.7-15,15C-449-236.7-442.3-230-434-230"/>
	<path class="st37" d="M-426.5-248.9c-0.6,0.2-1.1,0.4-1.8,0.5c0.6-0.4,1.1-1,1.4-1.7c-0.6,0.4-1.3,0.6-2,0.7c-0.6-0.6-1.4-1-2.2-1
		c-1.7,0-3.1,1.4-3.1,3.1c0,0.2,0,0.5,0.1,0.7c-2.6-0.1-4.8-1.4-6.4-3.2c-0.3,0.5-0.4,1-0.4,1.6c0,1.1,0.5,2,1.4,2.6
		c-0.5,0-1-0.2-1.4-0.4v0c0,1.5,1.1,2.7,2.5,3c-0.3,0.1-0.5,0.1-0.8,0.1c-0.2,0-0.4,0-0.6-0.1c0.4,1.2,1.5,2.1,2.9,2.1
		c-1.1,0.8-2.4,1.3-3.8,1.3c-0.2,0-0.5,0-0.7,0c1.4,0.9,3,1.4,4.7,1.4c5.7,0,8.8-4.7,8.8-8.8c0-0.1,0-0.3,0-0.4
		C-427.4-247.8-426.9-248.3-426.5-248.9"/>
	<path class="st0" d="M-434-140c8.3,0,15-6.7,15-15c0-8.3-6.7-15-15-15c-8.3,0-15,6.7-15,15C-449-146.7-442.3-140-434-140"/>
	<path class="st37" d="M-434-162.5c-4.1,0-7.5,3.4-7.5,7.5c0,3.1,1.8,5.7,4.5,6.9c0-0.5,0-1.2,0.1-1.7c0.1-0.6,1-4.1,1-4.1
		s-0.2-0.5-0.2-1.2c0-1.1,0.6-1.9,1.4-1.9c0.7,0,1,0.5,1,1.1c0,0.7-0.4,1.7-0.7,2.7c-0.2,0.8,0.4,1.4,1.2,1.4c1.4,0,2.4-1.8,2.4-4
		c0-1.6-1.1-2.9-3.1-2.9c-2.3,0-3.7,1.7-3.7,3.6c0,0.7,0.2,1.1,0.5,1.5c0.1,0.2,0.2,0.2,0.1,0.4c0,0.1-0.1,0.5-0.2,0.6
		c-0.1,0.2-0.2,0.3-0.4,0.2c-1-0.4-1.5-1.6-1.5-2.9c0-2.1,1.8-4.7,5.4-4.7c2.9,0,4.8,2.1,4.8,4.3c0,2.9-1.6,5.1-4,5.1
		c-0.8,0-1.6-0.4-1.8-0.9c0,0-0.4,1.7-0.5,2.1c-0.2,0.6-0.5,1.2-0.8,1.6c0.7,0.2,1.4,0.3,2.1,0.3c4.1,0,7.5-3.4,7.5-7.5
		S-429.9-162.5-434-162.5"/>
	<path class="st0" d="M-434-50c8.3,0,15-6.7,15-15c0-8.3-6.7-15-15-15c-8.3,0-15,6.7-15,15C-449-56.7-442.3-50-434-50"/>
	<path class="st37" d="M-437.6-67.5h1.6V-69c0-0.7,0-1.7,0.5-2.3c0.5-0.7,1.2-1.1,2.4-1.1c2,0,2.8,0.3,2.8,0.3l-0.4,2.3
		c0,0-0.6-0.2-1.2-0.2c-0.6,0-1.1,0.2-1.1,0.8v1.8h2.5l-0.2,2.2h-2.3v7.8h-2.9v-7.8h-1.6L-437.6-67.5L-437.6-67.5z"/>
	<path class="st0" d="M-434,130c8.3,0,15-6.7,15-15c0-8.3-6.7-15-15-15c-8.3,0-15,6.7-15,15C-449,123.3-442.3,130-434,130"/>
	<path class="st37" d="M-431.1,115l-4.9,2.9v-5.8L-431.1,115z M-426.5,117.7v-5.4c0,0,0-2.6-2.6-2.6h-9.8c0,0-2.6,0-2.6,2.6v5.4
		c0,0,0,2.6,2.6,2.6h9.8C-429.1,120.3-426.5,120.3-426.5,117.7"/>
	<path class="st0" d="M-434,40c8.3,0,15-6.7,15-15c0-8.3-6.7-15-15-15c-8.3,0-15,6.7-15,15C-449,33.3-442.3,40-434,40"/>
	<path class="st37" d="M-436.5,31.7c-1.8,0-3.1-1.1-3.1-2.5c0-1.3,1.6-2.4,3.4-2.4c0.4,0,0.8,0.1,1.2,0.2c1,0.7,1.7,1.1,1.9,1.8
		c0,0.2,0.1,0.3,0.1,0.5C-433.1,30.7-434,31.7-436.5,31.7 M-436,23.8c-1.2,0-2.3-1.3-2.5-2.9c-0.2-1.6,0.6-2.8,1.8-2.7
		c1.2,0,2.3,1.3,2.5,2.9C-434,22.6-434.8,23.8-436,23.8 M-433.5,26.1c-0.4-0.3-1.2-1-1.2-1.4c0-0.5,0.1-0.7,0.9-1.3
		c0.8-0.6,1.3-1.4,1.3-2.4c0-1.2-0.5-2.3-1.5-2.7h1.5l1-0.8h-4.6c-2.1,0-4,1.6-4,3.4c0,1.9,1.4,3.4,3.5,3.4c0.1,0,0.3,0,0.4,0
		c-0.1,0.3-0.2,0.6-0.2,0.9c0,0.5,0.3,0.9,0.6,1.3c-0.3,0-0.5,0-0.8,0c-2.6,0-4.6,1.6-4.6,3.3c0,1.7,2.2,2.7,4.8,2.7
		c2.9,0,4.6-1.7,4.6-3.3C-431.9,27.8-432.3,27-433.5,26.1 M-426.8,23.9h-1.8v-1.8h-1.5v1.8h-1.8v1.5h1.8v1.8h1.5v-1.8h1.8V23.9z"/>
	<path class="st0" d="M-434,400.1c8.3,0,15-6.7,15-15s-6.7-15-15-15c-8.3,0-15,6.7-15,15S-442.3,400.1-434,400.1"/>
	<path class="st37" d="M-427.6,388.6c-0.4,0.8-0.5,1.1-1,1.8c-0.6,1-1.5,2.2-2.6,2.2c-1,0-1.2-0.6-2.6-0.6c-1.3,0-1.6,0.6-2.6,0.6
		c-1.1,0-2-1.1-2.6-2.1c-1.8-2.7-2-5.9-0.9-7.5c0.8-1.2,2-1.9,3.2-1.9c1.2,0,1.9,0.6,2.9,0.6c0.9,0,1.5-0.6,2.9-0.6
		c1,0,2.1,0.6,2.9,1.5C-430.5,384-430.1,387.6-427.6,388.6L-427.6,388.6z M-431.9,380c0.5-0.6,0.9-1.5,0.7-2.4
		c-0.8,0.1-1.7,0.6-2.3,1.2c-0.5,0.6-0.9,1.5-0.8,2.4C-433.3,381.2-432.4,380.7-431.9,380L-431.9,380z"/>
	<path class="st0" d="M-434,310c8.3,0,15-6.7,15-15c0-8.3-6.7-15-15-15s-15,6.7-15,15C-449,303.3-442.3,310-434,310"/>
	<path class="st37" d="M-433.8,287.5v3.8h3.6v2.4h-3.6v3.8c0,0.9,0,1.4,0.1,1.7c0.1,0.2,0.3,0.4,0.5,0.6c0.3,0.2,0.7,0.3,1.1,0.3
		c0.8,0,1.5-0.2,2.3-0.7v2.4c-0.6,0.3-1.2,0.5-1.7,0.6c-0.5,0.1-1.1,0.2-1.7,0.2c-0.7,0-1.3-0.1-1.8-0.3c-0.5-0.2-1-0.4-1.3-0.7
		c-0.4-0.3-0.6-0.7-0.8-1c-0.1-0.4-0.2-0.9-0.2-1.6v-5.3h-1.7v-2.1c0.6-0.2,1.1-0.5,1.5-0.8c0.4-0.4,0.8-0.8,1-1.3
		c0.3-0.5,0.4-1.1,0.5-1.9L-433.8,287.5L-433.8,287.5z"/>
	<path class="st0" d="M-434,490.1c8.3,0,15-6.7,15-15s-6.7-15-15-15s-15,6.7-15,15S-442.3,490.1-434,490.1"/>
	<path class="st37" d="M-434.6,471.3c0.3,0.4,0.4,0.9,0.4,1.4c0,0.6-0.1,1-0.4,1.4c-0.2,0.2-0.4,0.4-0.7,0.5
		c0.5,0.2,0.8,0.4,1.1,0.8s0.4,0.8,0.4,1.4c0,0.5-0.1,1-0.4,1.5c-0.2,0.3-0.4,0.5-0.7,0.7c-0.3,0.2-0.6,0.4-1,0.5
		c-0.4,0.1-0.8,0.1-1.3,0.1h-4.2v-9.3h4.5C-435.9,470.3-435.1,470.7-434.6,471.3z M-439.7,471.9v2h2.3c0.4,0,0.7-0.1,1-0.2
		c0.2-0.2,0.4-0.4,0.4-0.8c0-0.4-0.2-0.7-0.5-0.9c-0.3-0.1-0.7-0.1-1.1-0.1L-439.7,471.9L-439.7,471.9z M-439.7,475.5v2.5h2.2
		c0.4,0,0.7-0.1,0.9-0.2c0.4-0.2,0.6-0.6,0.6-1.2c0-0.5-0.2-0.8-0.6-1c-0.2-0.1-0.5-0.2-0.9-0.2L-439.7,475.5L-439.7,475.5z
		 M-428.3,472.9c0.5,0.2,0.9,0.6,1.2,1c0.3,0.4,0.5,0.9,0.5,1.4c0,0.3,0.1,0.8,0.1,1.4h-5c0,0.7,0.3,1.2,0.7,1.4
		c0.3,0.2,0.6,0.3,1,0.3c0.4,0,0.7-0.1,1-0.3c0.1-0.1,0.3-0.3,0.4-0.5h1.8c0,0.4-0.3,0.8-0.7,1.2c-0.6,0.7-1.5,1-2.6,1
		c-0.9,0-1.7-0.3-2.4-0.8c-0.7-0.6-1-1.5-1-2.7c0-1.2,0.3-2.1,0.9-2.7c0.6-0.6,1.4-1,2.5-1C-429.3,472.5-428.8,472.7-428.3,472.9z
		 M-431,474.4c-0.3,0.3-0.4,0.6-0.5,1.1h3.1c0-0.5-0.2-0.8-0.5-1.1c-0.3-0.2-0.6-0.4-1.1-0.4C-430.4,474-430.7,474.2-431,474.4z
		 M-427.9,470.7h-4v1.2h4V470.7z"/>
	<path class="st0" d="M-434,580.1c8.3,0,15-6.7,15-15s-6.7-15-15-15c-8.3,0-15,6.7-15,15S-442.3,580.1-434,580.1"/>
	<path class="st37" d="M-426.5,561.9c-0.1,1.5-1.1,3.5-3.1,6c-2,2.6-3.8,4-5.2,4c-0.9,0-1.6-0.8-2.2-2.4c-0.4-1.5-0.8-3-1.2-4.4
		c-0.4-1.6-0.9-2.4-1.4-2.4c-0.1,0-0.5,0.2-1.2,0.7l-0.7-0.9c0.7-0.6,1.5-1.3,2.2-1.9c1-0.9,1.7-1.3,2.2-1.3
		c1.2-0.1,1.9,0.7,2.2,2.4c0.3,1.8,0.5,3,0.6,3.4c0.3,1.5,0.7,2.3,1.1,2.3c0.3,0,0.8-0.5,1.4-1.5c0.6-1,1-1.7,1-2.3
		c0.1-0.9-0.2-1.3-1-1.3c-0.4,0-0.7,0.1-1.1,0.2c0.7-2.4,2.2-3.6,4.2-3.5C-427.1,559-426.4,560-426.5,561.9z"/>
	<path class="st0" d="M-434,220c8.3,0,15-6.7,15-15c0-8.3-6.7-15-15-15c-8.3,0-15,6.7-15,15C-449,213.3-442.3,220-434,220"/>
	<path class="st37" d="M-430.9,200v2.9c-0.1,0.1-0.2,0.1-0.2,0.2c-0.1,0.1-0.2,0.1-0.2,0.1c-0.1,0-0.1,0-0.2-0.1
		c0,0-0.1-0.1-0.1-0.2V200h-0.8v3.1c0,0.2,0,0.4,0.1,0.5c0.1,0.1,0.2,0.2,0.4,0.2c0.2,0,0.3,0,0.5-0.1c0.1-0.1,0.3-0.2,0.4-0.4v0.4
		h0.8V200L-430.9,200L-430.9,200z M-433.3,200.2c-0.2-0.2-0.5-0.3-0.8-0.3c-0.4,0-0.6,0.1-0.8,0.3c-0.2,0.2-0.3,0.4-0.3,0.7v2
		c0,0.3,0.1,0.6,0.3,0.8c0.2,0.2,0.5,0.3,0.8,0.3c0.3,0,0.6-0.1,0.8-0.3c0.2-0.2,0.3-0.4,0.3-0.8v-1.9
		C-433,200.6-433.1,200.3-433.3,200.2z M-433.8,202.9c0,0.1,0,0.2-0.1,0.2c-0.1,0.1-0.1,0.1-0.2,0.1c-0.1,0-0.2,0-0.2-0.1
		c-0.1-0.1-0.1-0.1-0.1-0.2v-2.1c0-0.1,0-0.1,0.1-0.2c0.1-0.1,0.1-0.1,0.2-0.1c0.1,0,0.2,0,0.2,0.1c0.1,0,0.1,0.1,0.1,0.2
		C-433.8,200.8-433.8,202.9-433.8,202.9z M-436.2,198.6l-0.5,2h-0.1l-0.6-2h-0.9l1,3.1v2h0.9v-2.1l1-3L-436.2,198.6L-436.2,198.6z
		 M-430.1,207.6c0,0.1,0.1,0.2,0.1,0.3v0.3h-0.6v-0.3c0-0.1,0-0.2,0.1-0.3c0-0.1,0.1-0.1,0.2-0.1
		C-430.3,207.5-430.2,207.6-430.1,207.6z M-432.5,207.6c0-0.1-0.1-0.1-0.2-0.1c0,0-0.1,0-0.1,0c0,0-0.1,0.1-0.1,0.1v2.1
		c0.1,0.1,0.1,0.1,0.2,0.1c0.1,0,0.1,0,0.2,0c0.1,0,0.2,0,0.2-0.1c0,0,0.1-0.1,0.1-0.2v-1.8C-432.4,207.8-432.5,207.7-432.5,207.6z
		 M-432.5,207.6c0-0.1-0.1-0.1-0.2-0.1c0,0-0.1,0-0.1,0c0,0-0.1,0.1-0.1,0.1v2.1c0.1,0.1,0.1,0.1,0.2,0.1c0.1,0,0.1,0,0.2,0
		c0.1,0,0.2,0,0.2-0.1c0,0,0.1-0.1,0.1-0.2v-1.8C-432.4,207.8-432.5,207.7-432.5,207.6z M-428.6,205h-10.7c-1.2,0-2.1,1-2.1,2.1v2.2
		c0,1.2,1,2.1,2.1,2.1h10.7c1.2,0,2.1-1,2.1-2.1v-2.2C-426.5,205.9-427.5,205-428.6,205z M-436.5,206.5h-0.8v4h-0.8v-4h-0.8v-0.7
		h2.4L-436.5,206.5L-436.5,206.5z M-434.2,210.4h-0.7v-0.4c-0.1,0.1-0.3,0.2-0.4,0.3c-0.1,0.1-0.3,0.1-0.4,0.1
		c-0.2,0-0.3-0.1-0.4-0.2c-0.1-0.1-0.1-0.2-0.1-0.5V207h0.7v2.6c0,0.1,0,0.1,0,0.2c0,0,0.1,0.1,0.1,0.1c0.1,0,0.1,0,0.2-0.1
		c0.1,0,0.1-0.1,0.2-0.2V207h0.7L-434.2,210.4L-434.2,210.4z M-431.7,209.7c0,0.2-0.1,0.4-0.2,0.6c-0.1,0.1-0.3,0.2-0.5,0.2
		c-0.1,0-0.2,0-0.4-0.1c-0.1-0.1-0.2-0.1-0.3-0.2v0.3h-0.7v-4.6h0.7v1.5c0.1-0.1,0.2-0.2,0.3-0.2c0.1-0.1,0.2-0.1,0.3-0.1
		c0.2,0,0.4,0.1,0.5,0.2c0.1,0.1,0.2,0.4,0.2,0.6C-431.7,207.8-431.7,209.7-431.7,209.7z M-429.4,208.8h-1.3v0.6
		c0,0.2,0,0.3,0.1,0.4c0,0.1,0.1,0.1,0.2,0.1c0.1,0,0.2,0,0.2-0.1c0-0.1,0.1-0.2,0.1-0.4v-0.2h0.7v0.2c0,0.4-0.1,0.6-0.3,0.8
		c-0.2,0.2-0.4,0.3-0.8,0.3c-0.3,0-0.6-0.1-0.7-0.3c-0.2-0.2-0.3-0.4-0.3-0.8v-1.5c0-0.3,0.1-0.5,0.3-0.7c0.2-0.2,0.4-0.3,0.7-0.3
		c0.3,0,0.6,0.1,0.7,0.3c0.2,0.2,0.3,0.4,0.3,0.7L-429.4,208.8L-429.4,208.8z M-432.7,207.5c0,0-0.1,0-0.1,0c0,0-0.1,0.1-0.1,0.1
		v2.1c0.1,0.1,0.1,0.1,0.2,0.1c0.1,0,0.1,0,0.2,0c0.1,0,0.2,0,0.2-0.1c0,0,0.1-0.1,0.1-0.2v-1.8c0-0.1,0-0.2-0.1-0.3
		C-432.6,207.5-432.6,207.5-432.7,207.5z M-432.5,207.6c0-0.1-0.1-0.1-0.2-0.1c0,0-0.1,0-0.1,0c0,0-0.1,0.1-0.1,0.1v2.1
		c0.1,0.1,0.1,0.1,0.2,0.1c0.1,0,0.1,0,0.2,0c0.1,0,0.2,0,0.2-0.1c0,0,0.1-0.1,0.1-0.2v-1.8C-432.4,207.8-432.5,207.7-432.5,207.6z
		 M-432.5,207.6c0-0.1-0.1-0.1-0.2-0.1c0,0-0.1,0-0.1,0c0,0-0.1,0.1-0.1,0.1v2.1c0.1,0.1,0.1,0.1,0.2,0.1c0.1,0,0.1,0,0.2,0
		c0.1,0,0.2,0,0.2-0.1c0,0,0.1-0.1,0.1-0.2v-1.8C-432.4,207.8-432.5,207.7-432.5,207.6z"/>
	<path class="st0" d="M-434,670.1c8.3,0,15-6.7,15-15s-6.7-15-15-15c-8.3,0-15,6.7-15,15S-442.3,670.1-434,670.1"/>
	<g>
		<path class="st37" d="M-426.5,655.1c0,1.8-1.5,3.3-3.3,3.3c-1.8,0-3.3-1.5-3.3-3.3s1.5-3.3,3.3-3.3
			C-428,651.8-426.5,653.3-426.5,655.1z"/>
		<path class="st37" d="M-434.9,655.1c0,1.8-1.5,3.3-3.3,3.3c-1.8,0-3.3-1.5-3.3-3.3s1.5-3.3,3.3-3.3
			C-436.4,651.8-434.9,653.3-434.9,655.1z"/>
	</g>
	<path class="st0" d="M-434,760.1c8.3,0,15-6.7,15-15s-6.7-15-15-15s-15,6.7-15,15S-442.3,760.1-434,760.1"/>
	<path id="RSS_1_" class="st37" d="M-438.1,749.2c0.4,0.4,0.6,0.9,0.6,1.4c0,0.5-0.2,1-0.6,1.4l0,0c-0.4,0.4-0.9,0.6-1.4,0.6
		s-1-0.2-1.4-0.6c-0.4-0.4-0.6-0.9-0.6-1.4s0.2-1,0.6-1.4l0,0c0.4-0.4,0.9-0.6,1.4-0.6S-438.5,748.8-438.1,749.2z M-438.1,749.2
		L-438.1,749.2L-438.1,749.2L-438.1,749.2z M-440.9,752L-440.9,752L-440.9,752L-440.9,752z M-441.5,742.7v2.9c1.9,0,3.6,0.7,5,2.1
		c1.3,1.3,2.1,3.1,2.1,5l0,0v0h2.9c0-2.7-1.1-5.2-2.9-7C-436.3,743.8-438.8,742.7-441.5,742.7z M-441.5,737.6v2.9
		c6.7,0,12.1,5.4,12.1,12.1h2.9c0-4.1-1.7-7.9-4.4-10.6C-433.6,739.3-437.4,737.6-441.5,737.6z"/>
	<path class="st0" d="M-434-200c8.3,0,15-6.7,15-15c0-8.3-6.7-15-15-15c-8.3,0-15,6.7-15,15C-449-206.7-442.3-200-434-200"/>
	<path class="st37" d="M-438.2-208.7h-2.9v-9.4h2.9V-208.7z M-439.7-219.2L-439.7-219.2c-1.1,0-1.8-0.7-1.8-1.6
		c0-0.9,0.7-1.6,1.8-1.6c1.1,0,1.7,0.7,1.8,1.6C-438-220-438.6-219.2-439.7-219.2z M-426.5-208.7h-3.3v-4.8c0-1.3-0.5-2.1-1.7-2.1
		c-0.9,0-1.4,0.6-1.6,1.1c-0.1,0.2-0.1,0.5-0.1,0.8v5.1h-3.3c0,0,0-8.6,0-9.4h3.3v1.5c0.2-0.6,1.2-1.6,2.9-1.6
		c2.1,0,3.7,1.3,3.7,4.2C-426.5-213.9-426.5-208.7-426.5-208.7z"/>
	<path class="st0" d="M-434-110c8.3,0,15-6.7,15-15s-6.7-15-15-15c-8.3,0-15,6.7-15,15S-442.3-110-434-110"/>
	<path class="st37" d="M-426.6-126.3l-0.1-0.3l-0.2-0.2c-0.3-0.2-1.7,0-2-0.3c-0.3-0.2-0.3-0.7-0.4-1.3c-0.1-1.2-0.2-1.2-0.4-1.6
		c-0.7-1.4-2.4-2.4-3.7-2.6h-3.3c-2.6,0-4.7,2.1-4.7,4.7v5.5c0,2.6,2.1,4.7,4.7,4.7h5.4c2.6,0,4.7-2.1,4.7-4.7l0-3.8L-426.6-126.3z
		 M-436.7-128.6h2.6c0.5,0,0.9,0.4,0.9,0.9c0,0.5-0.4,0.9-0.9,0.9h-2.6c-0.5,0-0.9-0.4-0.9-0.9
		C-437.6-128.2-437.2-128.6-436.7-128.6z M-431.3-121.4h-5.3c-0.5,0-0.9-0.4-0.9-0.9c0-0.5,0.4-0.9,0.9-0.9h5.3
		c0.5,0,0.9,0.4,0.9,0.9C-430.4-121.8-430.8-121.4-431.3-121.4z"/>
	<path class="st0" d="M-434-20c8.3,0,15-6.7,15-15c0-8.3-6.7-15-15-15c-8.3,0-15,6.7-15,15C-449-26.7-442.3-20-434-20"/>
	<path class="st37" d="M-426.7-36.5c-0.1-0.5-0.2-1-0.4-1.4c-0.2-0.4-0.4-0.9-0.7-1.3c-0.3-0.4-0.6-0.8-0.9-1.1
		c-0.3-0.3-0.7-0.6-1.1-0.9c-0.4-0.3-0.8-0.5-1.3-0.7c-0.5-0.2-0.9-0.3-1.4-0.4c-0.5-0.1-1-0.2-1.5-0.2s-1,0.1-1.5,0.2
		c-0.5,0.1-1,0.2-1.4,0.4c-0.4,0.2-0.9,0.4-1.3,0.7c-0.4,0.3-0.8,0.6-1.1,0.9c-0.3,0.3-0.6,0.7-0.9,1.1c-0.3,0.4-0.5,0.8-0.7,1.3
		c-0.2,0.5-0.3,0.9-0.4,1.4c-0.1,0.5-0.2,1-0.2,1.5c0,0.5,0.1,1,0.2,1.5c0.1,0.5,0.2,1,0.4,1.4c0.2,0.4,0.4,0.9,0.7,1.3
		c0.3,0.4,0.6,0.8,0.9,1.1c0.3,0.3,0.7,0.6,1.1,0.9c0.4,0.3,0.8,0.5,1.3,0.7c0.5,0.2,0.9,0.3,1.4,0.4c0.5,0.1,1,0.2,1.5,0.2
		c0.5,0,1-0.1,1.5-0.2c0.5-0.1,1-0.2,1.4-0.4c0.4-0.2,0.9-0.4,1.3-0.7c0.4-0.3,0.8-0.6,1.1-0.9c0.3-0.3,0.6-0.7,0.9-1.1
		c0.3-0.4,0.5-0.8,0.7-1.3c0.2-0.5,0.3-0.9,0.4-1.4c0.1-0.5,0.2-1,0.2-1.5C-426.5-35.5-426.6-36-426.7-36.5z M-427.6-35
		c-0.1,0-2.3-0.5-4.5-0.2c0-0.1-0.1-0.2-0.1-0.3c-0.1-0.3-0.3-0.6-0.4-0.9c2.5-1,3.6-2.5,3.6-2.5C-428.2-38-427.6-36.6-427.6-35z
		 M-429.8-39.8c0,0-0.9,1.4-3.3,2.3c-1.1-2-2.3-3.6-2.4-3.7c0.5-0.1,1-0.2,1.5-0.2C-432.4-41.4-430.9-40.8-429.8-39.8z M-435.5-41.2
		L-435.5-41.2C-435.5-41.2-435.5-41.2-435.5-41.2C-435.5-41.2-435.5-41.2-435.5-41.2z M-436.7-40.8c0.1,0.1,1.3,1.7,2.4,3.7
		c-3.1,0.8-5.7,0.8-5.9,0.8C-439.9-38.3-438.5-39.9-436.7-40.8z M-440.4-35c0-0.1,0-0.1,0-0.2c0.1,0,3.3,0.1,6.6-0.9
		c0.2,0.4,0.4,0.7,0.5,1.1c-0.1,0-0.2,0-0.3,0.1c-3.5,1.1-5.2,4.2-5.2,4.2s0,0,0,0C-439.8-31.8-440.4-33.3-440.4-35z M-434-28.6
		c-1.5,0-3-0.6-4.1-1.5c0.1,0.1,0.1,0.1,0.1,0.1s1.2-2.7,5-4c0,0,0,0,0,0c0.9,2.3,1.3,4.3,1.4,4.9C-432.3-28.8-433.1-28.6-434-28.6z
		 M-430.4-29.7c-0.1-0.4-0.4-2.3-1.2-4.6c2.1-0.3,3.9,0.2,4,0.3C-428-32.2-429-30.6-430.4-29.7z"/>
	<path class="st0" d="M-434,70c8.3,0,15-6.7,15-15c0-8.3-6.7-15-15-15c-8.3,0-15,6.7-15,15C-449,63.3-442.3,70-434,70"/>
	<path class="st37" d="M-426.9,56.6c0.1-0.5,0.2-1,0.2-1.5c0-4-3.2-7.2-7.2-7.2c-0.4,0-0.8,0-1.2,0.1c-0.6-0.4-1.4-0.6-2.2-0.6
		c-2.3,0-4.1,1.9-4.1,4.1c0,0.8,0.2,1.5,0.6,2.1c-0.1,0.5-0.1,0.9-0.1,1.4c0,4,3.2,7.2,7.2,7.2c0.4,0,0.9,0,1.3-0.1
		c0.6,0.3,1.3,0.5,2,0.5c2.3,0,4.1-1.9,4.1-4.1C-426.5,57.8-426.7,57.2-426.9,56.6z M-430.2,58.5c-0.3,0.5-0.8,0.8-1.5,1.1
		c-0.6,0.3-1.4,0.4-2.2,0.4c-1,0-1.9-0.2-2.6-0.5c-0.5-0.3-0.9-0.6-1.2-1c-0.3-0.4-0.5-0.9-0.5-1.3c0-0.3,0.1-0.5,0.3-0.7
		c0.2-0.2,0.4-0.3,0.7-0.3c0.2,0,0.5,0.1,0.6,0.2c0.2,0.1,0.3,0.3,0.4,0.6c0.1,0.3,0.3,0.5,0.4,0.7c0.1,0.2,0.3,0.3,0.6,0.5
		c0.3,0.1,0.6,0.2,1,0.2c0.6,0,1.1-0.1,1.4-0.4c0.4-0.2,0.5-0.5,0.5-0.9c0-0.3-0.1-0.5-0.3-0.7c-0.2-0.2-0.5-0.3-0.8-0.4
		c-0.3-0.1-0.8-0.2-1.3-0.3c-0.7-0.2-1.4-0.3-1.9-0.6c-0.5-0.2-0.9-0.5-1.2-0.9c-0.3-0.4-0.5-0.9-0.5-1.4c0-0.5,0.2-1,0.5-1.4
		c0.3-0.4,0.8-0.7,1.4-1c0.6-0.2,1.3-0.3,2.1-0.3c0.6,0,1.2,0.1,1.7,0.2c0.5,0.1,0.9,0.3,1.2,0.6c0.3,0.2,0.6,0.5,0.7,0.8
		c0.1,0.3,0.2,0.6,0.2,0.8c0,0.3-0.1,0.5-0.3,0.7c-0.2,0.2-0.4,0.3-0.7,0.3c-0.3,0-0.5-0.1-0.6-0.2c-0.1-0.1-0.3-0.3-0.4-0.6
		c-0.2-0.3-0.4-0.6-0.6-0.8c-0.2-0.2-0.6-0.3-1.2-0.3c-0.5,0-0.9,0.1-1.2,0.3c-0.3,0.2-0.4,0.4-0.4,0.7c0,0.2,0,0.3,0.1,0.4
		c0.1,0.1,0.2,0.2,0.4,0.3c0.2,0.1,0.4,0.2,0.6,0.2c0.2,0.1,0.5,0.1,1,0.2c0.6,0.1,1.1,0.3,1.6,0.4c0.5,0.2,0.9,0.3,1.2,0.6
		c0.3,0.2,0.6,0.5,0.8,0.9c0.2,0.3,0.3,0.8,0.3,1.3C-429.8,57.5-429.9,58.1-430.2,58.5z"/>
	<path class="st0" d="M-434,160c8.3,0,15-6.7,15-15c0-8.3-6.7-15-15-15c-8.3,0-15,6.7-15,15C-449,153.3-442.3,160-434,160"/>
	<g>
		<path class="st37" d="M-429.4,142.8c0.1,0,0.2,0,0.3-0.1h1.1l0.2-0.2c0,0,0,0,0,0l0.4-0.6c0,0,0,0,0,0l0-0.1h-5.9l0.2,0.9h1.6
			l-2.7,2.4c-0.6-0.8-1.8-2.3-2.7-3.6h2v-0.7l0-0.2c0,0,0,0,0,0v-0.1h-6.7v0.9h2c0.8,0.6,3.7,4.3,3.8,4.6c0,0.3,0.1,2.4,0,2.5
			c-0.3,0.3-1.6,0.2-1.9,0.2l-0.1,0.6c0.6,0,2.5,0,3.1,0c1.2,0,3.2,0,3.5,0l0-0.7c-0.3,0-1.9,0-2.1-0.1c0-0.3-0.1-2.5-0.1-2.7
			C-433.1,145.5-429.8,142.9-429.4,142.8z"/>
		<path class="st37" d="M-428.4,147.8l0.9,0.1l1-4c-0.2,0-1.8-0.2-2-0.2L-428.4,147.8z"/>
		<polygon class="st37" points="-428.6,148.5 -428.6,149.4 -428.1,149.5 -427.6,149.5 -427.5,148.6 -428,148.5 		"/>
	</g>
	<path class="st0" d="M-434,250c8.3,0,15-6.7,15-15c0-8.3-6.7-15-15-15c-8.3,0-15,6.7-15,15C-449,243.3-442.3,250-434,250"/>
	<g>
		<g>
			<g>
				<g>
					<path id="SVGID_9_" class="st37" d="M-436.1,240.2c-0.8-0.5-1.6-1-2.8-1c-0.7,0-1.6,0.2-2.6,0.6l1.4-4.8
						c0.2-0.1,0.3-0.1,0.5-0.2c0.5-0.2,1.2-0.4,2-0.4c0.1,0,0.2,0,0.3,0c0.8,0,1.5,0.3,2,0.5c0.2,0.1,0.4,0.2,0.6,0.4
						C-434.9,235.9-435.8,239.2-436.1,240.2"/>
				</g>
			</g>
		</g>
		<g>
			<g>
				<g>
					<path id="SVGID_11_" class="st37" d="M-432.4,241.7c-1.2,0-2.8-1-2.8-1l1.4-4.8c0.4,0.3,1.4,1,3,1c0.7,0,1.6-0.1,2.6-0.5
						l-1.3,4.7C-430.7,241.5-431.6,241.7-432.4,241.7"/>
				</g>
			</g>
		</g>
		<g>
			<g>
				<g>
					<path id="SVGID_13_" class="st37" d="M-433,229.3L-433,229.3c-0.3,1-1.1,3.9-1.4,4.8 M-434.4,234.1c-0.7-0.5-1.5-0.9-2.7-1
						c0,0,0,0,0,0c-0.7,0-1.6,0.2-2.7,0.6l1.4-4.8c1-0.4,1.9-0.6,2.6-0.6c0,0,0,0,0,0c0.4,0,0.8,0.1,1.1,0.1
						c0.7,0.2,1.7,0.8,1.7,0.8"/>
				</g>
			</g>
		</g>
		<g>
			<g>
				<g>
					<path id="SVGID_15_" class="st37" d="M-430.6,235.7c-1.2,0-2.2-0.4-3-0.9c0,0,0,0,0,0l1.4-4.9c0.4,0.3,1.4,1,3,1
						c0.8,0,1.7-0.2,2.7-0.6l-1.4,4.8c0,0,0,0,0,0c0,0,0,0,0,0C-428.9,235.5-429.8,235.7-430.6,235.7"/>
				</g>
			</g>
		</g>
	</g>
	<path class="st0" d="M-434,340.1c8.3,0,15-6.7,15-15s-6.7-15-15-15c-8.3,0-15,6.7-15,15S-442.3,340.1-434,340.1"/>
	<g>
		<path class="st37" d="M-435.3,324.8l1.3-2.2c0.1-0.2,0-0.4-0.1-0.5l-0.9-0.5c-0.2-0.1-0.4,0-0.5,0.1l-1.4,2.4l0,0l-1.5,2.7l0,0
			l-1.3,2.2c-0.1,0.2,0,0.4,0.1,0.5l0.9,0.5c0.2,0.1,0.4,0,0.5-0.1l1.8-3.1l0,0L-435.3,324.8z"/>
		<path class="st37" d="M-426.8,324.1h-3c0.4,0.7,0.7,1.3,0.9,1.8c0.2,0.3,0.3,0.6,0.3,0.6c0,0.1,0.1,0.2,0.1,0.3h1.7
			c0.2,0,0.3-0.1,0.3-0.3v-2C-426.5,324.3-426.6,324.1-426.8,324.1z"/>
		<path class="st37" d="M-434.2,324.1l-1.5,2.7h4.1c-0.3-0.6-0.7-1.4-1.2-2.7H-434.2z"/>
		<path class="st37" d="M-437.7,324.1h-3.5c-0.2,0-0.3,0.1-0.3,0.3v2c0,0.2,0.1,0.3,0.3,0.3h2L-437.7,324.1z"/>
		<path class="st37" d="M-439,330.4l-0.9-0.5c-0.2-0.1-0.3,0-0.3,0.2l-0.2,1.4c0,0.2,0.1,0.3,0.2,0.1l1.2-0.8
			C-438.8,330.7-438.9,330.5-439,330.4z"/>
		<path class="st37" d="M-429.2,326.8C-429.2,326.8-429.2,326.8-429.2,326.8L-429.2,326.8c-0.1-0.2-0.3-0.6-0.6-1.1c0,0,0,0,0,0
			c0,0,0-0.1-0.1-0.1c0,0,0-0.1,0-0.1c0,0,0-0.1,0-0.1c0,0-0.1-0.1-0.1-0.1c0,0,0,0,0,0c0-0.1-0.1-0.1-0.1-0.2c0,0,0,0,0,0
			c-0.6-1.2-1.4-2.7-1.9-3.5c-0.9-1.4-2-3.6-2.3-3.5c-0.5,0.2,0.9,3.1,1.4,4.2c0.5,1.1,2.3,5.2,2.6,5.4c0.4,0.2,0.5,0.1,0.7,0
			C-429.4,327.6-428.9,327.2-429.2,326.8z"/>
		<path class="st37" d="M-428.1,329l-0.4-0.8c-0.1-0.2-0.3-0.3-0.5-0.2l-0.5,0.3c-0.2,0.1-0.2,0.3-0.1,0.5l0.5,0.9
			c0.1,0.2,0.4,0.2,0.5,0.1l0.4-0.2C-428.1,329.4-428,329.2-428.1,329z"/>
		<path class="st37" d="M-428.3,330.2c-0.1,0.1-0.5,0.4-0.1,1c0.4,0.5,1.3,0.6,1.4,0.9C-427,332.1-426.7,329.3-428.3,330.2z"/>
	</g>
	<path class="st0" d="M-434,430.1c8.3,0,15-6.7,15-15c0-8.3-6.7-15-15-15c-8.3,0-15,6.7-15,15C-449,423.3-442.3,430.1-434,430.1"/>
	<g>
		<path class="st37" d="M-428.7,419.7c-0.1,0-0.2,0-0.2,0c-0.1,0-0.2,0.1-0.2,0.1l-0.1,0l-0.1,0.1v0c-1.6,0.7-3.3,1-4.9,1.1
			c-0.1,0-0.1,0-0.2,0c-2.5,0-4.5-1.1-6.5-2.3c-0.1,0-0.1-0.1-0.2-0.1c-0.1,0-0.2,0-0.3,0.1c-0.1,0.1-0.1,0.2-0.1,0.3
			c0,0.1,0.1,0.2,0.2,0.3c1.9,1.6,4,3.2,6.8,3.2c0.1,0,0.1,0,0.2,0c1.8,0,3.8-0.6,5.4-1.6l0,0c0.2-0.1,0.4-0.3,0.6-0.4
			c0.1-0.1,0.2-0.2,0.2-0.4C-428.2,419.9-428.4,419.7-428.7,419.7z"/>
		<path class="st37" d="M-426.5,418.8L-426.5,418.8c0-0.2,0-0.3-0.1-0.4l0,0l0,0c-0.1-0.1-0.1-0.1-0.2-0.1c-0.2-0.1-0.5-0.1-0.9-0.1
			c-0.3,0-0.5,0-0.8,0.1v0l-0.3,0.1l0,0l-0.2,0.1v0c-0.2,0.1-0.4,0.2-0.5,0.3c-0.1,0.1-0.2,0.2-0.2,0.3c0,0.1,0,0.2,0.1,0.2
			c0.1,0.1,0.2,0.1,0.2,0.1c0,0,0,0,0,0l0,0l0,0c0.1,0,0.3,0,0.6-0.1c0.2,0,0.4,0,0.6,0c0.1,0,0.3,0,0.3,0c0,0,0.1,0,0.1,0
			c0,0,0,0,0,0c0,0,0,0,0,0.1c0,0.2-0.1,0.5-0.2,0.7c-0.1,0.3-0.2,0.6-0.3,0.8c0,0,0,0.1,0,0.1c0,0.1,0,0.2,0.1,0.2
			c0.1,0.1,0.1,0.1,0.2,0.1h0c0.1,0,0.2,0,0.3-0.1C-426.8,420.5-426.5,419.5-426.5,418.8L-426.5,418.8z"/>
		<path class="st37" d="M-433.2,411.7c-0.4,0-0.9,0.1-1.4,0.1c-0.8,0.1-1.5,0.2-2.2,0.5c-1.2,0.5-2.1,1.6-2.1,3.1
			c0,2,1.3,2.9,2.8,2.9c0.5,0,1-0.1,1.4-0.2c0.6-0.2,1.2-0.6,1.8-1.2c0.4,0.5,0.5,0.7,1.1,1.3c0.2,0.1,0.3,0.1,0.5,0
			c0.4-0.3,1.1-0.9,1.5-1.3c0.2-0.1,0.1-0.3,0-0.5c-0.4-0.5-0.7-0.9-0.7-1.8v-3c0-1.3,0.1-2.4-0.8-3.3c-0.8-0.7-2-1-2.9-1h-0.4
			c-1.7,0.1-3.5,0.8-3.9,2.9c-0.1,0.3,0.1,0.4,0.3,0.4l1.9,0.2c0.2,0,0.3-0.2,0.3-0.4c0.2-0.7,0.8-1.1,1.4-1.2h0.1
			c0.4,0,0.8,0.2,1.1,0.5c0.3,0.4,0.2,0.9,0.2,1.4V411.7z M-433.6,415.7c-0.2,0.5-0.6,0.8-1.1,0.9c-0.1,0-0.2,0-0.3,0
			c-0.7,0-1.2-0.6-1.2-1.4c0-1.1,0.6-1.6,1.4-1.8c0.4-0.1,0.9-0.1,1.4-0.1v0.4C-433.2,414.4-433.2,415-433.6,415.7z"/>
	</g>
	<path class="st0" d="M-434,520.1c8.3,0,15-6.7,15-15c0-8.3-6.7-15-15-15c-8.3,0-15,6.7-15,15C-449,513.4-442.3,520.1-434,520.1"/>
	<g>
		<path class="st37" d="M-431.8,498.9l0.2-0.2l0.2-0.2l0.4-0.5c0-0.1,0-0.2,0-0.2c-0.1,0-0.2,0-0.2,0l-0.4,0.6l-0.2,0.2l-0.2,0.2
			c-0.5-0.2-1.1-0.3-1.7-0.3c-0.6,0-1.2,0.1-1.7,0.3l-0.2-0.2l-0.2-0.2l-0.4-0.6c0-0.1-0.1-0.1-0.2,0c-0.1,0-0.1,0.1,0,0.2l0.4,0.5
			l0.2,0.2l0.2,0.2c-1.2,0.6-2.1,1.7-2.1,2.9h8.1C-429.7,500.5-430.5,499.4-431.8,498.9z M-435.5,500.6c-0.2,0-0.4-0.2-0.4-0.4
			c0-0.2,0.2-0.4,0.4-0.4c0.2,0,0.4,0.2,0.4,0.4C-435.1,500.4-435.3,500.6-435.5,500.6z M-432,500.6c-0.2,0-0.4-0.2-0.4-0.4
			c0-0.2,0.2-0.4,0.4-0.4c0.2,0,0.4,0.2,0.4,0.4C-431.6,500.4-431.8,500.6-432,500.6z"/>
		<path class="st37" d="M-437.8,502.4L-437.8,502.4l-0.1,0.7v0.6v5.1c0,0.5,0.4,0.9,0.9,0.9h0.7c0,0.1,0,0.2,0,0.2v0v0.3v1.5
			c0,0.5,0.4,0.9,0.9,0.9c0.5,0,0.9-0.4,0.9-0.9v-1.5V510v0c0-0.1,0-0.2,0-0.2h1.6c0,0.1,0,0.2,0,0.2v0v0.3v1.5
			c0,0.5,0.4,0.9,0.9,0.9c0.5,0,0.9-0.4,0.9-0.9v-1.5V510v0c0-0.1,0-0.2,0-0.2h0.7c0.5,0,0.9-0.4,0.9-0.9v-5.1v-0.6v-0.7h-0.1
			H-437.8z"/>
		<path class="st37" d="M-439.3,502.4c-0.5,0-0.9,0.4-0.9,0.9v3.7c0,0.5,0.4,0.9,0.9,0.9c0.5,0,0.9-0.4,0.9-0.9v-3.7
			C-438.4,502.7-438.8,502.4-439.3,502.4z"/>
		<path class="st37" d="M-428.2,502.4c-0.5,0-0.9,0.4-0.9,0.9v3.7c0,0.5,0.4,0.9,0.9,0.9c0.5,0,0.9-0.4,0.9-0.9v-3.7
			C-427.4,502.7-427.8,502.4-428.2,502.4z"/>
	</g>
	<path class="st0" d="M-434,610.1c8.3,0,15-6.7,15-15c0-8.3-6.7-15-15-15c-8.3,0-15,6.7-15,15C-449,603.4-442.3,610.1-434,610.1"/>
	<path class="st37" d="M-429.4,587.6h-9.2c-1.6,0-2.9,1.3-2.9,2.9v3.1v6.1c0,1.6,1.3,2.9,2.9,2.9h9.2c1.6,0,2.9-1.3,2.9-2.9v-6.1
		v-3.1C-426.5,588.9-427.8,587.6-429.4,587.6z M-428.6,589.3l0.3,0v0.3v2.2l-2.5,0l0-2.5L-428.6,589.3z M-436.1,593.5
		c0.5-0.7,1.3-1.1,2.1-1.1c0.9,0,1.7,0.4,2.1,1.1c0.3,0.4,0.5,1,0.5,1.5c0,1.5-1.2,2.6-2.6,2.6c-1.5,0-2.6-1.2-2.6-2.6
		C-436.6,594.5-436.5,594-436.1,593.5z M-428,599.7c0,0.8-0.6,1.4-1.4,1.4h-9.2c-0.8,0-1.4-0.6-1.4-1.4v-6.1h2.2
		c-0.2,0.5-0.3,1-0.3,1.5c0,2.3,1.8,4.1,4.1,4.1s4.1-1.8,4.1-4.1c0-0.5-0.1-1.1-0.3-1.5h2.2L-428,599.7L-428,599.7z"/>
	<path class="st0" d="M-434,700.1c8.3,0,15-6.7,15-15c0-8.3-6.7-15-15-15c-8.3,0-15,6.7-15,15C-449,693.4-442.3,700.1-434,700.1"/>
	<polygon class="st37" points="-426.5,686.9 -441.5,686.9 -441.5,683.3 -439.8,683.3 -439.8,685.2 -428.2,685.2 -428.2,683.3 
		-426.5,683.3 	"/>
	<path class="st0" d="M-434,790.1c8.3,0,15-6.7,15-15c0-8.3-6.7-15-15-15s-15,6.7-15,15C-449,783.4-442.3,790.1-434,790.1"/>
	<path class="st37" d="M-427.5,782.1l-6.2-14.3c-0.1-0.1-0.2-0.2-0.3-0.2l0,0c-0.1,0-0.3,0.1-0.3,0.2l-6.2,14.3c0,0.1,0,0.2,0,0.3
		c0.1,0.1,0.2,0.2,0.3,0.2h5.5v-3l-1.5-1l0.2-0.4l1.2,0.9v-2.4h1.4v1.6l1.3-0.6l0.2,0.4l-1.5,0.7v1.2l2.4-1.2l0.2,0.4l-2.6,1.3v2.3
		h5.5c0.1,0,0.2-0.1,0.3-0.2C-427.4,782.3-427.4,782.2-427.5,782.1z"/>
	<path class="st0" d="M-434-170c8.3,0,15-6.7,15-15c0-8.3-6.7-15-15-15c-8.3,0-15,6.7-15,15S-442.3-170-434-170"/>
	<g>
		<polygon class="st37" points="-441.5,-184.2 -437.1,-181.3 -434,-183.9 -438.4,-186.6 		"/>
		<polygon class="st37" points="-437.1,-192 -441.5,-189.1 -438.4,-186.6 -434,-189.4 		"/>
		<polygon class="st37" points="-426.5,-189.1 -430.9,-192 -434,-189.4 -429.6,-186.6 		"/>
		<polygon class="st37" points="-434,-183.9 -430.9,-181.3 -426.5,-184.2 -429.6,-186.6 		"/>
		<polygon class="st37" points="-434,-183.3 -437.1,-180.8 -438.4,-181.6 -438.4,-180.7 -434,-178 -429.6,-180.7 -429.6,-181.6 
			-430.9,-180.8 		"/>
	</g>
	<path class="st0" d="M-434-80c8.3,0,15-6.7,15-15c0-8.3-6.7-15-15-15c-8.3,0-15,6.7-15,15C-449-86.7-442.3-80-434-80"/>
	<path class="st37" d="M-428.9-95.7c-0.1,0-0.3-0.1-0.4-0.1c-0.9-0.3-1.5-0.5-1.5-1.2c0-0.6,0.5-1,1.1-1c0.5,0,0.8,0.2,1.2,0.6
		c0,0,0.1,0.1,0.1,0l0.9-0.5c0,0,0,0,0.1-0.1c0,0,0-0.1,0-0.1c-0.5-0.9-1.2-1.3-2.2-1.3c-1.5,0-2.5,0.9-2.5,2.3c0,1.4,0.9,2,2.7,2.6
		c1,0.3,1.5,0.5,1.5,1.2c0,0.8-0.7,1.4-1.7,1.4c-1,0-1.4-0.6-1.8-1.5c-0.7-1.5-1.4-3.3-1.4-3.3c-0.8-1.8-2.3-2.8-4.2-2.8
		c-2.5,0-4.5,2-4.5,4.5c0,2.5,2,4.5,4.5,4.5c1.4,0,2.6-0.6,3.5-1.7c0,0,0-0.1,0-0.1l-0.6-1.3c0,0-0.1-0.1-0.1-0.1c0,0-0.1,0-0.1,0.1
		c-0.5,1-1.6,1.7-2.7,1.7c-1.7,0-3.1-1.4-3.1-3.1c0-1.7,1.4-3.1,3.1-3.1c1.2,0,2.4,0.7,2.8,1.8l1.4,3.2l0.2,0.4
		c0.6,1.5,1.6,2.1,3,2.1c1.7,0,3.1-1.2,3.1-2.7C-426.6-94.7-427.5-95.2-428.9-95.7z"/>
	<path class="st0" d="M-434,10c8.3,0,15-6.7,15-15s-6.7-15-15-15c-8.3,0-15,6.7-15,15S-442.3,10-434,10"/>
	<path class="st37" d="M-440.8-2.5C-440.7-2.5-440.7-2.6-440.8-2.5l0.2-1.4l-0.2-1.3c0,0,0-0.1-0.1-0.1c0,0-0.1,0-0.1,0.1l-0.1,1.3
		L-440.8-2.5C-440.8-2.6-440.8-2.5-440.8-2.5z M-441.3-3.1L-441.3-3.1L-441.3-3.1L-441.3-3.1z M-441.3-3C-441.3-3-441.3-3.1-441.3-3
		l0.2-0.9l-0.1-0.8c0,0,0-0.1-0.1-0.1c0,0-0.1,0-0.1,0.1l-0.1,0.8L-441.3-3C-441.4-3.1-441.4-3-441.3-3z M-440.1-5.5
		C-440.1-5.6-440.1-5.6-440.1-5.5c-0.1-0.1-0.1,0-0.1,0l-0.1,1.6l0.1,1.5c0,0,0,0.1,0.1,0.1c0,0,0.1,0,0.1-0.1l0.2-1.5L-440.1-5.5z
		 M-439.6-2.3C-439.5-2.3-439.5-2.3-439.6-2.3L-439.6-2.3l0.2-1.7l-0.1-1.6c0-0.1,0-0.1-0.1-0.1c0,0-0.1,0-0.1,0.1l-0.1,1.6
		L-439.6-2.3C-439.7-2.3-439.6-2.3-439.6-2.3z M-439-2.2c0.1,0,0.1,0,0.1-0.1l0,0l0.1-1.6l-0.1-1.5c0-0.1,0-0.1-0.1-0.1
		c-0.1,0-0.1,0-0.1,0.1l-0.1,1.5l0.1,1.6C-439.1-2.3-439-2.2-439-2.2z M-438.1-3.9l-0.1-2.5c0-0.1-0.1-0.1-0.1-0.1
		c-0.1,0-0.1,0.1-0.1,0.1l-0.1,2.5l0.1,1.6c0,0.1,0.1,0.1,0.1,0.1c0.1,0,0.1,0,0.1-0.1l0,0L-438.1-3.9z M-437.8-2.2
		c0.1,0,0.1-0.1,0.1-0.1v0l0.1-1.6l-0.1-3c0-0.1-0.1-0.1-0.1-0.1c-0.1,0-0.1,0.1-0.1,0.1l-0.1,3l0.1,1.6
		C-437.9-2.3-437.8-2.2-437.8-2.2z M-437.2-7.4c-0.1,0-0.1,0.1-0.1,0.1l-0.1,3.3l0.1,1.6c0,0.1,0.1,0.1,0.1,0.1
		c0.1,0,0.1-0.1,0.1-0.1l0,0l0.1-1.6l-0.1-3.3C-437-7.3-437.1-7.4-437.2-7.4z M-436.5-2.2c0.1,0,0.1-0.1,0.2-0.2v0l0.1-1.6l-0.1-3.4
		c0-0.1-0.1-0.2-0.2-0.2c-0.1,0-0.1,0.1-0.2,0.2l-0.1,3.4l0.1,1.6C-436.7-2.3-436.6-2.2-436.5-2.2z M-435.9-2.2
		c0.1,0,0.2-0.1,0.2-0.2l0,0l0.1-1.6l-0.1-3.3c0-0.1-0.1-0.2-0.2-0.2c-0.1,0-0.2,0.1-0.2,0.2l-0.1,3.3l0.1,1.6
		C-436.1-2.3-436-2.2-435.9-2.2z M-435-3.9l-0.1-3.2c0-0.1-0.1-0.2-0.2-0.2s-0.2,0.1-0.2,0.2l-0.1,3.2l0.1,1.5
		c0,0.1,0.1,0.2,0.2,0.2s0.2-0.1,0.2-0.2v0L-435-3.9z M-434.7-2.2c0.1,0,0.2-0.1,0.2-0.2v0l0.1-1.5l-0.1-3.8c0-0.1-0.1-0.2-0.2-0.2
		c-0.1,0-0.2,0.1-0.2,0.2l-0.1,3.8c0,0,0.1,1.5,0.1,1.5C-434.9-2.3-434.8-2.2-434.7-2.2z M-434-8.3c-0.1,0-0.2,0.1-0.2,0.2l-0.1,4.2
		l0.1,1.5c0,0.1,0.1,0.2,0.2,0.2c0.1,0,0.2-0.1,0.2-0.2v0l0.1-1.5l-0.1-4.2C-433.8-8.2-433.9-8.3-434-8.3z M-433.5-2.2
		c0,0,5.1,0,5.1,0c1,0,1.8-0.8,1.8-1.8c0-1-0.8-1.8-1.8-1.8c-0.3,0-0.5,0.1-0.7,0.1c-0.1-1.7-1.5-3-3.2-3c-0.4,0-0.8,0.1-1.2,0.2
		c-0.1,0.1-0.2,0.1-0.2,0.2v5.9C-433.7-2.3-433.6-2.2-433.5-2.2z"/>
	<path class="st0" d="M-434,100c8.3,0,15-6.7,15-15s-6.7-15-15-15c-8.3,0-15,6.7-15,15S-442.3,100-434,100"/>
	<path class="st37" d="M-441.5,85c0,3,1.7,5.5,4.2,6.7l-3.6-9.8C-441.3,82.9-441.5,83.9-441.5,85z M-428.9,84.6
		c0-0.9-0.3-1.6-0.6-2.1c-0.4-0.6-0.7-1.1-0.7-1.8c0-0.7,0.5-1.3,1.3-1.3c0,0,0.1,0,0.1,0c-1.3-1.2-3.1-2-5.1-2
		c-2.6,0-4.9,1.3-6.3,3.4c0.2,0,0.3,0,0.5,0c0.8,0,2-0.1,2-0.1c0.4,0,0.5,0.6,0,0.6c0,0-0.4,0-0.9,0.1l2.7,8.1l1.6-4.9l-1.2-3.2
		c-0.4,0-0.8-0.1-0.8-0.1c-0.4,0-0.4-0.6,0-0.6c0,0,1.2,0.1,2,0.1c0.8,0,2-0.1,2-0.1c0.4,0,0.5,0.6,0,0.6c0,0-0.4,0-0.9,0.1l2.7,8.1
		l0.8-2.5C-429.1,86.1-428.9,85.3-428.9,84.6z M-433.9,85.7l-2.3,6.5c0.7,0.2,1.4,0.3,2.1,0.3c0.9,0,1.7-0.1,2.5-0.4
		c0,0,0-0.1-0.1-0.1L-433.9,85.7z M-427.4,81.4c0,0.2,0.1,0.5,0.1,0.8c0,0.8-0.1,1.6-0.6,2.7l-2.3,6.6c2.2-1.3,3.7-3.7,3.7-6.5
		C-426.5,83.7-426.8,82.5-427.4,81.4z"/>
	<path class="st0" d="M-434,190c8.3,0,15-6.7,15-15s-6.7-15-15-15c-8.3,0-15,6.7-15,15S-442.3,190-434,190"/>
	<g>
		<path class="st37" d="M-439.2,170.8v2h-2.3v4.5h3.7v-6.5H-439.2z M-439.2,176.1h-0.8V174h0.8L-439.2,176.1L-439.2,176.1z"/>
		<path class="st37" d="M-434.7,172.8v4.5h2.3v0.7h-2.3v1.3h3.1h0.6v-6.5H-434.7z M-432.5,176.1h-0.8V174h0.8V176.1z"/>
		<path class="st37" d="M-430.2,172.8v4.5h2.3v0.7h-2.3v1.3h3.1h0.6v-6.5H-430.2z M-428,176.1h-0.8V174h0.8L-428,176.1L-428,176.1z"
			/>
		<rect x="-437" y="172.7" class="st37" width="1.5" height="4.6"/>
		<rect x="-437" y="170.8" class="st37" width="1.5" height="1.2"/>
	</g>
	<path class="st0" d="M-434,280c8.3,0,15-6.7,15-15c0-8.3-6.7-15-15-15c-8.3,0-15,6.7-15,15C-449,273.3-442.3,280-434,280"/>
	<path class="st37" d="M-434.4,267.6c0-1.3-1.1-2.4-2.5-2.5l-0.5,0c-0.5,0-0.9-0.4-0.9-0.9c0-0.5,0.4-0.9,0.9-0.9h3.5
		c0.5,0,0.9,0.4,0.9,0.9v3.2c0,1.4,1.2,2.6,2.6,2.6h0.4c1.4,0,2.6-1.2,2.6-2.6v-10.8c-0.1,0-0.1,0-0.2,0h-1.5v10.8
		c0,0.5-0.4,0.9-0.9,0.9h-0.4c-0.5,0-0.9-0.4-0.9-0.9v-3.2c0-1.4-1.1-2.6-2.6-2.6h-3.5c-1.4,0-2.6,1.1-2.6,2.5
		c0,1.4,1.1,2.5,2.5,2.6l0.5,0c0.5,0,0.9,0.4,0.9,0.8c0,0.4-0.5,0.8-1,0.8h-5.5v1.7h5.5C-435.6,270-434.4,268.9-434.4,267.6z"/>
	<path class="st0" d="M-434,370.1c8.3,0,15-6.7,15-15c0-8.3-6.7-15-15-15c-8.3,0-15,6.7-15,15C-449,363.3-442.3,370.1-434,370.1"/>
	<g>
		<path class="st37" d="M-433.3,354.2c-0.2-0.1-0.5-0.2-0.8-0.2c-0.5,0-0.9,0.1-1.2,0.5h0V352h-1.5v2.1c0,0,0,0,0.1,0
			c0.6,0.2,0.9,0.5,1,0.9c0.2,0.4,0.2,0.8,0.2,1.3l0,0c0,0.1-0.1,0.2-0.2,0.2h-1.1v0v0.1h1.1l0,0h0c0.1,0,0.2,0.1,0.2,0.2
			c0,0.3-0.1,0.5-0.3,0.7c-0.2,0.2-0.4,0.4-0.8,0.5c0,0-0.1,0-0.1,0l0,0v0.8h1.4v-0.5h0c0.3,0.5,0.7,0.6,1.2,0.6
			c1.1,0,1.4-0.9,1.4-1.7l0,0l0,0h0c-0.5-0.1-0.8-0.4-1-0.8l0,0c0-0.1-0.1-0.2-0.1-0.2c-0.1-0.2-0.1-0.4-0.1-0.6l0,0v0
			c0-0.3,0.1-0.6,0.2-0.8C-433.6,354.5-433.5,354.3-433.3,354.2L-433.3,354.2z M-434.1,356.4c0,1.2-0.1,1.7-0.6,1.7
			c-0.5,0-0.6-0.5-0.6-1.7c0-0.9,0-1.6,0.6-1.6C-434.1,354.8-434.1,355.5-434.1,356.4L-434.1,356.4z"/>
		<path class="st37" d="M-435.7,356.8h-1.1h-0.8h0h-0.9c0,0.4-0.2,0.8-1.1,0.8c-1.2,0-1.2-0.7-1.2-1.3h4h1.1c0.1-0.9-0.1-1.6-1.1-2
			c-0.2-0.1-0.5-0.2-0.8-0.2c-0.5-0.1-1.2-0.2-2-0.2c-3.5,0-3.9,1-3.9,2.1c0,1.3,0.4,2.3,3.9,2.3c0.8,0,1.5-0.1,2-0.2
			c0.3-0.1,0.5-0.1,0.8-0.2c0,0,0,0,0,0C-436.1,357.6-435.8,357.2-435.7,356.8L-435.7,356.8z M-439.6,354.6c1.3,0,1.2,0.6,1.2,1
			h-2.4C-440.8,355.3-440.8,354.6-439.6,354.6L-439.6,354.6z"/>
		<path class="st37" d="M-433.2,354.3c-0.4,0.2-0.5,0.6-0.5,1.3c0,0.7,0.3,1.4,1,1.5c0.1,0,0.2,0,0.4,0c0.6,0,1.1-0.2,1.4-0.7h0
			l0.1,0.6h1.4c0-0.3-0.1-0.6-0.1-0.9v-0.9l-0.1-0.3l0,0l-1.5-2.7l-0.1-0.1c-0.1,0-0.3,0-0.5,0c-0.6,0-1,0.1-1.4,0.3
			c-0.4,0.2-0.6,0.6-0.6,1.2h1.5c0-0.4,0-0.7,0.5-0.7c0.5,0,0.6,0.3,0.6,0.7v0.4C-431.9,353.9-432.7,353.9-433.2,354.3L-433.2,354.3
			z M-431.8,356.3c-0.5,0-0.6-0.4-0.6-0.8c0-0.8,0.6-0.8,1.3-0.8C-431,355.2-430.9,356.3-431.8,356.3L-431.8,356.3z"/>
		<polygon class="st37" points="-426.5,351.5 -427.9,354.4 -429.3,351.5 -431.4,351.5 -431.1,352.1 -429.6,354.8 -429,355.9 
			-429,358.3 -427.1,358.3 -427.1,355.9 -424.5,351.5 		"/>
	</g>
	<path class="st0" d="M-434,460.1c8.3,0,15-6.7,15-15c0-8.3-6.7-15-15-15c-8.3,0-15,6.7-15,15C-449,453.3-442.3,460.1-434,460.1"/>
	<g>
		<g>
			<path class="st37" d="M-430.9,438.1c-1-0.4-2-0.7-3.1-0.7c-0.9,0-1.8,0.2-2.6,0.5c0.2,0.2,5.5,5,5.7,5.2
				C-430.9,442.8-430.9,438.2-430.9,438.1L-430.9,438.1z"/>
		</g>
		<g>
			<path class="st37" d="M-437.9,451.3c0-0.3,0-6.1,0-6.4c-0.2,0.2-3,2.7-3.1,2.8C-440.4,449.2-439.3,450.5-437.9,451.3
				L-437.9,451.3z"/>
		</g>
		<g>
			<path class="st37" d="M-441.5,444.9c0,0.6,0.1,1.3,0.3,1.9c0.2-0.2,6.5-5.9,6.6-6c-0.1-0.1-2.8-2.5-2.8-2.6
				C-439.9,439.5-441.5,442.1-441.5,444.9L-441.5,444.9z"/>
		</g>
		<g>
			<path class="st37" d="M-437.1,448.2c0,0.2,0,3.5,0,3.6c0.8,0.3,1.6,0.6,2.4,0.6h1.4c2.6-0.2,4.9-1.8,6.1-4.2
				C-427.5,448.2-436.9,448.2-437.1,448.2L-437.1,448.2z"/>
		</g>
		<g>
			<path class="st37" d="M-430.1,438.5c0,0.3,0,8.7,0,8.9c0.2,0,3.1,0,3.2,0c0.3-0.8,0.4-1.6,0.4-2.5
				C-426.5,442.3-427.9,439.9-430.1,438.5L-430.1,438.5z"/>
		</g>
	</g>
	<path class="st0" d="M-434,550.1c8.3,0,15-6.7,15-15c0-8.3-6.7-15-15-15c-8.3,0-15,6.7-15,15C-449,543.4-442.3,550.1-434,550.1"/>
	<path class="st37" d="M-426.5,531.3c0-0.6-0.2-1.2-0.5-1.6c-0.8-1.3-2.3-2-3.7-2h-7.5l-3.3,14.8h4.4l1.1-4.9h3.2c0,0,0.1,0,0.1,0
		c1.8,0,3.4-0.7,4.5-1.9c0.7-0.8,1.3-1.8,1.6-3C-426.5,532.2-426.5,531.7-426.5,531.3z M-430.8,532.7c-0.1,0.5-0.4,0.9-0.8,1.3
		c-0.1,0.1-0.3,0.2-0.4,0.3c-0.4,0.2-0.9,0.4-1.3,0.4h-2.1l0.9-3.8l0.1-0.3h2.2c0.4,0,0.7,0.1,1,0.3
		C-430.8,531.3-430.6,532-430.8,532.7z"/>
	<path class="st0" d="M-434,640.1c8.3,0,15-6.7,15-15c0-8.3-6.7-15-15-15c-8.3,0-15,6.7-15,15C-449,633.4-442.3,640.1-434,640.1"/>
	<path class="st37" d="M-436.1,623.4c3.4-1,6.2,1,6.2,1l-2.3,0.6l-0.7-1.2c-0.6-0.1-1.4-0.2-2.1,0l1.6,3.2l6.9-2
		c0,0-2.5-3.9-9.9-2.7c0,0-0.1,0-0.1,0l-0.7-1.5l-2.1,0.2l0.9,1.8c-4.5,1.9-2.5,6.3-2.5,6.3l6.9-2L-436.1,623.4z M-439.2,626.9
		c0,0-0.7-1.5,1.3-2.7l1,2.1L-439.2,626.9z"/>
	<path class="st0" d="M-434,820.1c8.3,0,15-6.7,15-15c0-8.3-6.7-15-15-15s-15,6.7-15,15C-449,813.4-442.3,820.1-434,820.1"/>
	<path class="st37" d="M-426.8,797.6h-14.4c-0.2,0-0.3,0.1-0.3,0.3v14.4c0,0.2,0.1,0.3,0.3,0.3h14.4c0.2,0,0.3-0.1,0.3-0.3v-14.4
		C-426.5,797.7-426.6,797.6-426.8,797.6z M-434,812v-6.9h-6.9v-6.9h6.9v6.9h6.9v6.9H-434z"/>
	<path class="st0" d="M-434,730.1c8.3,0,15-6.7,15-15c0-8.3-6.7-15-15-15c-8.3,0-15,6.7-15,15C-449,723.4-442.3,730.1-434,730.1"/>
	<g>
		<polygon class="st37" points="-436.2,717.8 -436.3,717.8 -436.3,717.9 -438.4,721.5 -438.5,721.7 -438.3,721.7 -428.8,721.7 
			-428.7,721.7 -428.7,721.6 -426.6,718 -426.5,717.8 -426.7,717.8 		"/>
		<polygon class="st37" points="-431,716.9 -430.9,717 -430.8,717 -426.7,717 -426.5,717 -426.6,716.8 -431.4,708.6 -431.4,708.5 
			-431.5,708.5 -435.6,708.5 -435.8,708.5 -435.7,708.7 		"/>
		<polygon class="st37" points="-434.4,712.8 -434.4,712.7 -436.5,709.2 -436.6,708.9 -436.7,709.2 -441.5,717.4 -441.5,717.4 
			-441.5,717.5 -439.4,721 -439.3,721.3 -439.1,721 -434.4,712.8 		"/>
	</g>
</g>
<path id="Shape_148_" class="st0" d="M-419,835.1c0-8.3-6.7-15-15-15s-15,6.7-15,15c0,8.3,6.7,15,15,15S-419,843.4-419,835.1z"/>
<path id="Shape-Copy" d="M-419,835.1c0-2,0.4-4,1.2-5.8c0.8-1.9,1.9-3.5,3.2-4.8c1.3-1.3,2.9-2.4,4.8-3.2c1.9-0.8,3.8-1.2,5.8-1.2
	s4,0.4,5.8,1.2c1.9,0.8,3.5,1.9,4.8,3.2c1.3,1.3,2.4,2.9,3.2,4.8c0.8,1.9,1.2,3.8,1.2,5.8s-0.4,4-1.2,5.8c-0.8,1.9-1.9,3.5-3.2,4.8
	c-1.3,1.3-2.9,2.4-4.8,3.2c-1.9,0.8-3.8,1.2-5.8,1.2s-4-0.4-5.8-1.2c-1.9-0.8-3.5-1.9-4.8-3.2c-1.3-1.3-2.4-2.9-3.2-4.8
	C-418.6,839.1-419,837.1-419,835.1L-419,835.1L-419,835.1z M-412,839.5c0.5,0.9,1.2,1.6,2.1,2c1,0.5,2,0.7,3,0.8
	c0.8,0.1,1.8,0.2,3,0.2c0.6,0,1.2,0,1.7,0c1.3-0.1,2.5-0.3,3.5-0.7c1.2-0.5,2.1-1.3,2.5-2.3c0.4-0.9,0.6-2,0.6-3.4
	c0-1.6-0.5-3-1.4-4.1c0.2-0.5,0.3-1.1,0.3-1.7c0-0.8-0.2-1.5-0.5-2.2c-0.7,0-1.3,0.1-1.9,0.4s-1.2,0.7-2,1.3
	c-0.9-0.2-1.9-0.3-2.9-0.3c-1.1,0-2.2,0.1-3.2,0.4c-0.8-0.6-1.5-1-2-1.3c-0.6-0.2-1.2-0.4-1.9-0.4c-0.4,0.7-0.5,1.5-0.5,2.2
	c0,0.5,0.1,1.1,0.3,1.8c-0.9,1.1-1.4,2.4-1.4,4.1C-412.7,837.5-412.5,838.6-412,839.5L-412,839.5z M-410.4,837.9
	c0-0.9,0.2-1.6,0.7-2.1s1.1-0.9,1.9-0.9c0.3,0,1,0.1,2,0.2c0.4,0.1,1,0.1,1.6,0.1c0.6,0,1.2,0,1.6-0.1c1.1-0.2,1.7-0.2,2-0.2
	c0.8,0,1.4,0.3,1.9,0.9s0.7,1.3,0.7,2.1c0,0.6-0.1,1.1-0.3,1.6c-0.4,0.8-1.1,1.4-2.1,1.7c-0.8,0.2-1.8,0.4-3,0.4h-1.7
	c-0.6,0-1.1,0-1.5-0.1c-1.2-0.1-2.1-0.4-2.7-0.9C-410,840-410.4,839.1-410.4,837.9L-410.4,837.9L-410.4,837.9z M-408.7,837.9
	c0,0.3,0,0.6,0.1,0.8c0.1,0.3,0.2,0.6,0.5,0.8s0.5,0.3,0.7,0.3c0.3,0,0.5-0.1,0.8-0.3c0.4-0.4,0.6-1,0.6-1.6c0-0.3,0-0.6-0.1-0.9
	c-0.1-0.3-0.2-0.6-0.5-0.8c-0.2-0.2-0.5-0.3-0.7-0.3c-0.3,0-0.5,0.1-0.8,0.3C-408.5,836.7-408.7,837.3-408.7,837.9L-408.7,837.9
	L-408.7,837.9z M-402.1,837.9c0,0.3,0,0.6,0.1,0.8c0.1,0.3,0.2,0.6,0.4,0.8c0.2,0.2,0.5,0.3,0.7,0.3c0.3,0,0.6-0.1,0.8-0.3
	c0.4-0.4,0.5-1,0.5-1.6c0-0.3,0-0.6-0.1-0.9c-0.1-0.3-0.2-0.6-0.5-0.8s-0.5-0.3-0.8-0.3s-0.5,0.1-0.7,0.3
	C-401.9,836.7-402.1,837.2-402.1,837.9L-402.1,837.9L-402.1,837.9z"/>
<path id="Shape-Copy-2" class="st37" d="M-442,839.4c0.5,0.9,1.2,1.6,2.1,2c1,0.5,2,0.7,3,0.8c0.8,0.1,1.8,0.2,3,0.2
	c0.6,0,1.2,0,1.7,0c1.3-0.1,2.5-0.3,3.5-0.7c1.2-0.5,2.1-1.3,2.5-2.3c0.4-0.9,0.6-2,0.6-3.4c0-1.6-0.5-3-1.4-4.1
	c0.2-0.5,0.3-1.1,0.3-1.7c0-0.8-0.2-1.5-0.5-2.2c-0.7,0-1.3,0.1-1.9,0.4s-1.2,0.7-2,1.3c-0.9-0.2-1.9-0.3-2.9-0.3
	c-1.1,0-2.2,0.1-3.2,0.4c-0.8-0.6-1.5-1-2-1.3c-0.6-0.2-1.2-0.4-1.9-0.4c-0.4,0.7-0.5,1.5-0.5,2.2c0,0.5,0.1,1.1,0.3,1.8
	c-0.9,1.1-1.4,2.4-1.4,4.1C-442.7,837.4-442.5,838.5-442,839.4L-442,839.4z M-440.4,837.8c0-0.9,0.2-1.6,0.7-2.1s1.1-0.9,1.9-0.9
	c0.3,0,1,0.1,2,0.2c0.4,0.1,1,0.1,1.6,0.1c0.6,0,1.2,0,1.6-0.1c1.1-0.2,1.7-0.2,2-0.2c0.8,0,1.4,0.3,1.9,0.9s0.7,1.3,0.7,2.1
	c0,0.6-0.1,1.1-0.3,1.6c-0.4,0.8-1.1,1.4-2.1,1.7c-0.8,0.2-1.8,0.4-3,0.4h-1.7c-0.6,0-1.1,0-1.5-0.1c-1.2-0.1-2.1-0.4-2.7-0.9
	C-440,839.9-440.4,839-440.4,837.8L-440.4,837.8L-440.4,837.8z M-438.7,837.8c0,0.3,0,0.6,0.1,0.8c0.1,0.3,0.2,0.6,0.5,0.8
	s0.5,0.3,0.7,0.3c0.3,0,0.5-0.1,0.8-0.3c0.4-0.4,0.6-1,0.6-1.6c0-0.3,0-0.6-0.1-0.9c-0.1-0.3-0.2-0.6-0.5-0.8
	c-0.2-0.2-0.5-0.3-0.7-0.3c-0.3,0-0.5,0.1-0.8,0.3C-438.5,836.6-438.7,837.2-438.7,837.8L-438.7,837.8L-438.7,837.8z M-432.1,837.8
	c0,0.3,0,0.6,0.1,0.8c0.1,0.3,0.2,0.6,0.4,0.8c0.2,0.2,0.5,0.3,0.7,0.3c0.3,0,0.6-0.1,0.8-0.3c0.4-0.4,0.5-1,0.5-1.6
	c0-0.3,0-0.6-0.1-0.9c-0.1-0.3-0.2-0.6-0.5-0.8s-0.5-0.3-0.8-0.3s-0.5,0.1-0.7,0.3C-431.9,836.6-432.1,837.1-432.1,837.8
	L-432.1,837.8L-432.1,837.8z"/>
<g>
	<path class="st37" d="M-426.7,861h-0.6c-0.2,0-0.5,0.3-0.5,0.5v7.2c0,0.2,0.2,0.5,0.5,0.5h0.6v1.7h-5.2v-1.7h1v-7.6h0l-2.6,9.3h-2
		l-2.5-9.3h0v7.6h1.1v1.7h-4.4v-1.7h0.6c0.2,0,0.5-0.3,0.5-0.5v-7.2c0-0.2-0.2-0.5-0.5-0.5h-0.6v-1.7h5.5l1.8,6.7h0l1.8-6.7h5.5V861
		L-426.7,861z"/>
</g>
<g>
	<path id="Shape_2_" d="M-389,865.1c0-8.3-6.7-15-15-15s-15,6.7-15,15c0,8.3,6.7,15,15,15S-389,873.4-389,865.1z"/>
	<g>
		<path class="st2" d="M-396.7,861h-0.6c-0.2,0-0.5,0.3-0.5,0.5v7.2c0,0.2,0.2,0.5,0.5,0.5h0.6v1.7h-5.2v-1.7h1v-7.6h0l-2.6,9.3h-2
			l-2.5-9.3h0v7.6h1.1v1.7h-4.4v-1.7h0.6c0.2,0,0.5-0.3,0.5-0.5v-7.2c0-0.2-0.2-0.5-0.5-0.5h-0.6v-1.7h5.5l1.8,6.7h0l1.8-6.7h5.5
			V861L-396.7,861z"/>
	</g>
</g>
</svg>
